<svg width="352" height="351" viewBox="0 0 352 351" fill="none" xmlns="http://www.w3.org/2000/svg">
<path d="M294.916 56.1476C299.121 58.747 303.966 60.124 308.91 60.124C313.853 60.124 318.699 58.747 322.904 56.1476C327.829 53.103 331.627 48.5354 333.721 43.1376C335.815 37.7397 336.092 31.806 334.51 26.2366C332.927 20.6671 329.572 15.7656 324.952 12.2756C320.332 8.78555 314.7 6.89734 308.91 6.89734C303.12 6.89734 297.488 8.78555 292.868 12.2756C288.248 15.7656 284.893 20.6671 283.31 26.2366C281.727 31.806 282.004 37.7397 284.099 43.1376C286.193 48.5354 289.991 53.103 294.916 56.1476Z" fill="#EBEBEB"/>
<path d="M300.809 30.4654C300.809 32.0685 301.284 33.6355 302.175 34.9684C303.066 36.3013 304.331 37.3402 305.812 37.9537C307.294 38.5671 308.923 38.7277 310.495 38.4149C312.068 38.1022 313.512 37.3302 314.646 36.1967C315.779 35.0631 316.551 33.6189 316.864 32.0466C317.177 30.4744 317.016 28.8447 316.403 27.3636C315.789 25.8826 314.75 24.6167 313.417 23.7261C312.084 22.8355 310.517 22.3601 308.914 22.3601C307.85 22.359 306.795 22.5679 305.811 22.9748C304.827 23.3817 303.933 23.9787 303.18 24.7316C302.428 25.4844 301.831 26.3784 301.424 27.3623C301.017 28.3462 300.808 29.4007 300.809 30.4654Z" fill="white"/>
<path d="M294.916 52.8081V56.1476C299.121 58.747 303.966 60.1239 308.91 60.1239C313.853 60.1239 318.699 58.747 322.904 56.1476V52.8166C322.95 50.9498 322.622 49.0926 321.94 47.3544C321.257 45.6162 320.234 44.0321 318.93 42.6955C317.626 41.3588 316.068 40.2966 314.347 39.5713C312.626 38.846 310.777 38.4724 308.91 38.4724C307.043 38.4724 305.194 38.846 303.473 39.5713C301.752 40.2966 300.194 41.3588 298.89 42.6955C297.586 44.0321 296.563 45.6162 295.88 47.3544C295.198 49.0926 294.87 50.9498 294.916 52.8166V52.8081Z" fill="white"/>
<path d="M70.9962 57.2853C74.4201 48.6771 70.2173 38.9231 61.6091 35.4992C53.0009 32.0754 43.2469 36.2781 39.823 44.8863C36.3991 53.4946 40.6019 63.2485 49.2101 66.6724C57.8183 70.0963 67.5723 65.8936 70.9962 57.2853Z" fill="#EBEBEB"/>
<path d="M63.9625 53.1667C61.4002 58.2912 55.4216 61.3147 55.4216 61.3147C55.4216 61.3147 49.3918 58.2827 46.8808 53.1667C44.7712 48.8963 46.1035 44.3013 49.443 43.2935C54.2173 41.8501 55.4216 50.1689 55.4216 50.1689C55.4216 50.1689 56.643 41.8501 61.4002 43.2935C64.7397 44.3013 66.0721 48.9475 63.9625 53.1667Z" fill="white"/>
<path d="M322.4 202.804C329.701 190.886 325.958 175.306 314.04 168.005C302.121 160.705 286.542 164.448 279.241 176.366C271.94 188.284 275.684 203.864 287.602 211.165C299.52 218.465 315.1 214.722 322.4 202.804Z" fill="#EBEBEB"/>
<path d="M312.271 196.311C306.378 202.589 296.351 204.348 296.351 204.348C296.351 204.348 288.963 197.345 287.528 188.864C286.341 181.783 290.278 175.711 295.522 175.702C303.055 175.702 301.202 188.24 301.202 188.24C301.202 188.24 306.591 176.761 312.869 180.929C317.241 183.833 317.173 191.067 312.271 196.311Z" fill="white"/>
<path fill-rule="evenodd" clip-rule="evenodd" d="M24.6916 147.765C23.6326 147.108 22.7187 146.151 21.2753 146.296C20.7372 146.348 20.8568 145.903 20.8482 145.605C20.8482 140.309 20.8283 135.02 20.7885 129.736C20.7885 129.343 20.7885 129.027 21.224 128.822C25.2639 126.763 26.9977 122.749 29.466 119.316C30.7297 117.609 31.6372 115.666 32.1346 113.601C32.632 111.537 32.7091 109.394 32.3613 107.299C32.1819 106.103 32.7371 105.591 33.8133 105.326C35.1029 105.027 36.3755 105.377 36.8367 106.265C38.0062 108.423 38.795 110.766 39.1684 113.192C39.4075 115.199 38.6901 117.155 38.4509 119.171C38.2716 120.631 37.9385 122.066 37.6652 123.535C38.0239 123.791 38.4339 123.663 38.8097 123.663L52.2273 123.62C54.1063 123.62 55.0373 124.158 55.302 125.405C55.4378 126.16 55.3287 126.939 54.9907 127.627C54.6527 128.315 54.1034 128.878 53.4231 129.232C53.09 129.394 52.4836 129.232 52.4494 129.77C52.4152 130.308 53.0302 130.248 53.3035 130.462C54.9263 131.563 54.6359 133.878 52.7654 135.185C52.3213 135.509 51.4416 135.364 51.4245 136.039C51.4074 136.713 52.2786 136.56 52.6031 136.893C53.9184 138.183 53.2779 140.591 51.322 141.573C51.0557 141.656 50.7959 141.759 50.5448 141.881C50.3227 142.026 50.1007 142.197 50.5448 142.504C52.4836 143.879 52.4494 145.801 50.5448 147.21L49.964 147.637C49.2582 148.061 48.4339 148.243 47.6153 148.158L26.5792 148.235C26.2491 148.288 25.9117 148.274 25.5873 148.193C25.263 148.113 24.9583 147.967 24.6916 147.765Z" fill="#EBEBEB"/>
<path fill-rule="evenodd" clip-rule="evenodd" d="M4.74016 138.498C4.74016 135.142 4.74016 131.777 4.74016 128.412C4.74016 127.728 4.79995 127.395 5.59425 127.395C9.7024 127.438 13.7935 127.395 17.8931 127.395C18.7472 127.395 18.824 127.66 18.824 128.378C18.824 135.142 18.8497 141.909 18.9009 148.679C18.9009 149.533 18.6703 149.781 17.8077 149.772C13.8276 149.772 9.84759 149.772 5.85047 149.815C4.85973 149.815 4.72308 149.491 4.73162 148.619C4.74016 145.229 4.74016 141.864 4.74016 138.498Z" fill="#EBEBEB"/>
<path fill-rule="evenodd" clip-rule="evenodd" d="M328.439 257.524C327.824 257.14 327.286 256.576 326.457 256.67C326.141 256.67 326.21 256.439 326.201 256.268C326.201 253.16 326.201 250.051 326.201 246.942C326.182 246.837 326.197 246.728 326.243 246.632C326.289 246.535 326.364 246.455 326.457 246.404C328.832 245.199 329.874 242.842 331.3 240.827C332.043 239.824 332.577 238.682 332.871 237.468C333.164 236.255 333.211 234.995 333.008 233.763C332.906 233.063 333.23 232.755 333.862 232.61C334.178 232.498 334.521 232.49 334.841 232.589C335.161 232.687 335.441 232.886 335.639 233.157C336.325 234.426 336.787 235.804 337.005 237.231C337.001 238.408 336.861 239.58 336.587 240.724C336.476 241.578 336.279 242.432 336.125 243.286C336.33 243.431 336.578 243.355 336.8 243.355H344.675C345.785 243.355 346.323 243.662 346.477 244.397C346.565 244.849 346.501 245.317 346.296 245.73C346.091 246.142 345.755 246.475 345.341 246.677C345.145 246.78 344.794 246.677 344.769 246.993C344.743 247.309 345.11 247.275 345.298 247.403C346.246 248.052 346.076 249.393 344.982 250.179C344.718 250.367 344.205 250.281 344.188 250.666C344.171 251.05 344.666 250.973 344.88 251.187C345.051 251.405 345.168 251.66 345.223 251.931C345.278 252.203 345.268 252.483 345.195 252.751C345.122 253.018 344.988 253.264 344.802 253.47C344.617 253.676 344.386 253.836 344.128 253.937C343.971 253.988 343.817 254.047 343.667 254.116C343.539 254.21 343.411 254.304 343.667 254.483C344.803 255.295 344.786 256.422 343.667 257.251L343.325 257.498C342.914 257.751 342.43 257.859 341.95 257.806C337.828 257.806 333.708 257.82 329.592 257.848C329.387 257.879 329.179 257.866 328.98 257.81C328.782 257.754 328.597 257.656 328.439 257.524Z" fill="#EBEBEB"/>
<path fill-rule="evenodd" clip-rule="evenodd" d="M316.669 252.083C316.669 250.11 316.669 248.129 316.669 246.156C316.669 245.755 316.669 245.558 317.199 245.567C319.607 245.567 322.016 245.567 324.424 245.567C324.894 245.567 324.971 245.72 324.971 246.139C324.971 250.125 324.971 254.11 324.971 258.096C324.971 258.609 324.834 258.745 324.331 258.745C321.99 258.745 319.659 258.745 317.318 258.745C316.738 258.745 316.661 258.549 316.661 258.045C316.704 256.038 316.678 254.056 316.669 252.083Z" fill="#EBEBEB"/>
<path d="M44.3527 241.749H41.2694C40.8085 241.758 40.3505 241.674 39.9229 241.502C39.4954 241.329 39.1071 241.072 38.7815 240.746C38.456 240.42 38.1998 240.031 38.0285 239.603C37.8572 239.175 37.7743 238.716 37.7848 238.256C37.7892 237.333 38.1578 236.449 38.8104 235.797C39.4629 235.144 40.3466 234.775 41.2694 234.771H45.5398L47.547 223.113H43.6779C42.7537 223.113 41.8674 222.746 41.2139 222.092C40.5604 221.439 40.1933 220.552 40.1933 219.628C40.1933 218.704 40.5604 217.817 41.2139 217.164C41.8674 216.51 42.7537 216.143 43.6779 216.143H48.8025L50.1348 208.166C50.2655 207.344 50.6916 206.598 51.3332 206.068C51.9748 205.538 52.7878 205.261 53.6195 205.288C54.1279 205.296 54.6288 205.412 55.0887 205.629C55.5486 205.846 55.9571 206.158 56.2868 206.546C56.6165 206.933 56.86 207.386 57.0009 207.874C57.1418 208.363 57.177 208.876 57.1042 209.379L55.9085 216.143H66.4052L67.7461 208.166C67.8779 207.332 68.3139 206.576 68.97 206.045C69.6262 205.513 70.4558 205.244 71.2991 205.288C71.8039 205.299 72.3007 205.417 72.7558 205.636C73.2109 205.855 73.6138 206.169 73.9375 206.557C74.2612 206.944 74.4981 207.397 74.6323 207.883C74.7665 208.37 74.7948 208.88 74.7154 209.379L73.5709 216.143H76.6713C77.5918 216.15 78.4725 216.52 79.1218 217.172C79.7711 217.825 80.1366 218.707 80.1389 219.628C80.1257 220.545 79.7567 221.421 79.1097 222.072C78.4627 222.722 77.5884 223.095 76.6713 223.113H72.4008L70.3937 234.771H74.203C74.6622 234.766 75.1178 234.853 75.5431 235.027C75.9685 235.2 76.355 235.457 76.6801 235.781C77.0053 236.105 77.2626 236.491 77.4371 236.916C77.6115 237.341 77.6996 237.796 77.6962 238.256C77.6917 239.181 77.3222 240.067 76.6681 240.721C76.0139 241.375 75.128 241.744 74.203 241.749H69.1809L67.7717 249.982C67.6411 250.804 67.215 251.55 66.5733 252.08C65.9317 252.61 65.1188 252.887 64.287 252.86C63.7773 252.862 63.2732 252.754 62.8091 252.543C62.345 252.332 61.9318 252.024 61.5978 251.638C61.2638 251.253 61.0168 250.801 60.8736 250.312C60.7305 249.822 60.6945 249.308 60.7682 248.804L62.0493 241.766H51.5184L50.1177 249.999C49.9657 250.818 49.5272 251.555 48.8808 252.079C48.2344 252.604 47.4224 252.881 46.5904 252.86C46.0824 252.869 45.5787 252.765 45.1162 252.555C44.6536 252.345 44.2438 252.034 43.9165 251.645C43.5892 251.257 43.3527 250.8 43.2243 250.308C43.0959 249.817 43.0787 249.303 43.174 248.804L44.3527 241.749ZM63.1938 234.771L65.2094 223.113H54.7469L52.7313 234.771H63.1938Z" fill="#EBEBEB"/>
<path d="M264.211 160.372H261.752C261.386 160.374 261.023 160.303 260.685 160.164C260.346 160.025 260.039 159.82 259.781 159.561C259.522 159.302 259.318 158.994 259.18 158.655C259.042 158.316 258.972 157.953 258.976 157.587C258.98 156.853 259.274 156.149 259.794 155.63C260.313 155.11 261.017 154.816 261.752 154.812H265.168L266.774 145.519H263.665C262.954 145.48 262.285 145.17 261.796 144.653C261.307 144.136 261.035 143.451 261.035 142.739C261.035 142.027 261.307 141.343 261.796 140.826C262.285 140.308 262.954 139.998 263.665 139.959H267.739L268.789 133.605C268.895 132.949 269.236 132.354 269.748 131.931C270.261 131.508 270.91 131.286 271.574 131.307C271.979 131.314 272.378 131.407 272.745 131.58C273.111 131.753 273.436 132.002 273.699 132.311C273.962 132.62 274.156 132.981 274.268 133.37C274.38 133.76 274.408 134.169 274.349 134.57L273.401 139.959H281.78L282.848 133.605C282.956 132.942 283.303 132.342 283.824 131.918C284.345 131.495 285.004 131.277 285.675 131.307C286.077 131.317 286.473 131.413 286.836 131.587C287.198 131.762 287.52 132.012 287.778 132.321C288.037 132.63 288.227 132.99 288.335 133.378C288.444 133.765 288.468 134.172 288.408 134.57L287.494 139.959H290.005C290.74 139.964 291.444 140.259 291.963 140.781C292.481 141.302 292.772 142.008 292.772 142.743C292.761 143.475 292.466 144.173 291.95 144.691C291.433 145.209 290.736 145.506 290.005 145.519H286.588L284.94 154.854H287.981C288.346 154.851 288.709 154.92 289.048 155.058C289.387 155.197 289.695 155.401 289.954 155.659C290.213 155.917 290.418 156.225 290.557 156.563C290.697 156.901 290.767 157.264 290.765 157.63C290.763 158.368 290.469 159.075 289.947 159.596C289.425 160.118 288.718 160.412 287.981 160.414H283.975L282.856 166.974C282.745 167.627 282.403 168.219 281.892 168.641C281.381 169.063 280.734 169.287 280.072 169.271C279.666 169.27 279.266 169.181 278.898 169.011C278.53 168.84 278.203 168.593 277.94 168.285C277.676 167.977 277.483 167.615 277.371 167.225C277.26 166.836 277.235 166.426 277.296 166.026L278.312 160.414H269.925L268.798 166.974C268.683 167.632 268.335 168.226 267.817 168.648C267.299 169.07 266.647 169.291 265.979 169.271C265.574 169.277 265.172 169.193 264.803 169.024C264.434 168.855 264.107 168.606 263.846 168.296C263.585 167.985 263.397 167.62 263.295 167.227C263.192 166.835 263.179 166.424 263.255 166.026L264.211 160.372ZM279.226 154.854L280.832 145.562H272.496L270.89 154.854H279.226Z" fill="#EBEBEB"/>
<path d="M175.557 350.465C272.477 350.465 351.046 340.344 351.046 327.858C351.046 315.372 272.477 305.25 175.557 305.25C78.6374 305.25 0.0682983 315.372 0.0682983 327.858C0.0682983 340.344 78.6374 350.465 175.557 350.465Z" fill="#EBEBEB"/>
<path d="M50.7412 204.476C49.8076 207.877 49.1929 211.356 48.9049 214.871C48.9989 215.041 48.9732 215.725 48.9049 215.511C48.9049 216.083 48.0508 215.981 48.0508 215.417C48.0508 215.05 48.0508 214.683 48.0508 214.324C46.0181 211.804 43.0715 210.207 40.6886 208.012C38.7659 206.295 37.3683 204.068 36.6573 201.59C34.6759 194.757 36.5292 187.557 34.1549 180.758C32.1051 174.899 28.4239 169.801 25.3151 164.531C22.0268 158.911 19.6012 153.009 19.3365 146.433C19.14 141.402 19.7464 134.689 23.6069 130.914C27.6723 126.908 32.7115 129.915 35.8203 133.476C44.848 143.836 49.0245 156.921 50.7156 170.313C51.6465 177.718 52.6117 185.174 52.4238 192.647C52.2566 196.636 51.693 200.599 50.7412 204.476Z" fill="#7C20BE"/>
<path d="M48.9391 217.587C49.4332 210.597 49.3504 203.578 48.6914 196.602C48.6993 196.577 48.6993 196.55 48.6914 196.525C48.811 190.854 49.2551 185.2 49.0331 179.52C48.775 173.38 47.9574 167.277 46.5904 161.285C46.5904 161.217 46.4623 161.234 46.4794 161.285C47.5842 167.172 48.2437 173.133 48.4523 179.119C48.5719 182.33 48.5462 185.536 48.3754 188.736C48.3242 189.778 48.2217 190.828 48.1534 191.879C45.7936 175.952 40.038 160.718 31.2766 147.21C31.1571 147.031 30.8325 147.21 30.9435 147.415C37.2045 157.681 41.84 168.853 44.6858 180.536C40.3299 172.499 33.7791 165.889 28.9108 158.159C28.9108 158.117 28.8083 158.159 28.8339 158.159C33.1983 166.768 40.4239 173.533 45.0616 182.022C45.8644 185.484 46.5107 188.969 47.0003 192.476C47.6534 197.29 48.0042 202.139 48.0509 206.996C45.4032 202.059 42.6616 197.328 40.5008 192.101C40.441 191.964 40.2445 192.101 40.2872 192.195C42.1321 197.627 44.6004 203.477 48.068 208.106C48.068 211.523 47.9712 214.959 47.7776 218.415C47.2395 227.571 45.6765 236.616 44.9505 245.746C44.9524 245.796 44.9724 245.845 45.0067 245.882C45.041 245.92 45.0876 245.943 45.138 245.95C45.1883 245.956 45.2393 245.944 45.2816 245.916C45.324 245.888 45.355 245.846 45.369 245.797C47.197 236.485 48.3898 227.06 48.9391 217.587Z" fill="#263238"/>
<path d="M39.2111 146.928C39.2111 146.86 39.083 146.928 39.1086 146.971C40.8168 151.6 41.7307 156.289 42.9349 161.038C42.948 161.079 42.9756 161.114 43.0126 161.136C43.0495 161.159 43.0934 161.167 43.136 161.16C43.1786 161.153 43.2172 161.13 43.2446 161.097C43.272 161.063 43.2864 161.021 43.2851 160.978C42.7897 156.169 41.073 151.361 39.2111 146.928Z" fill="#263238"/>
<path d="M81.7104 166.324C80.5925 169.038 79.306 171.68 77.8584 174.233C74.8435 179.708 71.7005 184.721 71.1368 191.093C70.8805 193.937 70.7866 196.798 69.924 199.54C69.1299 201.895 67.9962 204.122 66.5589 206.15C63.2877 210.908 59.2052 215.007 56.1817 219.944C53.0332 225.091 50.7077 230.699 49.2893 236.564C49.2124 236.889 48.7085 236.803 48.7854 236.479C48.7854 236.479 48.7854 236.436 48.7854 236.411C48.7854 236.385 48.7854 236.411 48.7854 236.342C48.3071 222.677 49.4003 208.909 53.5682 195.816C55.4061 190.058 57.6172 184.426 60.1874 178.956C62.4251 174.216 65.2009 169.647 69.1211 166.102C71.6834 163.813 77.1837 159.475 80.805 161.772C82.5217 162.874 82.3936 164.616 81.7104 166.324Z" fill="#7C20BE"/>
<path d="M67.9425 197.302C65.5346 201.267 62.8818 205.078 59.9995 208.713C58.6757 210.421 57.3348 212.129 56.0195 213.88C55.396 214.734 54.6957 215.511 54.1234 216.391C54.4821 214.956 54.8323 213.513 55.1996 212.078C56.959 205.177 58.6159 198.216 61.2806 191.58C63.9748 185.154 67.1466 178.938 70.7695 172.986C70.8635 172.824 70.6073 172.713 70.5133 172.867C67.6265 177.615 64.697 182.355 62.2714 187.386C60.929 190.178 59.7596 193.051 58.7696 195.987C59.8814 189.756 61.4398 183.614 63.4329 177.607C63.4329 177.595 63.4284 177.585 63.4204 177.577C63.4124 177.569 63.4016 177.564 63.3902 177.564C63.3789 177.564 63.3681 177.569 63.36 177.577C63.352 177.585 63.3475 177.595 63.3475 177.607C60.7588 183.665 59.139 190.092 58.5476 196.653C57.9782 198.424 57.4287 200.214 56.8992 202.025C54.7469 209.712 52.8594 217.399 51.1085 225.145C51.0764 220.051 51.5167 214.964 52.4238 209.951C52.4238 209.831 52.2786 209.806 52.2444 209.951C50.9127 215.178 50.4681 220.591 50.9291 225.965C50.2629 228.92 49.6167 231.873 48.9904 234.822C47.6494 241.117 46.0011 247.531 45.2153 253.928C45.216 253.958 45.227 253.986 45.2464 254.008C45.2658 254.031 45.2924 254.046 45.3216 254.051C45.3508 254.056 45.3809 254.051 45.4067 254.036C45.4325 254.021 45.4524 253.998 45.463 253.971C46.4025 250.554 46.9662 246.95 47.7349 243.457C48.5035 239.964 49.2978 236.462 50.1092 232.969C51.2964 227.887 52.5434 222.814 53.8074 217.749C54.6615 215.895 56.2928 214.247 57.5141 212.684C58.8636 210.976 60.2045 209.268 61.5113 207.56C63.9725 204.348 66.1717 200.943 68.0877 197.379C68.139 197.276 68.0194 197.225 67.9425 197.302Z" fill="#263238"/>
<path d="M68.5575 191.46C65.5514 195.297 62.9471 199.433 60.7853 203.802C60.7853 203.862 60.8451 203.921 60.8792 203.862C63.5013 199.762 66.0721 195.637 68.677 191.537C68.7283 191.46 68.6087 191.392 68.5575 191.46Z" fill="#263238"/>
<path d="M10.3942 179.281C12.1622 182.33 14.1864 185.994 13.4262 189.649C12.9394 191.973 11.2483 193.852 10.9408 196.217C10.2576 201.436 15.4589 204.886 19.2169 207.321C28.6119 213.47 41.4659 218.962 43.174 231.534C43.2424 231.978 44.0281 231.867 43.9512 231.431C43.9552 231.403 43.9552 231.374 43.9512 231.346C43.9512 231.346 44.0025 231.346 44.0025 231.269C45.2261 224.924 45.1593 218.397 43.806 212.078C42.4053 205.604 39.5783 199.779 36.2388 194.091C30.5933 184.457 24.6147 174.592 16.0739 167.213C13.7166 165.171 8.87395 161.499 6.99496 166.111C5.16722 170.612 8.22484 175.566 10.3942 179.281Z" fill="#7C20BE"/>
<path d="M18.9778 199.702C25.2041 206.441 35.0944 210.216 40.4495 217.757C37.4581 206.276 31.8053 195.661 23.9486 186.771C23.7436 186.532 24.0682 186.207 24.2902 186.421C30.0174 191.986 34.599 198.619 37.7762 205.945C36.2927 200.832 34.3488 195.864 31.9684 191.101C31.883 190.922 32.1393 190.76 32.2417 190.939C35.1926 196.138 37.3054 201.771 38.5022 207.628C45.5569 224.71 46.189 244.746 44.7285 262.742C44.7285 262.998 44.3185 263.007 44.3271 262.742C44.7285 248.556 44.4979 234.122 41.0986 220.268C41.0303 219.978 40.9534 219.696 40.8766 219.414C35.0517 211.292 25.2041 207.525 18.8753 199.822C18.8155 199.736 18.9095 199.625 18.9778 199.702Z" fill="#263238"/>
<path d="M17.5515 193.92C20.8141 196.918 24.0254 199.975 27.2966 202.973C27.2966 202.973 27.2966 203.059 27.2539 203.033C23.5526 200.546 20.2177 197.554 17.3465 194.142C17.317 194.115 17.2996 194.077 17.298 194.037C17.2964 193.997 17.3108 193.958 17.338 193.928C17.3651 193.899 17.4029 193.881 17.4429 193.88C17.483 193.878 17.522 193.893 17.5515 193.92Z" fill="#263238"/>
<path d="M17.022 180.938C19.9101 185.676 23.1777 190.172 26.7927 194.381C26.844 194.432 26.7927 194.509 26.7073 194.458C22.6547 190.603 19.3177 186.06 16.8512 181.04C16.8443 181.018 16.845 180.995 16.8532 180.973C16.8614 180.952 16.8765 180.934 16.8963 180.922C16.916 180.91 16.9391 180.905 16.9619 180.908C16.9847 180.911 17.0058 180.922 17.022 180.938Z" fill="#263238"/>
<path d="M31.7207 275.442H60.3241L56.4721 236.957H36.1278L31.7207 275.442Z" fill="#455A64"/>
<path d="M35.4104 243.218H57.1042L56.4721 236.957H36.1278L35.4104 243.218Z" fill="#263238"/>
<path d="M32.6261 238.836H59.4359V232.695H32.6261V238.836Z" fill="#455A64"/>
<path d="M0 275.443L43.8915 275.238L87.7829 275.161L175.557 275.016L263.332 275.161L307.223 275.229L351.115 275.443L307.223 275.656L263.332 275.724L175.557 275.87L87.7829 275.724L43.8915 275.648L0 275.443Z" fill="#263238"/>
<path d="M250.102 0.401245H100.996C98.9958 0.420222 97.0193 0.832934 95.1789 1.61581C93.3386 2.39869 91.6705 3.53641 90.2699 4.96399C88.8693 6.39157 87.7636 8.08107 87.0159 9.93599C86.2683 11.7909 85.8933 13.7749 85.9125 15.7748V322.733C85.8761 326.771 87.4442 330.659 90.2724 333.541C93.1006 336.424 96.9575 338.066 100.996 338.107H250.102C254.142 338.068 258.002 336.428 260.834 333.545C263.665 330.662 265.236 326.774 265.202 322.733V15.7662C265.236 11.7266 263.665 7.83874 260.833 4.95745C258.001 2.07617 254.142 0.437332 250.102 0.401245V0.401245ZM255.773 313.244C255.773 321.324 249.726 327.858 242.261 327.858H108.862C101.38 327.858 95.333 321.324 95.333 313.244V27.3989C95.333 10.9407 101.38 10.1378 108.862 10.1378H135.578C137.132 10.1378 138.405 11.9058 138.405 14.0922V15.0403C138.405 20.1648 141.206 20.1648 144.656 20.1648H206.45C209.926 20.1648 212.701 20.1648 212.701 15.0403V14.0922C212.701 11.9058 213.957 10.1378 215.537 10.1378H242.261C249.726 10.1378 255.773 12.3328 255.773 27.3989V313.244Z" fill="#263238"/>
<path d="M183.979 13.7762H167.127C166.99 13.7774 166.854 13.7512 166.727 13.6992C166.6 13.6473 166.485 13.5706 166.388 13.4736C166.291 13.3766 166.214 13.2613 166.162 13.1343C166.111 13.0074 166.084 12.8714 166.085 12.7342V12.7342C166.085 12.4579 166.195 12.1929 166.391 11.9975C166.586 11.802 166.851 11.6923 167.127 11.6923H183.979C184.255 11.6923 184.52 11.802 184.715 11.9975C184.911 12.1929 185.021 12.4579 185.021 12.7342C185.022 12.8714 184.996 13.0074 184.944 13.1343C184.892 13.2613 184.815 13.3766 184.718 13.4736C184.621 13.5706 184.506 13.6473 184.379 13.6992C184.252 13.7512 184.116 13.7774 183.979 13.7762Z" fill="white"/>
<path d="M255.782 27.399V313.244C255.782 321.324 249.726 327.858 242.261 327.858H108.862C101.38 327.858 95.333 321.324 95.333 313.244V27.399C95.333 10.9408 101.38 10.1379 108.862 10.1379H135.578C137.132 10.1379 138.405 11.9059 138.405 14.0924V15.0404C138.405 20.1649 141.206 20.1649 144.656 20.1649H206.45C209.926 20.1649 212.71 20.1649 212.71 15.0404V14.0924C212.71 11.9059 213.957 10.1379 215.537 10.1379H242.261C249.726 10.1379 255.782 12.3329 255.782 27.399Z" fill="white"/>
<path d="M255.773 27.399V71.4528H95.3245V27.399C95.3245 10.9408 101.38 10.1379 108.862 10.1379H135.586C137.141 10.1379 138.405 11.9059 138.405 14.0924V15.0404C138.405 20.1649 141.215 20.1649 144.657 20.1649H206.45C209.926 20.1649 212.71 20.1649 212.71 15.0404V14.0924C212.71 11.9059 213.966 10.1379 215.546 10.1379H242.261C249.726 10.1379 255.773 12.3329 255.773 27.399Z" fill="#7C20BE"/>
<path d="M130.974 16.5605L130.709 16.8167C130.665 16.8693 130.617 16.9179 130.564 16.9619C129.905 16.3024 129.011 15.9309 128.079 15.9285C127.614 15.9258 127.154 16.0168 126.726 16.1958C126.297 16.3748 125.909 16.6382 125.585 16.9704C125.544 16.918 125.498 16.8694 125.448 16.8252L125.192 16.569C125.294 16.4665 125.405 16.3726 125.516 16.2786C125.747 16.0881 126 15.9247 126.268 15.7918C126.584 15.634 126.92 15.5218 127.267 15.4587C127.438 15.4587 127.6 15.416 127.771 15.3904H128.207H128.548C128.864 15.4258 129.174 15.5004 129.471 15.6124C129.684 15.6918 129.889 15.789 130.086 15.9028C130.299 16.0216 130.499 16.1618 130.684 16.3213L130.957 16.5605H130.974Z" fill="white"/>
<path d="M126.405 17.7734L126.02 17.3464C126.293 17.0731 126.616 16.8564 126.972 16.7084C127.328 16.5605 127.71 16.4844 128.096 16.4844C128.481 16.4844 128.863 16.5605 129.219 16.7084C129.576 16.8564 129.899 17.0731 130.171 17.3464L129.761 17.7563C129.538 17.5314 129.272 17.3541 128.978 17.2352C128.685 17.1163 128.37 17.0582 128.053 17.0645C127.432 17.0761 126.84 17.3306 126.405 17.7734V17.7734Z" fill="white"/>
<path d="M129.343 18.2006L128.933 18.602C128.705 18.378 128.398 18.2523 128.079 18.2518C127.92 18.2508 127.762 18.2821 127.615 18.3437C127.468 18.4054 127.335 18.4962 127.225 18.6105L126.815 18.2006C126.981 18.0343 127.178 17.9023 127.394 17.8123C127.611 17.7222 127.844 17.6759 128.079 17.6759C128.314 17.6759 128.546 17.7222 128.763 17.8123C128.98 17.9023 129.177 18.0343 129.343 18.2006V18.2006Z" fill="white"/>
<path d="M128.446 18.9606C128.446 19.058 128.407 19.1515 128.338 19.2203C128.27 19.2892 128.176 19.3279 128.079 19.3279C127.981 19.3279 127.888 19.2892 127.819 19.2203C127.75 19.1515 127.711 19.058 127.711 18.9606C127.711 18.8632 127.75 18.7698 127.819 18.701C127.888 18.6321 127.981 18.5934 128.079 18.5934C128.176 18.5934 128.27 18.6321 128.338 18.701C128.407 18.7698 128.446 18.8632 128.446 18.9606Z" fill="white"/>
<path d="M106.855 18.3971C107.44 18.3971 107.914 17.9229 107.914 17.338C107.914 16.7531 107.44 16.2789 106.855 16.2789C106.27 16.2789 105.796 16.7531 105.796 17.338C105.796 17.9229 106.27 18.3971 106.855 18.3971Z" fill="white"/>
<path d="M109.144 17.3465C109.144 17.135 109.206 16.9282 109.324 16.7525C109.442 16.5767 109.609 16.4399 109.805 16.3594C110 16.2788 110.215 16.2582 110.423 16.3001C110.63 16.342 110.82 16.4445 110.969 16.5947C111.118 16.7448 111.219 16.9358 111.259 17.1435C111.3 17.3512 111.277 17.5661 111.195 17.761C111.113 17.9559 110.975 18.1221 110.798 18.2383C110.621 18.3546 110.414 18.4158 110.203 18.4141C109.921 18.4119 109.652 18.2984 109.453 18.0984C109.255 17.8984 109.144 17.6282 109.144 17.3465Z" fill="white"/>
<path d="M113.559 18.3971C114.144 18.3971 114.618 17.9229 114.618 17.338C114.618 16.7531 114.144 16.2789 113.559 16.2789C112.974 16.2789 112.5 16.7531 112.5 17.338C112.5 17.9229 112.974 18.3971 113.559 18.3971Z" fill="white"/>
<path d="M115.84 17.3465C115.84 17.1354 115.902 16.929 116.02 16.7534C116.137 16.5778 116.304 16.441 116.499 16.3602C116.694 16.2794 116.908 16.2583 117.116 16.2994C117.323 16.3406 117.513 16.4423 117.662 16.5916C117.811 16.7409 117.913 16.9312 117.954 17.1383C117.996 17.3454 117.974 17.56 117.894 17.7551C117.813 17.9502 117.676 18.1169 117.5 18.2342C117.325 18.3515 117.118 18.4141 116.907 18.4141C116.624 18.4141 116.353 18.3017 116.152 18.1014C115.952 17.9012 115.84 17.6297 115.84 17.3465V17.3465Z" fill="white"/>
<path d="M119.188 17.3465C119.188 17.1354 119.25 16.929 119.368 16.7534C119.485 16.5778 119.652 16.441 119.847 16.3602C120.042 16.2794 120.256 16.2583 120.464 16.2994C120.671 16.3406 120.861 16.4423 121.01 16.5916C121.16 16.7409 121.261 16.9312 121.302 17.1383C121.344 17.3454 121.322 17.56 121.242 17.7551C121.161 17.9502 121.024 18.1169 120.848 18.2342C120.673 18.3515 120.466 18.4141 120.255 18.4141C119.972 18.4141 119.701 18.3017 119.5 18.1014C119.3 17.9012 119.188 17.6297 119.188 17.3465V17.3465Z" fill="white"/>
<path d="M243.73 19.6526H235.087V15.6384H243.73V19.6526ZM235.514 19.2256H243.303V16.0911H235.514V19.2256Z" fill="white"/>
<path d="M241.382 16.3302H235.805V18.9779H241.382V16.3302Z" fill="white"/>
<path d="M244.516 16.5864H243.747V18.7302H244.516V16.5864Z" fill="white"/>
<path d="M197.67 189.71H140.164V197.943H197.67V189.71Z" fill="#7C20BE"/>
<path d="M210.737 189.71H202.504V197.943H210.737V189.71Z" fill="#DBDBDB"/>
<path d="M204.963 193.826C204.963 193.928 204.933 194.027 204.877 194.111C204.821 194.195 204.741 194.261 204.647 194.3C204.553 194.338 204.45 194.349 204.351 194.329C204.252 194.309 204.16 194.26 204.089 194.189C204.017 194.117 203.968 194.026 203.948 193.926C203.929 193.827 203.939 193.724 203.978 193.63C204.016 193.536 204.082 193.456 204.166 193.4C204.251 193.344 204.35 193.314 204.451 193.314C204.518 193.314 204.585 193.327 204.647 193.353C204.709 193.378 204.766 193.416 204.813 193.464C204.861 193.511 204.899 193.568 204.924 193.63C204.95 193.692 204.963 193.759 204.963 193.826V193.826Z" fill="#263238"/>
<path d="M207.158 193.826C207.158 193.928 207.128 194.027 207.072 194.111C207.016 194.195 206.936 194.261 206.842 194.3C206.748 194.338 206.645 194.349 206.546 194.329C206.447 194.309 206.355 194.26 206.284 194.189C206.212 194.117 206.163 194.026 206.143 193.926C206.124 193.827 206.134 193.724 206.173 193.63C206.211 193.536 206.277 193.456 206.361 193.4C206.446 193.344 206.545 193.314 206.646 193.314C206.713 193.314 206.78 193.327 206.842 193.353C206.904 193.378 206.961 193.416 207.008 193.464C207.056 193.511 207.094 193.568 207.119 193.63C207.145 193.692 207.158 193.759 207.158 193.826V193.826Z" fill="#263238"/>
<path d="M209.294 193.826C209.294 193.928 209.264 194.027 209.207 194.111C209.151 194.195 209.071 194.261 208.977 194.3C208.884 194.338 208.781 194.349 208.681 194.329C208.582 194.309 208.491 194.26 208.419 194.189C208.347 194.117 208.298 194.026 208.279 193.926C208.259 193.827 208.269 193.724 208.308 193.63C208.347 193.536 208.412 193.456 208.496 193.4C208.581 193.344 208.68 193.314 208.781 193.314C208.848 193.314 208.915 193.327 208.977 193.353C209.039 193.378 209.096 193.416 209.144 193.464C209.191 193.511 209.229 193.568 209.255 193.63C209.28 193.692 209.294 193.759 209.294 193.826V193.826Z" fill="#263238"/>
<path d="M107.179 42.1833L103.43 38.6645L107.179 35.1542L107.769 35.7691L104.668 38.6645L107.769 41.5684L107.179 42.1833Z" fill="white"/>
<path d="M246.728 37.2126C247.134 37.2126 247.463 36.8837 247.463 36.478C247.463 36.0724 247.134 35.7435 246.728 35.7435C246.323 35.7435 245.994 36.0724 245.994 36.478C245.994 36.8837 246.323 37.2126 246.728 37.2126Z" fill="white"/>
<path d="M246.728 39.8345C247.134 39.8345 247.463 39.5057 247.463 39.1C247.463 38.6943 247.134 38.3655 246.728 38.3655C246.323 38.3655 245.994 38.6943 245.994 39.1C245.994 39.5057 246.323 39.8345 246.728 39.8345Z" fill="white"/>
<path d="M247.471 41.7305C247.482 41.8342 247.472 41.9391 247.44 42.0383C247.408 42.1376 247.355 42.229 247.285 42.3066C247.216 42.3842 247.13 42.4462 247.035 42.4887C246.94 42.5312 246.837 42.5531 246.732 42.5531C246.628 42.5531 246.525 42.5312 246.43 42.4887C246.335 42.4462 246.249 42.3842 246.18 42.3066C246.11 42.229 246.057 42.1376 246.025 42.0383C245.993 41.9391 245.983 41.8342 245.994 41.7305C246.013 41.5483 246.1 41.3797 246.236 41.2572C246.372 41.1348 246.549 41.067 246.732 41.067C246.916 41.067 247.093 41.1348 247.229 41.2572C247.365 41.3797 247.452 41.5483 247.471 41.7305V41.7305Z" fill="white"/>
<path d="M116.984 218.911C116.064 219.482 114.986 219.747 113.905 219.667C112.825 219.587 111.797 219.167 110.971 218.467C110.144 217.767 109.56 216.823 109.303 215.771C109.047 214.718 109.13 213.611 109.542 212.609C109.953 211.607 110.672 210.761 111.594 210.193C112.517 209.625 113.596 209.364 114.676 209.447C115.756 209.53 116.782 209.954 117.606 210.657C118.431 211.36 119.011 212.306 119.264 213.359C119.516 214.407 119.431 215.507 119.022 216.504C118.613 217.5 117.9 218.342 116.984 218.911V218.911Z" fill="#DBDBDB"/>
<path d="M115.857 214C115.857 214.307 115.766 214.608 115.595 214.863C115.424 215.119 115.181 215.318 114.897 215.436C114.613 215.554 114.301 215.584 113.999 215.524C113.697 215.464 113.42 215.316 113.203 215.099C112.986 214.882 112.838 214.605 112.778 214.303C112.718 214.001 112.748 213.689 112.866 213.405C112.984 213.121 113.183 212.878 113.439 212.707C113.694 212.536 113.995 212.445 114.302 212.445C114.715 212.445 115.11 212.609 115.401 212.901C115.693 213.192 115.857 213.587 115.857 214V214Z" fill="white"/>
<path d="M116.984 218.287V218.911C116.176 219.408 115.246 219.671 114.298 219.671C113.35 219.671 112.42 219.408 111.612 218.911V218.27C111.651 217.584 111.95 216.938 112.45 216.466C112.949 215.994 113.611 215.731 114.298 215.731C114.985 215.731 115.647 215.994 116.146 216.466C116.646 216.938 116.945 217.584 116.984 218.27V218.287Z" fill="white"/>
<path d="M239.614 211.224C239.704 211.226 239.789 211.263 239.853 211.326C239.916 211.39 239.953 211.476 239.955 211.566C239.955 211.656 239.919 211.743 239.855 211.807C239.791 211.871 239.704 211.907 239.614 211.907C239.569 211.907 239.525 211.898 239.484 211.881C239.443 211.864 239.406 211.838 239.375 211.807C239.344 211.775 239.32 211.737 239.303 211.696C239.287 211.654 239.279 211.61 239.281 211.566C239.281 211.476 239.315 211.391 239.378 211.327C239.44 211.263 239.525 211.226 239.614 211.224V211.224Z" fill="black"/>
<path d="M240.63 211.224C240.72 211.226 240.806 211.263 240.869 211.326C240.933 211.39 240.969 211.476 240.972 211.566C240.972 211.656 240.936 211.743 240.872 211.807C240.808 211.871 240.721 211.907 240.63 211.907C240.586 211.907 240.542 211.898 240.501 211.881C240.46 211.864 240.422 211.838 240.391 211.807C240.36 211.775 240.336 211.737 240.32 211.696C240.304 211.654 240.296 211.61 240.297 211.566C240.297 211.476 240.332 211.391 240.394 211.327C240.456 211.263 240.541 211.226 240.63 211.224V211.224Z" fill="black"/>
<path d="M241.672 211.224C241.762 211.226 241.848 211.263 241.911 211.326C241.975 211.39 242.011 211.476 242.014 211.566C242.021 211.614 242.019 211.664 242.005 211.712C241.992 211.759 241.968 211.803 241.936 211.841C241.904 211.879 241.864 211.909 241.819 211.93C241.775 211.95 241.726 211.961 241.676 211.961C241.627 211.961 241.578 211.95 241.533 211.93C241.488 211.909 241.448 211.879 241.416 211.841C241.384 211.803 241.361 211.759 241.347 211.712C241.334 211.664 241.331 211.614 241.339 211.566C241.341 211.477 241.376 211.393 241.438 211.329C241.5 211.266 241.584 211.228 241.672 211.224V211.224Z" fill="black"/>
<path d="M109.801 225.35L126.388 225.197L140.104 225.103L167.537 225.034L180.605 225.103L194.313 225.197L208.03 225.35L194.313 225.504L180.605 225.589L167.537 225.666L140.104 225.589L126.388 225.504L109.801 225.35Z" fill="#263238"/>
<path d="M109.793 228.254C117.531 228.126 128.583 228.067 136.363 228.015L159.586 227.938L182.817 228.015L189.325 228.254L182.817 228.502L159.586 228.57L136.363 228.502C128.625 228.451 117.539 228.391 109.793 228.254Z" fill="#263238"/>
<path d="M109.793 231.611C118.231 231.483 130.291 231.423 138.746 231.372L164.061 231.295L189.368 231.372L196.465 231.611L189.368 231.858L164.061 231.935L138.746 231.858C130.291 231.807 118.24 231.722 109.793 231.611Z" fill="#263238"/>
<path d="M154.436 210.677H123.68V214H154.436V210.677Z" fill="#455A64"/>
<path d="M148.218 215.657H123.68V217.664H148.218V215.657Z" fill="#DBDBDB"/>
<path d="M109.186 238.555L125.764 238.444L142.333 238.41L175.472 238.341L208.61 238.41L225.188 238.444L241.757 238.555L225.188 238.657L208.61 238.691L175.472 238.768L142.333 238.691L125.764 238.657L109.186 238.555Z" fill="#DBDBDB"/>
<path d="M116.984 254.996C116.064 255.566 114.986 255.831 113.906 255.751C112.826 255.671 111.799 255.251 110.973 254.552C110.146 253.852 109.562 252.908 109.305 251.856C109.049 250.804 109.131 249.698 109.542 248.696C109.953 247.694 110.671 246.848 111.593 246.279C112.514 245.711 113.593 245.448 114.672 245.531C115.752 245.613 116.778 246.035 117.603 246.737C118.428 247.438 119.01 248.383 119.265 249.436C119.518 250.484 119.434 251.587 119.025 252.585C118.615 253.583 117.901 254.427 116.984 254.996V254.996Z" fill="#DBDBDB"/>
<path d="M115.857 250.068C115.857 250.375 115.766 250.675 115.595 250.931C115.424 251.187 115.181 251.386 114.897 251.504C114.613 251.621 114.301 251.652 113.999 251.592C113.697 251.532 113.42 251.384 113.203 251.167C112.986 250.949 112.838 250.672 112.778 250.371C112.718 250.069 112.748 249.757 112.866 249.473C112.984 249.189 113.183 248.946 113.439 248.775C113.694 248.604 113.995 248.513 114.302 248.513C114.714 248.515 115.108 248.68 115.399 248.971C115.69 249.262 115.854 249.656 115.857 250.068Z" fill="white"/>
<path d="M116.984 254.355V254.996C116.176 255.493 115.246 255.756 114.298 255.756C113.35 255.756 112.42 255.493 111.612 254.996V254.355C111.591 253.99 111.645 253.624 111.771 253.28C111.897 252.936 112.091 252.622 112.343 252.356C112.594 252.09 112.897 251.878 113.234 251.733C113.57 251.588 113.932 251.513 114.298 251.513C114.664 251.513 115.026 251.588 115.362 251.733C115.699 251.878 116.002 252.09 116.253 252.356C116.505 252.622 116.699 252.936 116.825 253.28C116.951 253.624 117.005 253.99 116.984 254.355V254.355Z" fill="white"/>
<path d="M239.614 247.301C239.704 247.301 239.791 247.337 239.855 247.401C239.919 247.465 239.955 247.552 239.955 247.642C239.955 247.687 239.946 247.731 239.929 247.772C239.912 247.813 239.887 247.85 239.855 247.881C239.823 247.912 239.785 247.936 239.744 247.952C239.702 247.969 239.658 247.976 239.614 247.975C239.57 247.976 239.526 247.969 239.485 247.952C239.444 247.936 239.407 247.911 239.376 247.88C239.344 247.849 239.32 247.812 239.304 247.771C239.287 247.73 239.279 247.686 239.281 247.642C239.279 247.598 239.287 247.553 239.303 247.512C239.32 247.471 239.344 247.433 239.375 247.401C239.406 247.369 239.443 247.344 239.484 247.327C239.525 247.309 239.569 247.301 239.614 247.301V247.301Z" fill="black"/>
<path d="M240.63 247.301C240.721 247.301 240.808 247.337 240.872 247.401C240.936 247.465 240.972 247.552 240.972 247.642C240.972 247.687 240.963 247.731 240.946 247.772C240.928 247.813 240.903 247.85 240.871 247.881C240.839 247.912 240.802 247.936 240.76 247.952C240.719 247.969 240.674 247.976 240.63 247.975C240.586 247.976 240.542 247.969 240.501 247.952C240.46 247.936 240.423 247.911 240.392 247.88C240.361 247.849 240.336 247.812 240.32 247.771C240.304 247.73 240.296 247.686 240.297 247.642C240.296 247.598 240.304 247.553 240.32 247.512C240.336 247.471 240.36 247.433 240.391 247.401C240.422 247.369 240.46 247.344 240.501 247.327C240.542 247.309 240.586 247.301 240.63 247.301V247.301Z" fill="black"/>
<path d="M241.672 247.301C241.763 247.301 241.85 247.337 241.914 247.401C241.978 247.465 242.014 247.552 242.014 247.642C242.001 247.722 241.96 247.795 241.898 247.848C241.836 247.901 241.758 247.93 241.676 247.93C241.595 247.93 241.516 247.901 241.455 247.848C241.393 247.795 241.352 247.722 241.339 247.642C241.339 247.553 241.374 247.467 241.436 247.404C241.498 247.34 241.583 247.303 241.672 247.301V247.301Z" fill="black"/>
<path d="M109.801 261.41L126.388 261.256L140.104 261.171L167.537 261.094L180.605 261.171L194.313 261.256L208.03 261.41L194.313 261.572L180.605 261.658L167.537 261.734L140.104 261.658L126.388 261.564L109.801 261.41Z" fill="#263238"/>
<path d="M109.793 264.322C117.531 264.194 128.583 264.126 136.363 264.075L159.586 264.006L182.817 264.075L189.325 264.322L182.817 264.57L159.586 264.638L136.363 264.562C128.625 264.51 117.539 264.45 109.793 264.322Z" fill="#263238"/>
<path d="M154.436 246.745H123.68V250.068H154.436V246.745Z" fill="#455A64"/>
<path d="M148.218 251.725H123.68V253.732H148.218V251.725Z" fill="#DBDBDB"/>
<path d="M109.186 272.906L125.764 272.803L142.333 272.769L175.472 272.692L208.61 272.769L225.188 272.803L241.757 272.906L225.188 273.017L208.61 273.051L175.472 273.119L142.333 273.051L125.764 273.008L109.186 272.906Z" fill="#DBDBDB"/>
<path d="M116.984 290.543C116.064 291.114 114.986 291.379 113.905 291.299C112.825 291.22 111.797 290.8 110.971 290.1C110.144 289.4 109.56 288.456 109.303 287.403C109.047 286.351 109.13 285.244 109.542 284.242C109.953 283.239 110.672 282.394 111.594 281.825C112.517 281.257 113.596 280.996 114.676 281.079C115.756 281.163 116.782 281.586 117.606 282.289C118.431 282.992 119.011 283.938 119.264 284.991C119.516 286.039 119.431 287.139 119.022 288.136C118.613 289.132 117.9 289.975 116.984 290.543V290.543Z" fill="#DBDBDB"/>
<path d="M115.857 285.615C115.857 285.922 115.766 286.223 115.595 286.478C115.424 286.734 115.181 286.933 114.897 287.051C114.613 287.169 114.301 287.199 113.999 287.139C113.697 287.079 113.42 286.931 113.203 286.714C112.986 286.496 112.838 286.22 112.778 285.918C112.718 285.616 112.748 285.304 112.866 285.02C112.984 284.736 113.183 284.493 113.439 284.322C113.694 284.151 113.995 284.06 114.302 284.06C114.715 284.06 115.11 284.224 115.401 284.516C115.693 284.807 115.857 285.202 115.857 285.615V285.615Z" fill="white"/>
<path d="M116.984 289.902V290.543C116.179 291.047 115.248 291.315 114.298 291.315C113.348 291.315 112.417 291.047 111.612 290.543V289.902C111.651 289.216 111.95 288.571 112.45 288.098C112.949 287.626 113.611 287.363 114.298 287.363C114.985 287.363 115.647 287.626 116.146 288.098C116.646 288.571 116.945 289.216 116.984 289.902V289.902Z" fill="white"/>
<path d="M239.614 282.856C239.663 282.848 239.712 282.851 239.76 282.865C239.808 282.878 239.852 282.901 239.889 282.934C239.927 282.966 239.957 283.005 239.978 283.05C239.998 283.095 240.009 283.144 240.009 283.193C240.009 283.243 239.998 283.292 239.978 283.337C239.957 283.381 239.927 283.421 239.889 283.453C239.852 283.485 239.808 283.509 239.76 283.522C239.712 283.536 239.663 283.539 239.614 283.531C239.533 283.518 239.46 283.477 239.408 283.415C239.355 283.353 239.326 283.275 239.326 283.193C239.326 283.112 239.355 283.034 239.408 282.972C239.46 282.91 239.533 282.869 239.614 282.856V282.856Z" fill="black"/>
<path d="M240.63 282.856C240.679 282.848 240.729 282.851 240.776 282.865C240.824 282.878 240.868 282.901 240.906 282.934C240.943 282.966 240.973 283.005 240.994 283.05C241.015 283.095 241.026 283.144 241.026 283.193C241.026 283.243 241.015 283.292 240.994 283.337C240.973 283.381 240.943 283.421 240.906 283.453C240.868 283.485 240.824 283.509 240.776 283.522C240.729 283.536 240.679 283.539 240.63 283.531C240.55 283.518 240.477 283.477 240.424 283.415C240.371 283.353 240.342 283.275 240.342 283.193C240.342 283.112 240.371 283.034 240.424 282.972C240.477 282.91 240.55 282.869 240.63 282.856V282.856Z" fill="black"/>
<path d="M241.672 282.856C241.721 282.848 241.771 282.851 241.818 282.865C241.866 282.878 241.91 282.901 241.948 282.934C241.985 282.966 242.015 283.005 242.036 283.05C242.057 283.095 242.068 283.144 242.068 283.193C242.068 283.243 242.057 283.292 242.036 283.337C242.015 283.381 241.985 283.421 241.948 283.453C241.91 283.485 241.866 283.509 241.818 283.522C241.771 283.536 241.721 283.539 241.672 283.531C241.592 283.518 241.519 283.477 241.466 283.415C241.413 283.353 241.384 283.275 241.384 283.193C241.384 283.112 241.413 283.034 241.466 282.972C241.519 282.91 241.592 282.869 241.672 282.856V282.856Z" fill="black"/>
<path d="M139.993 296.965L151.481 296.812L160.987 296.726L179.982 296.649L189.035 296.718L198.532 296.812L208.03 296.965L198.532 297.119L189.035 297.213L179.982 297.281L160.987 297.213L151.481 297.119L139.993 296.965Z" fill="#263238"/>
<path d="M139.993 299.869C145.357 299.741 153.035 299.682 158.399 299.63L174.481 299.553L190.572 299.63L195.082 299.869L190.572 300.117L174.481 300.194L158.399 300.117C153.035 300.049 145.357 300.049 139.993 299.869Z" fill="#263238"/>
<path d="M154.436 282.292H123.68V285.615H154.436V282.292Z" fill="#455A64"/>
<path d="M148.218 287.28H123.68V289.287H148.218V287.28Z" fill="#DBDBDB"/>
<path d="M109.186 317.114H135.825V296.65H109.186V317.114Z" fill="#7C20BE"/>
<path opacity="0.2" d="M112.056 301.449C111.958 301.949 112.023 302.467 112.242 302.927C112.461 303.387 112.822 303.764 113.272 304.003C113.721 304.242 114.236 304.33 114.74 304.255C115.243 304.179 115.709 303.943 116.069 303.582C116.428 303.221 116.662 302.754 116.735 302.25C116.809 301.746 116.719 301.232 116.477 300.783C116.236 300.334 115.857 299.975 115.397 299.758C114.936 299.541 114.417 299.479 113.918 299.579C113.457 299.672 113.035 299.899 112.703 300.232C112.372 300.565 112.146 300.988 112.056 301.449V301.449Z" fill="black"/>
<path opacity="0.2" d="M116.574 312.792H135.825L126.2 302.005L116.574 312.792Z" fill="black"/>
<path d="M109.186 312.8H125.081L117.138 305.771L109.186 312.8Z" fill="#7C20BE"/>
<path opacity="0.3" d="M109.186 312.8H125.081L117.138 305.771L109.186 312.8Z" fill="black"/>
<path d="M135.834 312.792H109.195V317.114H135.834V312.792Z" fill="#7C20BE"/>
<path opacity="0.3" d="M135.834 312.792H109.195V317.114H135.834V312.792Z" fill="black"/>
<path d="M202.811 157.528C194.617 162.588 185.176 165.268 175.544 165.268C165.913 165.268 156.472 162.588 148.278 157.528C138.683 151.596 131.284 142.696 127.204 132.179C123.123 121.663 122.584 110.102 125.668 99.2511C128.751 88.4001 135.289 78.8506 144.29 72.051C153.291 65.2514 164.264 61.5726 175.544 61.5726C186.825 61.5726 197.798 65.2514 206.799 72.051C215.8 78.8506 222.338 88.4001 225.421 99.2511C228.505 110.102 227.965 121.663 223.885 132.179C219.805 142.696 212.406 151.596 202.811 157.528Z" fill="#A6A6A6"/>
<path d="M173.448 101.449C192.682 112.765 217.86 120.11 224.112 116.156C230.364 112.201 240.34 80.2331 239.554 72.6402C239.229 69.3606 216.946 67.6097 214.726 70.3342C212.505 73.0587 210.131 92.4465 208.926 94.2486C208.072 95.5468 188.386 92.4123 176.07 91.1739C168.212 90.3711 163.301 95.4785 173.448 101.449Z" fill="#AD6359"/>
<path d="M239.306 76.9703C240.066 73.6906 242.723 56.7285 242.347 52.3299C241.971 47.9314 240.049 35.3507 236.659 35.2482C233.268 35.1457 233.533 38.9037 233.533 38.9037C233.533 38.9037 231.876 33.7194 228.451 33.9671C225.026 34.2148 225.641 39.9457 225.641 39.9457C225.641 39.9457 223.548 34.7529 220.149 35.2311C216.75 35.7094 218.347 41.4318 218.347 41.4318C218.347 41.4318 216.639 36.5891 214.025 38.1692C210.857 40.0653 214.982 48.6403 215.016 53.5427C215.016 54.653 213.538 76.0308 213.538 76.0308L239.306 76.9703Z" fill="#AD6359"/>
<path d="M218.262 41.022C221.285 47.3337 221.516 50.6134 220.713 57.4546C220.713 57.5913 220.892 57.6425 220.918 57.5059C222.318 50.8782 222.626 46.7188 218.56 40.8597C218.321 40.5694 218.074 40.7145 218.262 41.022Z" fill="#263238"/>
<path d="M225.393 39.5527C227.955 46.3854 228.237 49.9469 227.955 57.1725C227.955 57.1974 227.965 57.2213 227.983 57.2389C228.001 57.2566 228.024 57.2665 228.049 57.2665C228.074 57.2665 228.098 57.2566 228.116 57.2389C228.133 57.2213 228.143 57.1974 228.143 57.1725C229.04 50.1092 229.254 45.9498 225.795 39.4588C225.598 39.1598 225.274 39.2196 225.393 39.5527Z" fill="#263238"/>
<path d="M233.507 39.3051C235.514 46.1378 235.992 49.9897 234.78 56.9676C234.772 57.0016 234.778 57.0373 234.796 57.067C234.814 57.0966 234.844 57.1177 234.878 57.1256C234.912 57.1335 234.947 57.1277 234.977 57.1092C235.007 57.0908 235.028 57.0614 235.036 57.0274C236.957 50.0324 236.402 45.1727 233.72 39.271C233.541 38.861 233.379 38.8781 233.507 39.3051Z" fill="#263238"/>
<path d="M212.949 80.4551C212.949 80.4551 207.765 73.3833 206.176 69.7705C204.588 66.1577 203.614 50.5279 206.971 50.1265C211.318 49.6055 213.658 58.5136 214.23 63.0317C214.23 63.0317 224.283 61.8189 227.349 67.8573C230.415 73.8957 212.949 80.4551 212.949 80.4551Z" fill="#AD6359"/>
<path d="M208.209 50.3741C212.479 52.757 212.889 58.7356 213.778 63.0744C213.789 63.1383 213.815 63.1986 213.854 63.2504C213.893 63.3022 213.944 63.344 214.002 63.3724C214.061 63.4007 214.125 63.4148 214.19 63.4135C214.255 63.4122 214.318 63.3955 214.375 63.3648C218.646 63.1342 224.676 64.048 227.434 67.6352C227.45 67.6547 227.473 67.6676 227.498 67.6715C227.523 67.6753 227.548 67.6699 227.57 67.6561C227.591 67.6424 227.606 67.6213 227.613 67.597C227.619 67.5726 227.617 67.5467 227.605 67.5242C225.163 63.322 219.286 61.9384 214.657 62.4851C213.803 58.0182 213.171 52.0396 208.235 50.3741C208.2 50.3229 208.183 50.357 208.209 50.3741Z" fill="#263238"/>
<path d="M203.23 118.513L208.482 92.8904C208.482 92.8904 188.48 89.5851 176.206 89.7815C163.933 89.9779 159.876 94.7096 175.284 103.917C184.295 109.344 193.627 114.219 203.23 118.513Z" fill="#455A64"/>
<path d="M203.52 93.2833C202.484 96.8079 201.539 100.361 200.685 103.942C200.266 105.702 199.83 107.461 199.429 109.238C199.028 111.014 198.754 112.927 198.344 114.755C198.344 114.883 198.515 114.943 198.549 114.815C199.002 113.064 199.574 111.339 200.044 109.588C200.514 107.837 200.898 105.958 201.368 104.147C202.228 100.56 202.999 96.9531 203.682 93.3261C203.684 93.3062 203.678 93.2865 203.667 93.2704C203.655 93.2542 203.638 93.2426 203.619 93.2376C203.6 93.2325 203.579 93.2343 203.561 93.2427C203.543 93.251 203.529 93.2654 203.52 93.2833Z" fill="#263238"/>
<path d="M198.771 159.722C195.492 161.383 192.041 162.681 188.48 163.591L187.745 163.779C187.284 163.899 186.806 164.001 186.344 164.104C179.126 165.672 171.655 165.672 164.437 164.104C163.737 163.95 163.036 163.779 162.345 163.591C158.191 162.51 154.191 160.909 150.439 158.826C150.14 158.672 149.849 158.51 149.585 158.33C149.123 158.066 148.662 157.784 148.192 157.476C146.275 156.288 144.438 154.976 142.692 153.547C142.479 153.394 142.274 153.223 142.069 153.044C140.317 151.568 138.665 149.979 137.123 148.286L136.662 147.782C135.791 146.797 134.957 145.781 134.16 144.733C134.296 144.17 134.442 143.606 134.578 143.025C134.629 142.863 134.664 142.692 134.706 142.53C135.108 140.975 135.56 139.395 135.987 137.764C136.03 137.593 136.09 137.431 136.133 137.251C136.577 135.706 137.047 134.108 137.568 132.511C137.607 132.34 137.659 132.17 137.721 131.999C138.225 130.436 138.755 128.839 139.318 127.233C139.37 127.079 139.438 126.908 139.498 126.738C140.061 125.166 140.642 123.578 141.266 121.98C141.326 121.827 141.385 121.664 141.454 121.502C142.077 119.914 142.743 118.342 143.435 116.753C143.503 116.574 143.58 116.412 143.657 116.241C144.366 114.644 145.109 113.064 145.886 111.484C145.955 111.33 146.032 111.168 146.108 111.022C146.906 109.417 147.74 107.831 148.611 106.265C148.646 106.189 148.686 106.114 148.73 106.043L148.901 105.744C149.807 104.139 150.755 102.55 151.754 101.004C151.856 100.833 151.967 100.662 152.078 100.492C153.129 98.8689 154.239 97.2802 155.392 95.7429C155.474 95.6156 155.562 95.493 155.657 95.3756L155.768 95.239C156.784 93.8895 157.852 92.5657 158.954 91.3016C159.218 90.9976 159.504 90.7122 159.808 90.4476L159.936 90.3451C160.09 90.2255 160.235 90.1145 160.406 90.0034C160.434 89.9786 160.465 89.9584 160.5 89.9437C165.727 86.459 175.685 87.8597 176.958 89.713C177.015 89.7859 177.066 89.863 177.112 89.9437L177.283 90.1913C178.336 91.8078 179.295 93.4847 180.152 95.2134C181.006 96.8361 181.775 98.6297 182.561 100.466C183.27 102.131 183.953 103.882 184.628 105.702C184.628 105.795 184.696 105.881 184.722 105.966C184.762 106.048 184.793 106.134 184.816 106.223C185.448 107.931 186.063 109.639 186.669 111.467C187.181 113.03 187.702 114.618 188.189 116.224C188.24 116.403 188.3 116.557 188.351 116.736C188.864 118.385 189.368 120.059 189.846 121.733C189.864 121.819 189.887 121.905 189.914 121.989C190.384 123.578 190.82 125.166 191.255 126.746C191.255 126.891 191.315 127.02 191.358 127.156C191.802 128.787 192.212 130.41 192.63 132.007L192.767 132.52C193.177 134.117 193.57 135.706 193.946 137.26C193.946 137.311 193.946 137.354 193.946 137.397C193.946 137.439 194.006 137.644 194.031 137.772C194.424 139.395 194.8 140.984 195.159 142.538C195.568 144.349 195.961 146.108 196.32 147.791C196.363 147.97 196.397 148.133 196.431 148.295C196.798 150.003 197.149 151.643 197.465 153.197C197.465 153.317 197.465 153.436 197.533 153.556C197.9 155.375 198.225 157.058 198.507 158.569C198.507 158.655 198.507 158.732 198.549 158.809L198.771 159.722Z" fill="#7C20BE"/>
<path opacity="0.1" d="M162.345 163.592C163.036 163.78 163.737 163.95 164.437 164.104H186.344C186.806 164.002 187.284 163.899 187.745 163.78L188.48 163.592H162.345ZM198.618 158.587C198.618 158.501 198.575 158.416 198.558 158.33H149.55C149.849 158.51 150.14 158.672 150.404 158.826H198.618C198.618 158.749 198.618 158.672 198.618 158.587ZM197.576 153.215C197.559 153.167 197.544 153.118 197.533 153.069H142.034C142.239 153.249 142.444 153.419 142.658 153.573H197.601C197.576 153.454 197.55 153.334 197.533 153.215H197.576ZM196.431 147.808H136.645L137.106 148.312H196.517C196.465 148.15 196.431 148.022 196.388 147.808H196.431ZM133.442 147.808C133.434 147.895 133.417 147.981 133.391 148.064C133.391 147.979 133.391 147.894 133.451 147.808H133.442ZM195.201 142.556H134.664C134.664 142.718 134.587 142.889 134.544 143.051H195.329L195.201 142.556ZM193.988 137.431C193.988 137.388 193.988 137.346 193.988 137.294H136.099C136.056 137.474 135.996 137.636 135.953 137.807H194.108C194.074 137.67 194.048 137.551 194.014 137.414L193.988 137.431ZM192.639 132.025H137.696C137.631 132.192 137.577 132.363 137.533 132.537H192.801L192.639 132.025ZM191.366 127.173C191.324 127.037 191.298 126.909 191.264 126.763H139.472C139.412 126.934 139.344 127.105 139.284 127.259H191.383C191.382 127.23 191.385 127.201 191.392 127.173H191.366ZM189.855 121.75L189.778 121.502H141.445C141.377 121.665 141.317 121.827 141.249 121.981H189.931C189.91 121.905 189.893 121.828 189.88 121.75H189.855ZM188.198 116.241H143.649C143.572 116.412 143.495 116.574 143.427 116.754H188.369C188.369 116.574 188.275 116.42 188.223 116.241H188.198ZM186.49 110.989H146.117C146.04 111.134 145.963 111.296 145.895 111.45H186.72C186.646 111.3 186.58 111.146 186.524 110.989H186.49ZM184.722 105.975C184.722 105.89 184.662 105.804 184.628 105.71H148.91L148.748 106.009C148.703 106.08 148.663 106.155 148.628 106.231H184.85C184.827 106.143 184.796 106.057 184.756 105.975H184.722ZM182.561 100.475H152.078C151.976 100.646 151.865 100.816 151.771 100.987H182.791C182.732 100.808 182.655 100.637 182.595 100.475H182.561ZM180.144 95.205H155.785L155.674 95.3417C155.579 95.459 155.491 95.5816 155.409 95.7089H180.417C180.332 95.5381 180.255 95.3673 180.178 95.205H180.144ZM177.274 90.183L177.103 89.9353H160.517C160.483 89.9501 160.451 89.9703 160.423 89.9951C160.252 90.1061 160.107 90.2172 159.953 90.3367L159.825 90.4392H177.47C177.41 90.3583 177.355 90.2726 177.308 90.183H177.274Z" fill="black"/>
<path d="M175.993 103.413C171.962 104.139 165.453 97.6903 163.011 92.617C162.849 92.2754 163.557 88.7395 164.207 84.4007C164.599 81.7701 164.967 78.8235 165.112 76.1161L181.878 81.1467C180.728 84.4804 179.99 87.9424 179.683 91.4555C179.672 91.8294 179.692 92.2036 179.742 92.5743C179.747 92.634 179.747 92.694 179.742 92.7537C179.99 94.8889 179.888 102.704 175.993 103.413Z" fill="#AD6359"/>
<path d="M179.768 92.7537C179.768 92.8732 179.768 93.0014 179.768 93.1466C169.579 90.9943 166.436 85.8356 164.633 81.0869C164.838 79.4214 165.009 77.7303 165.086 76.1161L181.852 81.1381C180.703 84.4745 179.968 87.9397 179.665 91.4555C179.646 91.8295 179.666 92.2045 179.725 92.5743C179.732 92.6357 179.746 92.6959 179.768 92.7537Z" fill="#263238"/>
<path d="M161.268 56.7201C159.398 62.7414 162.507 80.1818 166.786 84.0508C172.978 89.7049 183.159 90.2857 187.976 82.838C192.648 75.6125 188.189 52.945 183.415 49.4091C176.411 44.2077 164.027 47.8205 161.268 56.7201Z" fill="#AD6359"/>
<path d="M175.557 67.7375C175.557 67.7375 175.472 67.8144 175.48 67.8571C175.72 69.0272 175.805 70.4194 174.806 70.9831C174.806 70.9831 174.806 71.0599 174.806 71.0429C176.129 70.5987 176.001 68.7625 175.557 67.7375Z" fill="#263238"/>
<path d="M174.327 66.6528C172.406 66.8322 172.918 70.65 174.695 70.4792C176.471 70.3083 175.933 66.4991 174.327 66.6528Z" fill="#263238"/>
<path d="M182.902 66.6104C182.902 66.5592 183.005 66.6104 183.013 66.6958C183.133 67.883 183.466 69.2581 184.594 69.4801C184.594 69.4801 184.594 69.5485 184.594 69.5399C183.244 69.5314 182.826 67.7378 182.902 66.6104Z" fill="#263238"/>
<path d="M183.799 65.2351C185.678 64.8337 186.362 68.6514 184.594 68.9931C182.826 69.3347 182.219 65.5682 183.799 65.2351Z" fill="#263238"/>
<path d="M172.585 65.1071C173.067 64.8937 173.538 64.6542 173.994 64.3896C174.526 64.2054 174.982 63.8512 175.293 63.3818C175.354 63.2155 175.363 63.034 175.317 62.8626C175.271 62.6912 175.173 62.5383 175.036 62.4252C174.721 62.25 174.364 62.1631 174.003 62.1736C173.642 62.1841 173.291 62.2917 172.986 62.485C172.313 62.7788 171.771 63.3111 171.466 63.9797C171.398 64.1366 171.378 64.3104 171.409 64.4788C171.441 64.6471 171.522 64.8021 171.642 64.9236C171.763 65.0452 171.917 65.1277 172.086 65.1604C172.254 65.1931 172.428 65.1745 172.585 65.1071Z" fill="#263238"/>
<path d="M185.02 63.1086C184.493 63.0765 183.969 63.0138 183.449 62.9207C182.886 62.9361 182.334 62.7583 181.886 62.4168C181.77 62.2813 181.7 62.1128 181.684 61.9352C181.669 61.7575 181.71 61.5795 181.801 61.4261C182.037 61.1556 182.341 60.9535 182.682 60.8408C183.023 60.7282 183.388 60.7091 183.739 60.7855C184.472 60.8203 185.165 61.1245 185.687 61.6396C185.815 61.7619 185.902 61.921 185.936 62.0951C185.97 62.2691 185.949 62.4493 185.875 62.6108C185.802 62.7722 185.681 62.9069 185.527 62.9961C185.374 63.0853 185.197 63.1246 185.02 63.1086Z" fill="#263238"/>
<path d="M177.573 74.8095C177.935 75.237 178.381 75.5851 178.884 75.832C179.386 76.0789 179.934 76.2193 180.494 76.2444C180.984 76.2744 181.477 76.2312 181.954 76.1163C182.047 76.1026 182.139 76.0797 182.228 76.048L182.475 75.9711C182.536 75.951 182.589 75.912 182.626 75.8597C182.663 75.8074 182.682 75.7447 182.68 75.6807C182.686 75.6411 182.686 75.6008 182.68 75.5611V75.4586C182.578 74.5448 182.305 73.1782 182.305 73.1782C182.663 73.2978 184.457 73.8359 184.371 73.3661C183.611 69.4544 182.766 65.1157 181.186 61.4089C181.177 61.382 181.157 61.3597 181.132 61.3464C181.107 61.3332 181.078 61.3301 181.051 61.3377C181.023 61.3454 181 61.3632 180.985 61.3876C180.971 61.412 180.966 61.441 180.972 61.4687C181.553 65.2523 182.8 68.9078 183.44 72.7C182.801 72.4999 182.137 72.3906 181.468 72.3754C181.339 72.4266 182.04 75.0231 182.048 75.433C182.054 75.4468 182.054 75.462 182.048 75.4757C180.545 75.8771 179.332 75.5697 177.71 74.7412C177.564 74.6302 177.487 74.7241 177.573 74.8095Z" fill="#263238"/>
<path d="M181.237 75.7746C180.85 76.4324 180.3 76.9794 179.64 77.3632C179.274 77.5583 178.855 77.6331 178.444 77.5767C177.539 77.4571 177.419 76.6628 177.496 75.9539C177.545 75.5812 177.634 75.2147 177.761 74.8607C178.791 75.5313 180.01 75.8518 181.237 75.7746Z" fill="#263238"/>
<path d="M179.64 77.3632C179.274 77.5584 178.855 77.6331 178.444 77.5768C177.539 77.4572 177.419 76.6629 177.496 75.954C177.96 75.9146 178.423 76.0321 178.812 76.2877C179.2 76.5433 179.492 76.922 179.64 77.3632Z" fill="#FF9CBD"/>
<path opacity="0.2" d="M161.303 68.6772C162.396 68.0281 164.249 64.1334 165.069 62.5363C165.889 60.9392 165.248 53.5171 164.992 51.3221C163.253 52.7495 161.96 54.6469 161.268 56.7883C160.466 59.2908 160.577 63.9626 161.303 68.6772Z" fill="#263238"/>
<path d="M179.887 55.6608C179.353 56.4827 178.617 57.1543 177.75 57.6118C176.883 58.0692 175.914 58.2973 174.934 58.2743C173.936 58.2513 172.96 57.9741 172.1 57.4689C171.239 56.9638 170.521 56.2474 170.014 55.3875C170.014 55.3363 169.903 55.3875 169.929 55.3875C170.382 56.3392 171.086 57.1497 171.964 57.732C172.843 58.3142 173.864 58.6464 174.917 58.6928C175.959 58.6887 176.982 58.4093 177.882 57.8829C178.782 57.3565 179.527 56.6017 180.041 55.695C180.05 55.6608 179.939 55.584 179.887 55.6608Z" fill="#263238"/>
<path d="M172.141 42.3713C168.844 42.8753 166.051 45.0959 165.137 47.4959C164.627 48.8691 164.6 50.3755 165.061 51.7663C165.061 51.8261 165.197 51.7663 165.18 51.7663C164.949 50.5195 165.058 49.2335 165.495 48.0433C165.933 46.8531 166.682 45.8025 167.666 45.0019C168.733 44.0739 170.002 43.4071 171.372 43.0543C172.741 42.7015 174.174 42.6723 175.557 42.9692C176.905 43.232 178.115 43.9644 178.974 45.0361C179.051 45.1471 179.29 45.0361 179.221 44.9251C178.043 42.9692 175.139 41.9187 172.141 42.3713Z" fill="#263238"/>
<path d="M192.263 47.0347C191.509 45.4766 190.229 44.2339 188.65 43.5244C186.464 42.5336 184.201 43.0204 181.954 43.5244C181.945 43.5283 181.937 43.5349 181.932 43.5433C181.926 43.5516 181.924 43.5614 181.924 43.5713C181.924 43.5813 181.926 43.5911 181.932 43.5994C181.937 43.6077 181.945 43.6143 181.954 43.6183C183.859 43.1827 185.823 42.8411 187.719 43.5244C189.289 44.0756 190.62 45.1529 191.486 46.5734C192.328 48.0404 192.612 49.7616 192.287 51.4213C191.963 53.0811 191.05 54.5681 189.718 55.6097C188.937 56.1905 188.045 56.6054 187.098 56.8287C186.15 57.0519 185.167 57.0789 184.209 56.9079C184.132 56.9079 184.098 57.0018 184.209 57.0189C185.939 57.3794 187.74 57.0969 189.276 56.2243C190.812 55.3517 191.978 53.9489 192.554 52.2787C193.106 50.5546 193.002 48.6873 192.263 47.0347Z" fill="#263238"/>
<path d="M160.696 60.2472C160.696 60.2472 156.819 54.7298 158.988 50.9804C160.235 48.8622 165.197 48.495 165.197 48.495C166.265 46.3711 168.133 44.7583 170.39 44.011C174.404 42.5506 179.606 44.3441 179.606 44.3441C179.606 44.3441 183.244 41.6111 187.173 43.2509C192.656 45.5313 192.998 53.406 188.164 56.5576C184.747 58.7696 179.452 56.1903 179.452 56.1903C178.991 56.3099 174.515 59.8287 170.322 55.9768C170.322 55.9768 167.683 58.9917 164.779 57.4714C164.461 58.2942 163.9 59.0006 163.171 59.4966C162.441 59.9925 161.578 60.2543 160.696 60.2472Z" fill="#263238"/>
<path d="M164.932 70.9319C164.932 70.9319 160.901 65.3633 158.365 66.8067C155.828 68.2501 158.928 76.3724 161.943 77.44C162.321 77.6045 162.728 77.6907 163.141 77.6933C163.553 77.696 163.961 77.615 164.341 77.4553C164.721 77.2957 165.065 77.0606 165.351 76.7644C165.638 76.4682 165.862 76.1169 166.009 75.7318L164.932 70.9319Z" fill="#AD6359"/>
<path d="M159.33 69.1127C159.318 69.1127 159.307 69.1172 159.299 69.1252C159.291 69.1332 159.287 69.1441 159.287 69.1554C159.287 69.1667 159.291 69.1776 159.299 69.1856C159.307 69.1936 159.318 69.1981 159.33 69.1981C161.448 70.0522 162.592 71.9482 163.395 73.9553C163.267 73.7445 163.095 73.5638 162.89 73.4258C162.686 73.2879 162.454 73.1958 162.21 73.156C161.967 73.1163 161.718 73.1297 161.48 73.1954C161.242 73.2612 161.021 73.3776 160.833 73.5368C160.824 73.5473 160.819 73.5601 160.818 73.5735C160.817 73.5869 160.819 73.6004 160.826 73.6123C160.832 73.6241 160.842 73.6339 160.854 73.6402C160.866 73.6465 160.879 73.6492 160.893 73.6479C161.26 73.5235 161.658 73.5167 162.03 73.6284C162.402 73.7401 162.73 73.9648 162.968 74.2713C163.363 74.787 163.704 75.3423 163.984 75.9283C164.087 76.1162 164.42 76.0051 164.352 75.7916C164.348 75.7747 164.348 75.7573 164.352 75.7404C164.343 73.0585 162.199 69.3347 159.33 69.1127Z" fill="#263238"/>
<path d="M152.036 94.6071C133.784 111.578 110.186 147.911 113.961 155.649C118.163 164.266 143.58 140.463 143.546 139.011C143.546 137.909 153.069 117.872 160.269 101.679C167.469 85.4855 156.545 90.4135 152.036 94.6071Z" fill="#AD6359"/>
<path d="M113.961 155.649C117.65 161.448 128.318 162.985 154.812 169.365C158.476 170.219 171.68 146.057 167.811 144.913C162.942 143.469 143.725 138.934 142.282 138.772C130.077 137.465 111.45 151.711 113.961 155.649Z" fill="#AD6359"/>
<path d="M159.014 143.956C159.014 143.956 169.767 143.828 175.438 145.519C183.03 147.774 188.659 152.847 190.888 155.111C195.543 159.851 203.529 174.516 199.702 177.548C196.286 180.298 188.847 164.89 188.847 164.89C188.847 164.89 198.976 179.358 194.202 181.895C189.428 184.431 181.852 166.069 181.852 166.069C181.852 166.069 191.939 181.16 186.601 183.005C182.561 184.397 174.763 168.144 174.763 168.144C174.763 168.144 183.347 181.177 179.255 182.783C174.737 184.568 166.598 170.014 166.598 170.014C155.495 172.363 149.286 168.947 145.135 165.992C144.135 165.274 159.014 143.956 159.014 143.956Z" fill="#AD6359"/>
<path d="M185.661 159.671C186.908 161.32 188.223 162.994 189.291 164.796C190.359 166.598 191.426 168.357 192.366 170.211C193.625 172.615 194.61 175.154 195.304 177.778C193.741 173.209 189.897 166.846 188.796 165.078C187.694 163.31 186.686 161.508 185.593 159.748C185.559 159.663 185.627 159.629 185.661 159.671Z" fill="#263238"/>
<path d="M179.221 163.523C180.733 165.71 182.313 167.794 183.722 170.074C185.132 172.355 186.285 174.558 187.506 176.907C187.608 177.086 187.506 177.078 187.369 176.907C186.037 174.626 184.619 172.636 183.253 170.356C181.886 168.076 180.613 165.778 179.17 163.575C179.144 163.523 179.204 163.498 179.221 163.523Z" fill="#263238"/>
<path d="M173.106 165.846C175.5 169.141 177.549 172.672 179.221 176.386C179.307 176.565 179.144 176.54 179.042 176.386C177.078 172.79 175.557 170.023 172.995 165.957C172.995 165.872 173.055 165.778 173.106 165.846Z" fill="#263238"/>
<path d="M127.216 142.444C132.005 139.306 137.78 138.035 143.444 138.874C143.512 138.874 143.512 139.002 143.444 138.994C137.576 138.575 129.522 141.308 127.216 142.547C127.199 142.581 127.156 142.487 127.216 142.444Z" fill="#263238"/>
<path d="M125.841 118.445L148.525 131.41C148.525 131.41 157.92 113.431 161.533 101.705C165.146 89.978 161.935 84.6229 148.389 96.4349C140.433 103.307 132.903 110.658 125.841 118.445Z" fill="#455A64"/>
<path d="M149.73 126.593C146.701 124.509 143.62 122.516 140.488 120.614C138.943 119.666 137.405 118.692 135.842 117.77C134.279 116.848 132.554 115.976 130.94 115.028C130.829 114.96 130.709 115.122 130.82 115.199C132.34 116.173 133.801 117.258 135.321 118.24C136.842 119.222 138.49 120.213 140.079 121.195C143.222 123.136 146.407 124.996 149.636 126.772C149.73 126.781 149.824 126.67 149.73 126.593Z" fill="#263238"/>
<path d="M147.569 130.863C147.91 131.017 148.244 131.162 148.577 131.324L148.431 131.367C149.072 129.71 149.798 128.105 150.498 126.482C151.199 124.859 151.984 123.288 152.77 121.707C153.556 120.127 154.35 118.556 155.213 117.01C156.076 115.464 156.921 113.918 157.869 112.415C157.263 114.081 156.571 115.703 155.853 117.317C155.136 118.932 154.393 120.529 153.624 122.126C152.856 123.723 152.053 125.278 151.224 126.841C150.396 128.404 149.516 129.949 148.662 131.461L148.602 131.555L148.517 131.504C148.167 131.299 147.868 131.077 147.569 130.863Z" fill="#263238"/>
<path d="M158.313 115.566C157.361 117.108 156.052 118.397 154.495 119.324C154.968 118.548 155.543 117.839 156.204 117.215C156.833 116.577 157.542 116.023 158.313 115.566Z" fill="#263238"/>
<path d="M288.758 151.566C287.562 161.337 279.491 169.724 279.491 169.724C279.491 169.724 267.944 168.238 260.898 161.371C255.021 155.64 254.56 147.381 259.403 143.828C266.347 138.703 273.068 151.574 273.068 151.574C273.068 151.574 270.361 137.345 278.944 136.918C284.94 136.688 289.757 143.418 288.758 151.566Z" fill="#7C20BE"/>
<path d="M294.344 111.458C289.988 117.249 281.763 119.631 281.763 119.631C281.763 119.631 274.93 114.439 272.974 107.469C271.335 101.661 274.076 96.221 278.466 95.7341C284.761 95.0509 284.359 105.71 284.359 105.71C284.359 105.71 287.818 95.6146 293.455 98.5355C297.376 100.568 297.973 106.624 294.344 111.458Z" fill="#7C20BE"/>
<path d="M76.3724 103.609C72.1532 109.494 63.9796 112.064 63.9796 112.064C63.9796 112.064 57.0444 107.034 54.9177 100.107C53.1412 94.3336 55.7718 88.8333 60.1447 88.2525C66.4223 87.3985 66.26 98.0916 66.26 98.0916C66.26 98.0916 69.4884 87.9195 75.1852 90.7038C79.1567 92.6767 79.8997 98.7236 76.3724 103.609Z" fill="#7C20BE"/>
</svg>
