<svg width="18" height="18" viewBox="0 0 18 18" fill="none" xmlns="http://www.w3.org/2000/svg">
<circle cx="9" cy="9" r="9" fill="#F9D1D1"/>
<path fill-rule="evenodd" clip-rule="evenodd" d="M8.75095 2.79037C8.94986 2.79037 9.14063 2.84358 9.28128 2.9383C9.42193 3.03301 9.50095 3.16147 9.50095 3.29541V15.2073L14.2199 12.0286C14.3608 11.9337 14.5518 11.8805 14.7509 11.8805C14.9501 11.8805 15.1411 11.9337 15.2819 12.0286C15.4228 12.1234 15.5019 12.252 15.5019 12.3861C15.5019 12.5202 15.4228 12.6489 15.2819 12.7437L9.28195 16.784C9.21228 16.831 9.12951 16.8684 9.0384 16.8938C8.94728 16.9193 8.8496 16.9324 8.75095 16.9324C8.6523 16.9324 8.55462 16.9193 8.4635 16.8938C8.37238 16.8684 8.28962 16.831 8.21995 16.784L2.21995 12.7437C2.07912 12.6489 2 12.5202 2 12.3861C2 12.252 2.07912 12.1234 2.21995 12.0286C2.36078 11.9337 2.55178 11.8805 2.75095 11.8805C2.95011 11.8805 3.14112 11.9337 3.28195 12.0286L8.00095 15.2073V3.29541C8.00095 3.16147 8.07997 3.03301 8.22062 2.9383C8.36127 2.84358 8.55203 2.79037 8.75095 2.79037Z" fill="#FF0000"/>
</svg>
