<svg width="14" height="15" viewBox="0 0 14 15" fill="none" xmlns="http://www.w3.org/2000/svg">
<path fill-rule="evenodd" clip-rule="evenodd" d="M6.75095 0.790375C6.94986 0.790375 7.14063 0.843584 7.28128 0.938297C7.42193 1.03301 7.50095 1.16147 7.50095 1.29541V13.2073L12.2199 10.0286C12.3608 9.93373 12.5518 9.88045 12.7509 9.88045C12.9501 9.88045 13.1411 9.93373 13.2819 10.0286C13.4228 10.1234 13.5019 10.252 13.5019 10.3861C13.5019 10.5202 13.4228 10.6489 13.2819 10.7437L7.28195 14.784C7.21228 14.831 7.12951 14.8684 7.0384 14.8938C6.94728 14.9193 6.8496 14.9324 6.75095 14.9324C6.6523 14.9324 6.55462 14.9193 6.4635 14.8938C6.37238 14.8684 6.28962 14.831 6.21995 14.784L0.219947 10.7437C0.0791173 10.6489 -4.69245e-09 10.5202 0 10.3861C4.69246e-09 10.252 0.0791173 10.1234 0.219947 10.0286C0.360777 9.93373 0.551784 9.88045 0.750947 9.88045C0.950111 9.88045 1.14112 9.93373 1.28195 10.0286L6.00095 13.2073V1.29541C6.00095 1.16147 6.07997 1.03301 6.22062 0.938297C6.36127 0.843584 6.55203 0.790375 6.75095 0.790375Z" fill="#FF0000"/>
</svg>
