<svg width="48" height="48" viewBox="0 0 48 48" fill="none" xmlns="http://www.w3.org/2000/svg">
<path d="M39 1.5H9C4.85925 1.5 1.5 4.85775 1.5 9V39C1.5 43.1423 4.85925 46.5 9 46.5H39C43.1423 46.5 46.5 43.1423 46.5 39V9C46.5 4.85775 43.1423 1.5 39 1.5ZM42.75 34.2495C42.7502 35.0703 42.5887 35.883 42.2748 36.6413C41.9608 37.3997 41.5005 38.0887 40.9202 38.6692C40.3399 39.2496 39.651 39.71 38.8927 40.0242C38.1345 40.3383 37.3218 40.5 36.501 40.5H11.5005C9.84276 40.5 8.25293 39.8415 7.08073 38.6693C5.90853 37.4971 5.25 35.9072 5.25 34.2495V9.2505C5.25 7.59276 5.90853 6.00292 7.08073 4.83073C8.25293 3.65853 9.84276 3 11.5005 3H36.501C37.3218 3 38.1345 3.16168 38.8927 3.47582C39.651 3.78996 40.3399 4.25039 40.9202 4.83082C41.5005 5.41125 41.9608 6.10031 42.2748 6.85865C42.5887 7.61699 42.7502 8.42974 42.75 9.2505V34.2495Z" fill="#7C20BF"/>
<path d="M33 24.3403V27H17C17.1731 25.9938 17.7043 25.0201 18.5592 24.1416C19.4264 23.2406 21.136 22.0477 23.692 20.5589C25.7496 19.357 27.0104 18.5419 27.4776 18.1134C28.104 17.5228 28.4184 16.9378 28.4184 16.3613C28.4184 15.7223 28.1448 15.2316 27.5984 14.888C27.052 14.5444 26.2968 14.3733 25.3328 14.3733C24.38 14.3733 23.6216 14.5538 23.0592 14.9133C22.4952 15.2733 22.1704 15.8719 22.084 16.7067L17.5352 16.4212C17.8056 14.8458 18.6568 13.7152 20.0856 13.0284C21.516 12.3431 23.3032 12 25.4472 12C27.796 12 29.644 12.3975 30.9864 13.192C32.3288 13.9866 33 14.9756 33 16.1573C33 16.8295 32.808 17.4703 32.4232 18.0783C32.0392 18.6872 31.4296 19.3233 30.5968 19.9889C30.044 20.43 29.0464 21.0656 27.6064 21.8939C26.1672 22.7236 25.2552 23.2734 24.8704 23.5453C24.5152 23.7915 24.2022 24.0577 23.936 24.3398H33V24.3403Z" fill="#7C20BF"/>
</svg>
