<svg width="48" height="49" viewBox="0 0 48 49" fill="none" xmlns="http://www.w3.org/2000/svg">
<path d="M39 1.96594H9C4.85925 1.96594 1.5 5.32369 1.5 9.46594V39.4659C1.5 43.6082 4.85925 46.9659 9 46.9659H39C43.1423 46.9659 46.5 43.6082 46.5 39.4659V9.46594C46.5 5.32369 43.1423 1.96594 39 1.96594ZM42.75 34.7154C42.7502 35.5362 42.5887 36.349 42.2748 37.1073C41.9608 37.8656 41.5005 38.5547 40.9202 39.1351C40.3399 39.7156 39.651 40.176 38.8927 40.4901C38.1345 40.8043 37.3218 40.9659 36.501 40.9659H11.5005C9.84276 40.9659 8.25293 40.3074 7.08073 39.1352C5.90853 37.963 5.25 36.3732 5.25 34.7154V9.71644C5.25 8.05871 5.90853 6.46887 7.08073 5.29667C8.25293 4.12448 9.84276 3.46594 11.5005 3.46594H36.501C37.3218 3.46594 38.1345 3.62763 38.8927 3.94176C39.651 4.2559 40.3399 4.71633 40.9202 5.29676C41.5005 5.87719 41.9608 6.56626 42.2748 7.32459C42.5887 8.08293 42.7502 8.89569 42.75 9.71644V34.7154Z" fill="#7C20BF"/>
<path d="M31.5 29.9604V34.2159H16.5C16.6623 32.606 17.1603 31.048 17.9617 29.6424C18.7747 28.2009 20.3775 26.2922 22.7737 23.9102C24.7028 21.9872 25.8848 20.6829 26.3228 19.9974C26.91 19.0524 27.2047 18.1164 27.2047 17.1939C27.2047 16.1717 26.9483 15.3864 26.436 14.8367C25.9238 14.2869 25.2158 14.0132 24.312 14.0132C23.4188 14.0132 22.7077 14.3019 22.1805 14.8772C21.6517 15.4532 21.3472 16.4109 21.2662 17.7467L17.0018 17.2899C17.2553 14.7692 18.0533 12.9602 19.3928 11.8614C20.7338 10.7649 22.4092 10.2159 24.4192 10.2159C26.6212 10.2159 28.3538 10.8519 29.6123 12.1232C30.8708 13.3944 31.5 14.9769 31.5 16.8677C31.5 17.9432 31.32 18.9684 30.9592 19.9412C30.5992 20.9154 30.0277 21.9332 29.247 22.9982C28.7287 23.7039 27.7935 24.7209 26.4435 26.0462C25.0942 27.3737 24.2392 28.2534 23.8785 28.6884C23.5455 29.0824 23.2521 29.5082 23.0025 29.9597H31.5V29.9604Z" fill="#7C20BF"/>
</svg>
