<svg width="48" height="49" viewBox="0 0 48 49" fill="none" xmlns="http://www.w3.org/2000/svg">
<path d="M39 1.95581H9C4.85925 1.95581 1.5 5.31356 1.5 9.45581V39.4558C1.5 43.5981 4.85925 46.9558 9 46.9558H39C43.1423 46.9558 46.5 43.5981 46.5 39.4558V9.45581C46.5 5.31356 43.1423 1.95581 39 1.95581ZM42.75 34.7053C42.7502 35.5261 42.5887 36.3388 42.2748 37.0972C41.9608 37.8555 41.5005 38.5446 40.9202 39.125C40.3399 39.7054 39.651 40.1659 38.8927 40.48C38.1345 40.7941 37.3218 40.9558 36.501 40.9558H11.5005C9.84276 40.9558 8.25293 40.2973 7.08073 39.1251C5.90853 37.9529 5.25 36.363 5.25 34.7053V9.70631C5.25 8.04857 5.90853 6.45874 7.08073 5.28654C8.25293 4.11434 9.84276 3.45581 11.5005 3.45581H36.501C37.3218 3.45581 38.1345 3.6175 38.8927 3.93163C39.651 4.24577 40.3399 4.7062 40.9202 5.28663C41.5005 5.86706 41.9608 6.55612 42.2748 7.31446C42.5887 8.0728 42.7502 8.88555 42.75 9.70631V34.7053Z" fill="#7C20BF"/>
<path d="M16.5 27.5683L20.6895 27.0381C20.823 28.1496 21.1815 29.0008 21.768 29.5881C22.3523 30.1753 23.0617 30.4701 23.8935 30.4701C24.7852 30.4701 25.5383 30.1168 26.1495 29.4126C26.76 28.7068 27.0668 27.7558 27.0668 26.5573C27.0668 25.4248 26.7735 24.5271 26.1877 23.8648C25.602 23.2011 24.8903 22.8718 24.0472 22.8718C23.4922 22.8718 22.83 22.9828 22.0598 23.2071L22.5375 19.5358C23.7082 19.5681 24.6015 19.3026 25.218 18.7416C25.833 18.1806 26.142 17.4351 26.142 16.5051C26.142 15.7138 25.9162 15.0831 25.464 14.6143C25.0125 14.1441 24.411 13.9086 23.6625 13.9086C22.923 13.9086 22.2915 14.1748 21.7687 14.7096C21.2445 15.2443 20.9265 16.0236 20.814 17.0503L16.8255 16.3461C17.1022 14.9241 17.5215 13.7886 18.081 12.9388C18.6405 12.0891 19.4198 11.4216 20.4218 10.9348C21.4208 10.4488 22.5427 10.2058 23.7847 10.2058C25.9102 10.2058 27.615 10.9101 28.8967 12.3223C29.9542 13.4766 30.483 14.7786 30.483 16.2336C30.483 18.2961 29.4008 19.9423 27.234 21.1716C28.5278 21.4603 29.562 22.1061 30.3383 23.1111C31.113 24.1161 31.5 25.3288 31.5 26.7516C31.5 28.8141 30.7762 30.5721 29.3287 32.0248C27.8805 33.4776 26.0783 34.2058 23.9235 34.2058C21.8798 34.2058 20.1855 33.5938 18.8408 32.3706C17.496 31.1458 16.7167 29.5446 16.5 27.5683Z" fill="#7C20BF"/>
</svg>
