<svg width="48" height="48" viewBox="0 0 48 48" fill="none" xmlns="http://www.w3.org/2000/svg">
<path d="M39 1.5H9C4.85925 1.5 1.5 4.85775 1.5 9V39C1.5 43.1423 4.85925 46.5 9 46.5H39C43.1423 46.5 46.5 43.1423 46.5 39V9C46.5 4.85775 43.1423 1.5 39 1.5ZM42.75 34.2495C42.7502 35.0703 42.5887 35.883 42.2748 36.6413C41.9608 37.3997 41.5005 38.0887 40.9202 38.6692C40.3399 39.2496 39.651 39.71 38.8927 40.0242C38.1345 40.3383 37.3218 40.5 36.501 40.5H11.5005C9.84276 40.5 8.25293 39.8415 7.08073 38.6693C5.90853 37.4971 5.25 35.9072 5.25 34.2495V9.2505C5.25 7.59276 5.90853 6.00292 7.08073 4.83073C8.25293 3.65853 9.84276 3 11.5005 3H36.501C37.3218 3 38.1345 3.16168 38.8927 3.47582C39.651 3.78996 40.3399 4.25039 40.9202 4.83082C41.5005 5.41125 41.9608 6.10031 42.2748 6.85865C42.5887 7.61699 42.7502 8.42974 42.75 9.2505V34.2495Z" fill="#7C20BF"/>
<path d="M28.5 33.75H23.9197V16.4843C22.2457 18.0487 20.2725 19.206 18 19.956V15.7988C19.1955 15.408 20.4945 14.6647 21.8962 13.5735C23.2995 12.4822 24.2602 11.2065 24.7822 9.75H28.5V33.75Z" fill="#7C20BF"/>
</svg>
