<svg width="119" height="114" viewBox="0 0 119 114" fill="none" xmlns="http://www.w3.org/2000/svg">
<path d="M102.605 97.4374H112.552V94.2718H102.605V97.4374Z" fill="#EBEBEB"/>
<path d="M78.3944 66.2078H88.3413V63.0421H78.3944V66.2078Z" fill="#EBEBEB"/>
<path d="M108.153 101.426L113.16 101.344L115.636 101.31H118.1L117.97 101.438V98.272L118.111 98.4135L113.138 98.3965L110.651 98.371L108.164 98.3399L108.232 98.272L108.153 101.426ZM108.153 101.426L108.088 98.2607V98.1956H108.156L110.643 98.1645L113.129 98.1391L118.103 98.1193H118.244V98.2607V101.426V101.557H118.117H115.607L113.109 101.523L108.153 101.426Z" fill="#EBEBEB"/>
<path d="M45.0118 24.2504L50.0192 24.1684L52.4946 24.1344L54.9587 24.1203L54.8314 24.2504V21.0847L54.9728 21.2262L49.9994 21.2064L47.5127 21.1837L45.026 21.1526L45.0939 21.0847L45.0118 24.2504ZM45.0118 24.2504L44.9467 21.0847V21.0197H45.0146L47.5014 20.9885L49.9881 20.9659L54.9615 20.9461H55.103V21.0876V24.2532V24.3834H54.9728L52.4635 24.3692L49.9654 24.3353L45.0118 24.2504Z" fill="#EBEBEB"/>
<path d="M50.5624 28.2479L55.5698 28.1659L58.0423 28.1319H60.5064L60.3791 28.2621L60.365 25.0964L60.5064 25.2378L55.5358 25.218L53.0491 25.1954L50.5624 25.1643L50.6274 25.0964L50.5624 28.2479ZM50.5624 28.2479L50.4945 25.0822V25.0172H50.5652L53.0519 24.986L55.5386 24.9634L60.5093 24.9436H60.6535V25.0851V28.2507V28.3809H60.5234L58.0169 28.3667L55.516 28.3328L50.5624 28.2479Z" fill="#EBEBEB"/>
<path d="M56.0875 24.2505H66.0343V21.0848H56.0875V24.2505Z" fill="#EBEBEB"/>
<path d="M1.06848 101.429H11.0154V98.2636H1.06848V101.429Z" fill="#EBEBEB"/>
<path d="M6.61621 3.67206L16.5631 3.67206V0.506372L6.61621 0.506372V3.67206Z" fill="#EBEBEB"/>
<path d="M1.06848 7.66102L6.07587 7.57898L8.55127 7.54503H11.0154L10.8852 7.67233V4.50665L11.0267 4.6481L6.05324 4.6283L3.56935 4.59435L1.08263 4.56323L1.13638 4.48402L1.06848 7.66102ZM1.06848 7.66102L1.00059 4.48402V4.41895H1.06848L3.56935 4.39915L6.05607 4.37368L11.0295 4.35388H11.171V4.48402V7.6497V7.77984H11.0436H8.5343L6.03626 7.74589L1.06848 7.66102Z" fill="#EBEBEB"/>
<path d="M102.605 3.66926L107.613 3.58722L110.088 3.55327H112.552L112.422 3.68058V0.51489L112.563 0.656341L107.59 0.636538L105.103 0.613905L102.617 0.582786L102.684 0.51489L102.605 3.66926ZM102.605 3.66926L102.537 0.503573V0.438506H102.605L105.092 0.407386L107.579 0.381925L112.552 0.362122H112.694V0.503573L112.679 3.66926V3.7994H112.552H110.043L107.545 3.76545L102.605 3.66926Z" fill="#EBEBEB"/>
<path d="M77.6249 0V55.1661H113.477V0H77.6249ZM112.153 53.8393H78.946V1.32399H112.153V53.8393Z" fill="#EBEBEB"/>
<path d="M112.153 1.32397H78.946V53.8393H112.153V1.32397Z" fill="white"/>
<path d="M78.9461 28.2422L112.153 28.2422V26.9182L78.9461 26.9182V28.2422Z" fill="#EBEBEB"/>
<path d="M75.1891 58.957L115.913 58.957V55.1605L75.1891 55.1605V58.957Z" fill="#DBDBDB"/>
<path d="M78.946 1.32397H112.153V35.2978H78.946V1.32397ZM110.928 2.54894H80.171V34.0728H110.928V2.54894Z" fill="#DBDBDB"/>
<path d="M101.556 1.32397H100.894V34.0757H101.556V1.32397Z" fill="#DBDBDB"/>
<path d="M90.2056 1.32397H89.5436V34.0757H90.2056V1.32397Z" fill="#DBDBDB"/>
<path d="M5.69395 0V55.1661H41.5463V0H5.69395ZM40.2251 53.8393H7.01793V1.32399H40.2251V53.8393Z" fill="#EBEBEB"/>
<path d="M40.2251 1.32397H7.01794V53.8393H40.2251V1.32397Z" fill="white"/>
<path d="M7.01795 28.2422L40.2251 28.2422V26.9182L7.01795 26.9182V28.2422Z" fill="#EBEBEB"/>
<path d="M3.25533 58.957L43.9792 58.957V55.1605L3.25533 55.1605V58.957Z" fill="#DBDBDB"/>
<path d="M7.01511 1.32397H40.2223V35.2978H7.01511V1.32397ZM38.9832 2.54894H8.24008V34.0728H38.9973L38.9832 2.54894Z" fill="#DBDBDB"/>
<path d="M29.6247 1.32397H28.9627V34.0757H29.6247V1.32397Z" fill="#DBDBDB"/>
<path d="M18.2775 1.32397H17.6155V34.0757H18.2775V1.32397Z" fill="#DBDBDB"/>
<path d="M0.584717 113.673L15.3353 113.605L30.0858 113.58L59.5842 113.532L89.0825 113.58L103.833 113.603L118.584 113.673L103.833 113.741L89.0825 113.767L59.5842 113.815L30.0858 113.767L15.3353 113.741L0.584717 113.673Z" fill="#263238"/>
<path d="M118.408 72.1233H82.5106V77.2184H118.408V72.1233Z" fill="#455A64"/>
<path d="M117.554 77.2184H83.3678V78.8734H117.554V77.2184Z" fill="#455A64"/>
<path d="M117.554 77.2184H83.3678V77.7672H117.554V77.2184Z" fill="#263238"/>
<path d="M83.7045 113.815H82.3381L86.3157 78.8705H89.8039L83.7045 113.815Z" fill="#455A64"/>
<path d="M89.8039 78.8734L89.3965 81.2102H86.0497L86.3157 78.8734H89.8039Z" fill="#263238"/>
<path d="M117.217 113.815H118.584L114.606 78.8705H111.115L117.217 113.815Z" fill="#455A64"/>
<path d="M111.115 78.8734L111.525 81.2102H114.869L114.603 78.8734H111.115Z" fill="#263238"/>
<path d="M109.259 92.7696C108.983 93.7786 108.8 94.8108 108.713 95.8532C108.741 95.9041 108.736 96.0937 108.713 96.0428C108.713 96.2125 108.45 96.1814 108.45 96.0145C108.45 95.9041 108.45 95.7966 108.45 95.6891C107.847 94.9423 106.973 94.4698 106.266 93.8191C105.697 93.309 105.282 92.6493 105.069 91.9152C104.484 89.8925 105.033 87.7509 104.328 85.7366C103.72 83.9996 102.631 82.4889 101.706 80.9272C100.732 79.261 100.008 77.5126 99.9403 75.5521C99.8837 74.0584 100.062 72.0667 101.199 70.9493C102.404 69.7611 103.901 70.6522 104.823 71.7103C107.499 74.7826 108.739 78.664 109.239 82.6332C109.522 84.8285 109.805 87.0408 109.734 89.2588C109.694 90.442 109.534 91.6181 109.259 92.7696Z" fill="#7C20BE"/>
<path d="M108.727 96.6595C108.873 94.5863 108.848 92.5048 108.654 90.4356C108.654 90.4356 108.654 90.4215 108.654 90.413C108.688 88.7297 108.821 87.0549 108.756 85.3688C108.674 83.5479 108.426 81.7382 108.014 79.9625C108.015 79.9599 108.016 79.9571 108.016 79.9543C108.015 79.9515 108.015 79.9488 108.013 79.9464C108.011 79.9441 108.009 79.9422 108.007 79.9408C108.004 79.9395 108.002 79.9388 107.999 79.9388C107.996 79.9388 107.993 79.9395 107.991 79.9408C107.988 79.9422 107.986 79.9441 107.985 79.9464C107.983 79.9488 107.982 79.9515 107.982 79.9543C107.982 79.9571 107.982 79.9599 107.983 79.9625C108.31 81.708 108.506 83.4754 108.569 85.25C108.603 86.193 108.595 87.1436 108.546 88.1017C108.529 88.41 108.501 88.7212 108.478 89.0324C107.779 84.3095 106.072 79.7922 103.474 75.7869C103.44 75.7331 103.341 75.7869 103.375 75.8491C105.235 78.8949 106.613 82.2101 107.46 85.6772C106.173 83.2923 104.226 81.3318 102.783 79.0403C102.783 79.0403 102.755 79.0403 102.764 79.0544C104.059 81.6005 106.198 83.6176 107.573 86.127C107.808 87.1511 108.003 88.1865 108.139 89.2248C108.332 90.6522 108.435 92.0903 108.45 93.5306C107.666 92.0651 106.852 90.6648 106.209 89.1145C106.192 89.072 106.133 89.1003 106.147 89.1427C106.693 90.7525 107.426 92.4867 108.453 93.8587C108.453 94.8772 108.427 95.8985 108.368 96.9141C108.21 99.6328 107.746 102.312 107.519 105.022C107.517 105.039 107.522 105.055 107.532 105.068C107.543 105.081 107.558 105.09 107.574 105.091C107.591 105.093 107.608 105.089 107.621 105.078C107.634 105.068 107.642 105.053 107.644 105.036C108.193 102.272 108.555 99.4729 108.727 96.6595Z" fill="#263238"/>
<path d="M105.842 75.7049C105.842 75.6851 105.802 75.7049 105.811 75.719C106.306 77.0911 106.589 78.4802 106.942 79.8862C106.944 79.8997 106.952 79.9118 106.963 79.9197C106.974 79.9277 106.988 79.9309 107.002 79.9286C107.015 79.9264 107.027 79.9189 107.035 79.9077C107.043 79.8966 107.046 79.8827 107.044 79.8692C106.903 78.4434 106.393 77.0204 105.842 75.7049Z" fill="#263238"/>
<path d="M118.442 81.4564C118.116 82.2617 117.738 83.0451 117.311 83.8016C116.417 85.4227 115.486 86.9136 115.33 88.8005C115.302 89.6457 115.181 90.4852 114.971 91.3042C114.736 92.0033 114.4 92.6639 113.972 93.2647C113.005 94.6793 111.794 95.8929 110.894 97.3555C109.962 98.8831 109.272 100.547 108.852 102.287C108.829 102.38 108.679 102.354 108.702 102.261C108.702 102.261 108.702 102.247 108.702 102.238C108.7 102.235 108.7 102.232 108.7 102.229C108.7 102.225 108.7 102.222 108.702 102.219C108.56 98.1675 108.883 94.0823 110.116 90.2009C110.662 88.4938 111.318 86.824 112.08 85.202C112.742 83.7875 113.565 82.4409 114.728 81.3913C115.483 80.7123 117.118 79.411 118.193 80.1041C118.685 80.4322 118.646 80.95 118.442 81.4564Z" fill="#7C20BE"/>
<path d="M114.371 90.6422C113.658 91.8214 112.872 92.9552 112.017 94.037C111.624 94.5491 111.225 95.0583 110.835 95.5703C110.648 95.8136 110.442 96.0541 110.269 96.3144L110.592 95.013C111.115 92.9676 111.619 90.9025 112.397 88.9334C113.195 87.0268 114.135 85.1828 115.209 83.4168C115.237 83.3716 115.16 83.3376 115.135 83.3829C114.286 84.7974 113.409 86.1949 112.688 87.6802C112.292 88.5076 111.945 89.3578 111.65 90.2263C111.98 88.3783 112.442 86.5564 113.033 84.7748C113.033 84.7606 113.016 84.7493 113.008 84.7748C112.236 86.5739 111.752 88.4833 111.573 90.4328C111.398 90.959 111.236 91.4899 111.087 92.0256C110.447 94.2888 109.887 96.5831 109.369 98.8831C109.359 97.3721 109.49 95.8633 109.76 94.3765C109.758 94.3708 109.754 94.3659 109.75 94.3624C109.745 94.3589 109.739 94.357 109.733 94.357C109.727 94.357 109.721 94.3589 109.716 94.3624C109.712 94.3659 109.708 94.3708 109.706 94.3765C109.311 95.9268 109.179 97.5324 109.316 99.1264C109.118 100.001 108.928 100.875 108.75 101.752C108.351 103.619 107.862 105.52 107.618 107.41C107.617 107.415 107.617 107.42 107.618 107.424C107.619 107.429 107.621 107.434 107.624 107.438C107.627 107.442 107.63 107.445 107.634 107.448C107.639 107.451 107.643 107.453 107.648 107.454C107.653 107.455 107.658 107.455 107.663 107.454C107.667 107.453 107.672 107.451 107.676 107.448C107.68 107.445 107.684 107.442 107.686 107.438C107.689 107.433 107.691 107.429 107.692 107.424C107.975 106.4 108.139 105.342 108.365 104.312C108.591 103.282 108.829 102.238 109.07 101.2C109.42 99.6922 109.791 98.1872 110.164 96.6737C110.416 96.1248 110.903 95.6354 111.265 95.1743C111.664 94.6679 112.063 94.1587 112.45 93.6438C113.179 92.6913 113.832 91.6829 114.402 90.628C114.419 90.6365 114.382 90.6195 114.371 90.6422Z" fill="#263238"/>
<path d="M114.544 88.908C113.651 90.0467 112.879 91.2744 112.238 92.5716C112.238 92.5857 112.258 92.6055 112.266 92.5885C113.042 91.3721 113.805 90.1471 114.581 88.9306C114.592 88.9108 114.558 88.891 114.544 88.908Z" fill="#263238"/>
<path d="M97.2951 85.2982C97.8213 86.2035 98.4268 87.2785 98.1948 88.3733C98.0505 89.0608 97.5469 89.6181 97.4564 90.3197C97.2527 91.8672 98.7973 92.8913 99.912 93.6212C102.696 95.4487 106.509 97.0754 107.016 100.804C107.035 100.934 107.265 100.903 107.248 100.773C107.249 100.765 107.249 100.756 107.248 100.748C107.248 100.748 107.262 100.748 107.262 100.728C107.626 98.845 107.608 96.9083 107.208 95.0329C106.795 93.112 105.955 91.3834 104.965 89.6973C103.29 86.84 101.519 83.9148 98.9869 81.7251C98.2853 81.1225 96.851 80.0277 96.2908 81.3998C95.7307 82.7718 96.6445 84.1949 97.2951 85.2982Z" fill="#7C20BE"/>
<path d="M99.8413 91.3551C101.686 93.3524 104.619 94.467 106.207 96.7076C105.32 93.3032 103.644 90.1553 101.315 87.5189C101.309 87.5123 101.303 87.5043 101.3 87.4956C101.296 87.4868 101.294 87.4775 101.294 87.468C101.294 87.4586 101.296 87.4492 101.3 87.4405C101.303 87.4317 101.309 87.4238 101.315 87.4171C101.322 87.4104 101.33 87.4051 101.339 87.4015C101.347 87.3979 101.357 87.396 101.366 87.396C101.376 87.396 101.385 87.3979 101.394 87.4015C101.402 87.4051 101.41 87.4104 101.417 87.4171C103.115 89.067 104.473 91.0334 105.414 93.2053C104.976 91.6885 104.399 90.215 103.692 88.8033C103.687 88.7926 103.687 88.7808 103.691 88.7699C103.694 88.759 103.702 88.7498 103.712 88.744C103.722 88.7382 103.734 88.7361 103.745 88.7382C103.756 88.7402 103.766 88.7463 103.774 88.7552C104.65 90.2972 105.276 91.9682 105.629 93.706C107.723 98.77 107.915 104.711 107.477 110.049C107.477 110.126 107.355 110.129 107.358 110.049C107.477 105.843 107.409 101.562 106.402 97.4517L106.334 97.1971C104.608 94.7895 101.689 93.6721 99.8101 91.3862C99.7903 91.3636 99.8215 91.3353 99.8413 91.3551Z" fill="#263238"/>
<path d="M99.4141 89.6379C100.382 90.5262 101.335 91.4371 102.305 92.3226C102.305 92.3226 102.305 92.3509 102.291 92.3424C101.194 91.6026 100.207 90.7122 99.3575 89.6973C99.3526 89.6893 99.3505 89.6799 99.3515 89.6706C99.3524 89.6613 99.3565 89.6526 99.3629 89.6458C99.3694 89.639 99.3779 89.6346 99.3872 89.6331C99.3964 89.6317 99.4059 89.6334 99.4141 89.6379Z" fill="#263238"/>
<path d="M99.2613 85.7904C100.118 87.194 101.087 88.5261 102.158 89.7737C102.172 89.7906 102.158 89.8161 102.133 89.7991C100.931 88.6553 99.9402 87.3077 99.2076 85.8187C99.2057 85.8119 99.2062 85.8046 99.2091 85.7981C99.2119 85.7916 99.2168 85.7863 99.2231 85.783C99.2294 85.7797 99.2366 85.7786 99.2435 85.78C99.2505 85.7813 99.2567 85.785 99.2613 85.7904Z" fill="#263238"/>
<path d="M103.621 113.815H112.102L110.959 102.402H104.928L103.621 113.815Z" fill="#455A64"/>
<path d="M104.713 104.258H111.146L110.959 102.402H104.925L104.713 104.258Z" fill="#263238"/>
<path d="M103.887 102.96H111.836V101.138H103.887V102.96Z" fill="#455A64"/>
<path d="M11.6038 36.0023H10.0761V112.287H11.6038V36.0023Z" fill="#263238"/>
<path d="M36.8905 9.02652L0.584724 45.3323L1.66496 46.4125L37.9707 10.1067L36.8905 9.02652Z" fill="#263238"/>
<path d="M2.55655 112.287V113.815H19.1205V112.287H2.55655Z" fill="#263238"/>
<path d="M38.1259 14.6572L43.2465 9.84787L38.4258 5.9325L34.5897 9.53668L38.1259 14.6572Z" fill="#7C20BE"/>
<path opacity="0.1" d="M43.2465 9.8479L38.126 14.6573L36.7199 12.6204L41.1078 8.11371L43.2465 9.8479Z" fill="#292929"/>
<path d="M37.5969 22.6888L51.4139 9.70353L44.8138 6.15027L34.4595 15.8821L37.5969 22.6888Z" fill="#7C20BE"/>
<path opacity="0.6" d="M91.4985 63.7692C91.4985 63.7692 86.5901 61.506 86.5901 58.4761C86.5901 55.4462 92.9554 53.4941 92.9554 51.1206C92.9554 48.747 90.1801 47.358 90.1801 47.358C90.1801 47.358 94.5651 48.8574 94.5651 51.8533C94.5651 54.8492 90.3669 56.8833 89.968 58.8014C89.4078 61.4381 91.4985 63.7692 91.4985 63.7692Z" fill="#DBDBDB"/>
<path opacity="0.6" d="M91.2693 63.7692C91.2693 63.7692 96.1805 61.9926 96.1805 59.6077C96.1805 57.2228 89.7982 55.6895 89.7982 53.828C89.7982 51.9665 92.5763 50.8801 92.5763 50.8801C92.5763 50.8801 88.1885 52.057 88.1885 54.4136C88.1885 56.7702 92.9978 58.3912 93.3543 60.3036C93.7108 62.2161 91.2693 63.7692 91.2693 63.7692Z" fill="#DBDBDB"/>
<path d="M93.7815 71.3934H89.1108V72.1233H93.7815V71.3934Z" fill="#7C20BE"/>
<path opacity="0.1" d="M93.7815 71.3934H89.1108V71.8743H93.7815V71.3934Z" fill="#292929"/>
<path d="M99.3264 69.4329C99.0428 69.8542 98.6439 70.185 98.1773 70.3856C97.7108 70.5863 97.1963 70.6484 96.6954 70.5645C96.5339 70.5346 96.3757 70.4891 96.223 70.4287C95.9901 70.3375 95.7681 70.2208 95.561 70.0808L96.155 69.2009C96.2654 69.2787 96.3829 69.346 96.5059 69.4018C96.8452 69.5585 97.2298 69.5876 97.5889 69.4837C97.948 69.3797 98.2575 69.1498 98.4607 68.836C99.1001 67.9364 99.3292 65.8825 98.6814 65.0904C98.6389 65.0338 98.4494 64.9404 97.6969 65.0904C97.5583 65.1215 97.414 65.1554 97.2244 65.2035C97.0859 65.2503 96.9426 65.2816 96.7972 65.2969L96.7774 64.7678L96.7265 64.2417C96.7746 64.2417 96.851 64.2105 96.95 64.1822C97.2973 64.0811 97.652 64.0073 98.0109 63.9616C98.5767 63.905 99.1425 63.9616 99.5018 64.4086C100.554 65.6958 100.127 68.307 99.3264 69.4329Z" fill="#7C20BE"/>
<path opacity="0.1" d="M96.155 69.1953C96.2654 69.273 96.3829 69.3403 96.5059 69.3961L96.223 70.4231C95.9901 70.3318 95.7681 70.2151 95.561 70.0751L96.155 69.1953Z" fill="#292929"/>
<path opacity="0.1" d="M98.0109 63.9587L97.6969 65.0903C97.5582 65.1214 97.414 65.1554 97.2244 65.2035C97.0859 65.2502 96.9426 65.2816 96.7972 65.2968L96.7774 64.7678L96.7265 64.2416C96.7746 64.2416 96.851 64.2105 96.95 64.1822C97.2973 64.0801 97.652 64.0054 98.0109 63.9587Z" fill="#292929"/>
<path d="M85.235 62.5838C85.235 62.5838 85.2746 62.9318 85.3538 63.4806C85.368 63.5626 85.3793 63.656 85.3934 63.7465C85.45 64.1228 85.5236 64.5698 85.6056 65.0479C85.6074 65.0761 85.6074 65.1045 85.6056 65.1328C85.7301 65.8202 85.8885 66.5671 86.0554 67.2743C86.0554 67.3055 86.0752 67.3366 86.0809 67.3649C86.129 67.5544 86.1799 67.7411 86.2308 67.9307C86.2817 68.1202 86.3383 68.2871 86.3921 68.454C86.4923 68.7619 86.6113 69.0633 86.7485 69.3565C87.7161 71.3595 89.0683 71.5829 89.9057 71.5829H92.9667C93.8154 71.5829 95.1564 71.3595 96.1211 69.3565L96.2088 69.1613C96.2314 69.1132 96.2512 69.0623 96.271 69.0114C96.2908 68.9604 96.3135 68.9067 96.3333 68.8529L96.3757 68.7398C96.5768 68.1712 96.744 67.5911 96.8765 67.0027C96.8844 66.9786 96.891 66.9541 96.8963 66.9292C96.8963 66.9292 96.8963 66.9122 96.8963 66.9009C96.9557 66.652 97.0094 66.4002 97.0603 66.1512C97.148 65.7438 97.2273 65.3393 97.2923 64.9574C97.3206 64.782 97.3517 64.6094 97.38 64.4453C97.38 64.3972 97.3942 64.3548 97.4027 64.3095C97.4196 64.1992 97.4394 64.0917 97.4536 63.987C97.4677 63.8823 97.4819 63.7861 97.496 63.7041C97.5102 63.6221 97.5215 63.5174 97.5356 63.4212C97.6092 62.9148 97.646 62.5951 97.646 62.5951L85.235 62.5838Z" fill="#7C20BE"/>
<path opacity="0.1" d="M85.6113 65.1328C85.7357 65.8202 85.8942 66.5671 86.0611 67.2743C86.1403 67.2743 86.2167 67.2998 86.293 67.3168C86.667 67.404 87.0225 67.5573 87.3426 67.7694C87.6567 67.9863 87.9503 68.2316 88.2196 68.5021C88.4802 68.7685 88.7643 69.0109 89.0683 69.2264C89.3718 69.4286 89.7252 69.5432 90.0896 69.5574C90.2673 69.5522 90.4419 69.5104 90.6026 69.4344C90.7633 69.3585 90.9065 69.2501 91.0232 69.116C91.2812 68.8466 91.515 68.555 91.722 68.2447C91.9347 67.9281 92.1642 67.6231 92.4094 67.3309C92.5375 67.1841 92.6818 67.0522 92.8394 66.9377C92.9297 66.8837 93.0243 66.8373 93.1223 66.7991C93.2198 66.7657 93.322 66.7485 93.425 66.7481C93.6286 66.7441 93.8296 66.7939 94.0078 66.8924C94.1785 66.988 94.3363 67.1049 94.4774 67.2404C94.7603 67.5007 95.0036 67.8062 95.2554 68.075C95.4778 68.3663 95.7778 68.5888 96.1211 68.7171C96.2078 68.7355 96.2975 68.7355 96.3842 68.7171C96.5853 68.1485 96.7525 67.5685 96.8849 66.9801C96.7859 66.9547 96.6841 66.9292 96.5851 66.8981C96.2192 66.7728 95.8797 66.581 95.5836 66.3323C95.2928 66.0864 95.024 65.8156 94.7801 65.5232C94.5452 65.2328 94.2859 64.9631 94.005 64.7169C93.7213 64.4861 93.3798 64.3374 93.0177 64.2869C92.8405 64.276 92.663 64.3014 92.4961 64.3618C92.3292 64.4221 92.1765 64.516 92.0473 64.6377C91.7644 64.8787 91.5049 65.1458 91.2721 65.4355C91.0232 65.7184 90.7771 66.0013 90.497 66.2842C90.3557 66.419 90.199 66.5368 90.0302 66.635C89.9396 66.6814 89.8449 66.7193 89.7473 66.7481C89.6453 66.7711 89.5404 66.7787 89.4361 66.7708C89.2334 66.7515 89.0388 66.6815 88.8703 66.5671C88.7092 66.4557 88.5637 66.3235 88.4375 66.1739C88.1772 65.8909 87.9678 65.5713 87.7415 65.2714C87.5487 64.9593 87.2724 64.7074 86.9437 64.5443C86.6014 64.4227 86.2365 64.6151 85.9507 64.8414C85.8404 64.9461 85.7301 65.0253 85.6113 65.1328Z" fill="#292929"/>
<path d="M85.6113 65.0479C85.6131 65.0761 85.6131 65.1045 85.6113 65.1328C85.7216 65.0366 85.8319 64.946 85.9451 64.8499C86.228 64.6235 86.5958 64.4312 86.9381 64.5528C87.2667 64.7159 87.5431 64.9677 87.7359 65.2799C87.9622 65.5797 88.1715 65.8994 88.4318 66.1823C88.558 66.332 88.7036 66.4642 88.8646 66.5756C89.0331 66.69 89.2277 66.76 89.4304 66.7793C89.5347 66.7872 89.6396 66.7796 89.7416 66.7566C89.8392 66.7278 89.934 66.6899 90.0245 66.6435C90.1934 66.5453 90.35 66.4275 90.4913 66.2927C90.7742 66.0267 91.0175 65.7269 91.2665 65.444C91.4992 65.1543 91.7588 64.8872 92.0416 64.6462C92.1708 64.5245 92.3236 64.4306 92.4905 64.3703C92.6574 64.3099 92.8349 64.2844 93.012 64.2954C93.3742 64.3459 93.7156 64.4946 93.9993 64.7254C94.2802 64.9716 94.5396 65.2413 94.7745 65.5317C95.0184 65.8241 95.2872 66.0948 95.5779 66.3408C95.874 66.5895 96.2136 66.7813 96.5794 66.9066C96.6784 66.9377 96.7803 66.9631 96.8793 66.9886C96.8872 66.9645 96.8938 66.9399 96.8991 66.915C96.8029 66.8868 96.7039 66.8585 96.6162 66.8217C95.9198 66.5417 95.3202 66.065 94.8905 65.4496C94.656 65.1466 94.3926 64.8671 94.104 64.615C93.7999 64.364 93.4331 64.2006 93.0431 64.1426C92.8431 64.127 92.642 64.1527 92.4522 64.2179C92.2624 64.2831 92.088 64.3865 91.9398 64.5217C91.6467 64.7681 91.3768 65.0408 91.1335 65.3365C90.8846 65.6194 90.6469 65.9023 90.381 66.171C90.1151 66.4398 89.7982 66.6576 89.4502 66.6152C89.2735 66.5901 89.1034 66.5301 88.95 66.4389C88.7965 66.3476 88.6627 66.2267 88.5563 66.0833C88.3073 65.8004 88.0923 65.4977 87.8575 65.1978C87.6417 64.8702 87.3377 64.6103 86.9805 64.4481C86.7866 64.3888 86.5779 64.4008 86.3921 64.4821C86.2136 64.5574 86.0476 64.6595 85.8998 64.7848C85.7951 64.8725 85.7018 64.9574 85.6113 65.0479Z" fill="white"/>
<path d="M86.0696 67.2885C86.0696 67.3196 86.0894 67.3507 86.095 67.379L86.2789 67.4186C86.9983 67.6321 87.6414 68.0474 88.1319 68.6153C88.3888 68.8949 88.6731 69.148 88.9806 69.3707C89.308 69.5912 89.6897 69.7174 90.084 69.7356C90.284 69.7332 90.4814 69.6892 90.6636 69.6064C90.8457 69.5236 91.0086 69.4038 91.142 69.2547C91.4109 68.9806 91.6551 68.6833 91.8719 68.3664C92.0761 68.0524 92.299 67.751 92.5396 67.4639C92.7772 67.181 93.0686 66.9236 93.4166 66.9264C93.7765 66.9458 94.1146 67.1052 94.3586 67.3706C94.6415 67.6195 94.8792 67.9081 95.1423 68.1825C95.3871 68.4881 95.7138 68.7177 96.0843 68.8445C96.1656 68.86 96.2492 68.86 96.3305 68.8445L96.3729 68.7313C96.2862 68.7496 96.1965 68.7496 96.1098 68.7313C95.7665 68.603 95.4665 68.3804 95.2441 68.0891C94.9923 67.8062 94.7519 67.5233 94.4661 67.2546C94.325 67.119 94.1672 67.0021 93.9965 66.9066C93.8183 66.8081 93.6173 66.7583 93.4137 66.7623C93.3107 66.7627 93.2085 66.7799 93.111 66.8132C93.013 66.8515 92.9184 66.8978 92.8281 66.9519C92.6705 67.0664 92.5262 67.1983 92.3981 67.3451C92.1528 67.6372 91.9234 67.9422 91.7107 68.2589C91.5037 68.5692 91.2699 68.8608 91.0119 69.1302C90.8952 69.2642 90.752 69.3726 90.5913 69.4486C90.4306 69.5246 90.256 69.5664 90.0783 69.5715C89.7139 69.5573 89.3605 69.4428 89.057 69.2405C88.753 69.0251 88.4689 68.7827 88.2083 68.5163C87.939 68.2458 87.6454 68.0005 87.3313 67.7836C87.0112 67.5715 86.6557 67.4182 86.2817 67.3309C86.2252 67.2885 86.1488 67.2885 86.0696 67.2885Z" fill="white"/>
<path d="M36.6379 96.255L15.0354 113.673H16.2519L41.2011 96.255H36.6379Z" fill="#C7C7C7"/>
<path d="M38.6663 96.255L27.9924 113.673H29.2089L42.2931 96.255H38.6663Z" fill="#C7C7C7"/>
<path d="M43.9 96.255L54.5739 113.673H53.3575L40.2732 96.255H43.9Z" fill="#C7C7C7"/>
<path d="M45.7643 96.255L67.364 113.673H66.1475L41.2011 96.255H45.7643Z" fill="#C7C7C7"/>
<path d="M81.8175 89.867V84.7719L52.1523 83.5526L36.4851 41.7197H0.584717L13.2871 89.867L43.6341 98.3852H45.5352L81.8175 89.867Z" fill="#455A64"/>
<path d="M0.584717 41.7197H4.69247L17.9267 85.6065L44.777 93.2138L81.8175 84.7719V89.867L45.5352 98.3852H43.6341L13.2871 89.867L0.584717 41.7197Z" fill="#37474F"/>
<path d="M103.632 113.498C102.673 113.521 77.8512 105.86 77.0902 104.957C77.0082 104.858 77.3958 101.183 78.0379 98.2664C78.0662 98.1249 69.2198 86.5372 69.2198 86.5372L85.2124 80.3134L92.8649 96.1559L94.8452 100.278C94.8452 100.278 103.126 108.604 103.861 109.67C104.597 110.737 104.588 113.475 103.632 113.498Z" fill="#EBEBEB"/>
<path d="M104.331 113.639C103.332 113.665 77.4184 105.755 76.6206 104.827C76.3151 104.479 76.779 102.875 78.0351 98.2664L95.0093 100.312C95.0093 100.312 103.779 108.544 104.543 109.648C105.307 110.751 105.327 113.611 104.331 113.639Z" fill="#7C20BE"/>
<path d="M104.283 112.488C99.9714 111.056 82.4456 105.698 78.0747 104.595C78.0408 104.595 78.0323 104.609 78.0747 104.623C82.3183 106.137 99.8865 111.365 104.272 112.545C104.345 112.584 104.365 112.519 104.283 112.488Z" fill="#263238"/>
<path d="M103.18 108.213C102.7 108.053 102.193 107.995 101.69 108.041C101.187 108.087 100.699 108.237 100.257 108.482C99.4576 108.915 98.8557 109.639 98.5767 110.505C98.5767 110.53 98.6191 110.547 98.6304 110.522C99.3971 108.895 101.4 107.874 103.157 108.259C103.162 108.259 103.167 108.257 103.172 108.254C103.176 108.252 103.18 108.248 103.182 108.243C103.185 108.238 103.186 108.233 103.185 108.228C103.185 108.222 103.183 108.217 103.18 108.213Z" fill="#263238"/>
<path d="M96.7803 102.026C95.0489 101.46 92.8479 101.46 91.3315 102.561C91.2721 102.603 91.3315 102.685 91.3938 102.674C93.1578 102.342 94.952 102.199 96.7463 102.247C96.7731 102.247 96.7989 102.237 96.8191 102.219C96.8394 102.202 96.8527 102.177 96.8568 102.151C96.8609 102.124 96.8554 102.097 96.8414 102.074C96.8274 102.052 96.8057 102.035 96.7803 102.026Z" fill="#263238"/>
<path d="M97.9628 102.957C96.2314 102.391 94.0304 102.391 92.5141 103.494C92.4547 103.537 92.5141 103.619 92.5763 103.608C94.3401 103.275 96.1345 103.131 97.9288 103.18C97.9578 103.183 97.9867 103.175 98.0097 103.157C98.0327 103.14 98.0479 103.114 98.0523 103.085C98.0566 103.056 98.0498 103.027 98.0331 103.003C98.0165 102.979 97.9913 102.963 97.9628 102.957Z" fill="#263238"/>
<path d="M99.1453 103.891C97.414 103.325 95.213 103.325 93.6966 104.428C93.6372 104.47 93.6966 104.553 93.7589 104.541C95.5226 104.208 97.3171 104.065 99.1114 104.114C99.1403 104.117 99.1692 104.109 99.1922 104.091C99.2152 104.073 99.2304 104.047 99.2348 104.018C99.2392 103.99 99.2323 103.96 99.2157 103.937C99.199 103.913 99.1738 103.896 99.1453 103.891Z" fill="#263238"/>
<path d="M100.322 104.824C98.5908 104.258 96.3898 104.258 94.8735 105.359C94.8141 105.401 94.8735 105.486 94.9357 105.475C96.6995 105.142 98.4939 104.998 100.288 105.048C100.317 105.051 100.346 105.042 100.369 105.024C100.392 105.007 100.407 104.981 100.412 104.952C100.416 104.923 100.409 104.894 100.393 104.87C100.376 104.846 100.351 104.83 100.322 104.824Z" fill="#263238"/>
<path d="M100.076 97.958C99.4197 96.9594 98.0958 97.3357 97.3178 97.9269C96.0089 98.9671 94.9962 100.333 94.3812 101.888C94.3671 101.924 94.3812 101.947 94.4208 101.955C94.4208 102.091 94.534 102.238 94.6896 102.19C96.189 101.712 97.8525 101.387 99.1595 100.462C99.9233 99.9242 100.698 98.9029 100.076 97.958ZM96.8142 101.002C96.0843 101.257 95.3431 101.472 94.6217 101.752C95.1715 100.963 95.7607 100.203 96.387 99.4744C96.6959 99.1264 97.0276 98.7994 97.38 98.4956C97.9458 98.0373 100.085 97.1037 99.68 99.0614C99.4565 100.122 97.6884 100.702 96.8142 101.002Z" fill="#263238"/>
<path d="M89.8548 101.217C91.2976 101.913 92.9894 101.958 94.5482 102.182C94.7094 102.204 94.7971 102.038 94.7745 101.899C94.782 101.897 94.7889 101.893 94.7947 101.888C94.8005 101.883 94.805 101.877 94.8078 101.869C94.8105 101.862 94.8115 101.854 94.8107 101.847C94.8098 101.839 94.8071 101.832 94.8028 101.825C93.9436 100.397 92.7254 99.2189 91.2693 98.4079C90.4065 97.9524 89.0372 97.8025 88.5534 98.8945C88.0895 99.9327 89.0231 100.813 89.8548 101.217ZM89.1051 99.9073C88.3837 98.0571 90.6611 98.6201 91.2806 98.9793C91.6755 99.2213 92.0536 99.4897 92.4122 99.7828C93.1507 100.398 93.8579 101.049 94.5312 101.735C93.773 101.579 93.0063 101.489 92.2425 101.359C91.357 101.206 89.5153 100.929 89.1164 99.9073H89.1051Z" fill="#263238"/>
<path d="M93.674 96.9056L76.0435 99.5112C76.0435 99.5112 66.4248 82.0419 62.5377 77.6965C62.3201 77.4458 62.0826 77.2131 61.8276 77.0006C61.4259 76.8188 60.9945 76.7115 60.5545 76.6837C55.3406 76.05 37.7978 77.7559 25.6726 76.9666L31.3306 69.399L33.84 66.0409C47.4985 64.4849 64.2605 58.9004 71.8225 62.6942C80.0182 66.8104 93.674 96.9056 93.674 96.9056Z" fill="#263238"/>
<path d="M91.4645 93.9125C88.4686 94.3001 89.3229 94.1473 86.3298 94.566C84.8644 94.7697 77.5032 95.7797 76.1679 96.1984C76.1604 96.1984 76.1532 96.2013 76.1479 96.2066C76.1426 96.212 76.1396 96.2191 76.1396 96.2266C76.1396 96.2342 76.1426 96.2413 76.1479 96.2467C76.1532 96.252 76.1604 96.2549 76.1679 96.2549C77.5655 96.2549 84.9068 95.0979 86.3666 94.8659C89.3512 94.3934 88.4884 94.4981 91.4589 93.9945C91.465 93.9966 91.4715 93.9972 91.4779 93.9963C91.4843 93.9954 91.4905 93.9931 91.4958 93.9895C91.5012 93.9859 91.5057 93.9811 91.5089 93.9755C91.5121 93.9699 91.514 93.9636 91.5145 93.9572C91.5149 93.9507 91.5139 93.9442 91.5115 93.9383C91.509 93.9323 91.5052 93.9269 91.5004 93.9226C91.4956 93.9183 91.4899 93.9151 91.4836 93.9134C91.4774 93.9116 91.4709 93.9113 91.4645 93.9125Z" fill="#37474F"/>
<path d="M76.134 95.9522C74.1395 92.6168 65.0555 76.149 63.2478 75.504C61.6013 74.9127 28.6742 75.5974 28.1876 75.6002C28.1536 75.6002 28.1508 75.6539 28.1876 75.6539C32.086 75.6058 62.1812 75.4983 63.0412 75.8378C64.8264 76.5423 75.687 95.641 75.9558 96.0399C76.0237 96.1446 76.2019 96.0654 76.134 95.9522Z" fill="#37474F"/>
<path d="M16.4414 70.0751C16.4414 70.0751 15.4004 80.0192 20.4389 84.9417C26.4675 90.8515 66.2692 89.3606 72.4223 87.3662C78.5754 85.3717 78.7791 75.4248 72.0404 73.1191C65.6298 70.9266 37.198 69.6649 36.5247 69.3961C35.8514 69.1274 33.8796 65.9815 33.8796 65.9815L16.4414 70.0751Z" fill="#263238"/>
<path d="M24.8606 69.795C24.8606 69.7469 24.7786 69.7639 24.7786 69.8092C24.7794 71.0975 24.3256 72.3447 23.497 73.3313C22.5521 74.4233 21.1603 75.0287 19.8985 75.6709C19.7769 75.7331 19.8702 75.9227 19.9947 75.8859C20.7703 75.6466 21.5177 75.3241 22.224 74.924C22.8714 74.5792 23.4413 74.1055 23.8988 73.5322C24.3097 73.0101 24.6074 72.4082 24.773 71.7648C24.9386 71.1214 24.9684 70.4506 24.8606 69.795Z" fill="#37474F"/>
<path d="M36.2531 68.7766C35.9702 68.4173 35.6647 68.075 35.3705 67.727C34.6774 66.8981 33.9786 66.0692 33.2515 65.2714C33.1808 65.195 33.0478 65.3025 33.1101 65.3846C33.5995 66.0268 34.12 66.6463 34.6293 67.2715L35.4186 68.2306C35.6942 68.5165 35.9406 68.8293 36.1541 69.1642C36.3465 69.5206 36.0947 69.8233 35.7269 69.8629C35.4004 69.8706 35.083 69.7544 34.8386 69.5376C34.2728 69.0963 33.8117 68.4654 33.3364 67.9279C33.0535 67.5997 32.7508 67.2687 32.4538 66.9462C32.1567 66.6237 31.8002 66.2701 31.4862 65.9278C31.4664 65.9051 31.4268 65.9277 31.4438 65.9589C31.7267 66.338 31.9728 66.7312 32.2501 67.1103C32.5273 67.4894 32.8159 67.8628 33.0988 68.2419C33.3817 68.621 33.6448 68.9378 33.9475 69.2745C34.1869 69.572 34.4737 69.8282 34.7962 70.0327C35.3252 70.3439 36.239 70.4089 36.5219 69.7271C36.5672 69.5592 36.5662 69.3821 36.5189 69.2147C36.4715 69.0473 36.3797 68.8959 36.2531 68.7766Z" fill="#37474F"/>
<path d="M71.5793 87.4029C69.4546 87.4425 67.3357 87.567 65.2111 87.6122C63.0865 87.6575 60.9987 87.6688 58.891 87.649C54.6607 87.6094 50.4341 87.4453 46.2113 87.1568C41.9452 86.8739 37.3451 86.4354 33.1101 85.8497C31.0817 85.5668 29.0278 85.3349 27.022 84.9049C25.2176 84.5631 23.5488 83.712 22.2127 82.4521C19.4685 79.79 18.402 75.8774 17.9691 72.1403C17.9097 71.6367 17.8616 71.136 17.822 70.6324C17.822 70.5984 17.7654 70.5984 17.7683 70.6324C18.0172 74.4657 18.617 78.4632 21.0245 81.544C22.0417 82.8889 23.3963 83.941 24.9512 84.5937C26.8494 85.3547 28.9542 85.5329 30.9572 85.8045C35.2007 86.3703 39.829 86.8258 44.1065 87.1596C48.384 87.4934 52.7294 87.6999 57.0465 87.765C61.3636 87.8301 65.6835 87.765 69.995 87.5557C70.524 87.5302 71.0474 87.4991 71.5736 87.451C71.6075 87.451 71.6075 87.4029 71.5793 87.4029Z" fill="#37474F"/>
<path d="M77.2458 78.1266C76.8413 76.4622 75.8266 75.0103 74.4026 74.0584C72.875 73.0145 71.0474 72.5392 69.2368 72.2761C67.1914 71.9791 65.1177 71.8263 63.0582 71.6283C58.8354 71.2171 54.6088 70.8399 50.3785 70.4967C46.1519 70.1487 37.0481 69.4414 36.536 69.4216C36.4936 69.4216 36.4823 69.4952 36.536 69.5008C40.6155 69.9535 44.33 70.3495 48.418 70.7145C52.5059 71.0794 56.6222 71.4783 60.7384 71.8857C62.7828 72.0856 64.8282 72.2912 66.8746 72.5024C68.7672 72.6976 70.7164 72.89 72.493 73.6341C74.0179 74.2621 75.39 75.2721 76.1708 76.746C76.893 78.2084 77.107 79.8699 76.779 81.4676C76.4938 82.9534 75.8092 84.3335 74.7987 85.4594C73.8287 86.5697 72.5359 87.3492 71.1011 87.6887C70.7277 87.7707 70.2779 87.8273 69.9328 87.898C69.9073 87.898 69.879 87.9574 69.9073 87.9574C72.9626 88.0367 75.7888 85.8045 76.8922 83.0123C77.5068 81.4582 77.6302 79.753 77.2458 78.1266Z" fill="#37474F"/>
<path d="M28.3205 45.6408C30.3433 53.562 34.3634 63.0336 36.0155 64.5443C38.109 66.4568 50.9104 68.9661 51.5752 69.0312C52.6842 69.1415 54.97 57.7151 53.9374 57.7547C51.1989 57.8141 42.7627 56.9569 42.1573 56.3656C41.5519 55.7743 37.2433 50.6 32.8215 44.7666C29.786 40.7522 27.0673 40.7239 28.3205 45.6408Z" fill="#EB9481"/>
<path d="M50.5482 68.5587C50.7321 68.6464 53.3773 69.8912 54.987 70.3184C56.195 70.638 59.7002 71.4641 60.1839 70.1684C60.5121 69.2858 58.5091 68.5559 57.1059 68.0099C56.3647 67.727 55.4425 66.9773 55.649 66.502C56.0054 65.6533 57.9122 66.4511 59.1711 67.1414C61.6041 68.4795 64.8603 70.9096 66.2975 69.6592C66.8378 69.1839 66.1758 68.3635 65.2139 67.5629C66.7642 68.4852 68.4136 69.232 69.036 68.7285C69.3924 68.4455 69.4009 68.0608 69.1887 67.6308C69.664 67.7751 70.0799 67.7326 70.3628 67.4186C70.8465 66.8896 70.5863 66.1286 70.0233 65.3534C70.1163 65.3416 70.2052 65.3077 70.2824 65.2545C70.3597 65.2014 70.4231 65.1305 70.4674 65.0479C71.4802 63.4184 66.1079 58.9428 64.2775 58.5581C58.9024 57.4265 53.2584 57.7858 53.2584 57.7858C51.1961 59.5171 50.5313 68.5531 50.5482 68.5587Z" fill="#EB9481"/>
<path d="M58.2998 63.4411C59.58 63.6139 60.8087 64.0575 61.904 64.7424C63.2845 65.6053 64.2096 66.6322 65.3724 67.662C65.4035 67.6903 65.3724 67.7384 65.3328 67.7101C64.767 67.2206 62.4839 65.3874 61.8927 64.9744C60.8238 64.208 59.5939 63.6961 58.297 63.4778C58.297 63.4778 58.2885 63.4382 58.2998 63.4411Z" fill="#263238"/>
<path d="M59.2447 61.1438C60.6592 61.4946 62.1105 61.8511 63.4345 62.4848C64.8801 63.1779 66.0259 64.3378 67.1546 65.4552C67.8298 66.1267 68.4899 66.8113 69.135 67.5091C69.1633 67.5402 69.135 67.5883 69.0954 67.5572C67.9487 66.4067 66.7699 65.2883 65.5591 64.202C64.4407 63.1948 63.1354 62.4172 61.7172 61.9133C60.9053 61.6304 60.0707 61.4012 59.239 61.1777L59.2447 61.1438Z" fill="#263238"/>
<path d="M60.6988 59.1211C62.0737 59.37 63.2704 59.5822 64.501 60.2838C66.1249 61.2174 67.712 62.813 68.2693 63.3788C68.8832 64.004 69.4773 64.6518 70.0601 65.3054C70.0855 65.3308 70.0374 65.3733 70.0148 65.3478C68.6798 63.9137 67.2539 62.5671 65.7458 61.3164C65.0351 60.7111 64.2355 60.2187 63.375 59.8566C62.5054 59.5388 61.61 59.2965 60.6988 59.1324C60.6988 59.1324 60.6931 59.1211 60.6988 59.1211Z" fill="#263238"/>
<path d="M53.0519 56.988L49.2044 70.2845C49.2044 70.2845 37.8572 67.3394 35.7439 65.1667C33.6306 62.994 29.554 51.6157 28.3007 46.0821C27.0475 40.5485 29.8652 40.6221 32.5443 44.065C35.2234 47.5079 41.8461 55.8479 42.2111 56.0233C42.576 56.1987 53.0519 56.988 53.0519 56.988Z" fill="#7C20BE"/>
<path d="M47.9851 64.4425C48.4519 62.878 48.9329 61.3136 49.3402 59.7293C49.5722 58.8297 49.8099 57.9301 50.0334 57.0276C50.0334 56.9936 49.9853 56.9738 49.9739 57.0078C49.4421 58.5609 48.9131 60.1197 48.4548 61.6983C47.9964 63.2769 47.5268 64.8357 47.0883 66.4143C46.8394 67.3083 46.6187 68.2108 46.4263 69.1217C46.4263 69.1387 46.4518 69.15 46.4575 69.1217C47.0374 67.594 47.5127 66.0211 47.9851 64.4425Z" fill="#263238"/>
<path opacity="0.1" d="M47.5693 69.8346C44.347 68.9265 37.3536 66.8161 35.7411 65.1611C33.6306 62.9884 29.554 51.61 28.3007 46.0793C27.7038 43.4228 28.0376 42.0535 28.8467 41.7367C28.9351 41.779 29.0211 41.8262 29.1042 41.8781C33.2742 47.6013 41.914 61.2683 47.5693 69.8346Z" fill="#292929"/>
<path d="M15.2957 71.7952C15.3579 71.8602 39.3424 66.6039 39.5688 66.3267C39.88 65.9334 35.5911 47.8955 31.0817 42.5119C29.9501 41.1653 26.3487 41.2586 24.7362 42.6165C16.7385 49.3496 15.0694 71.5632 15.2957 71.7952Z" fill="#7C20BE"/>
<path d="M22.8605 43.9065C18.0766 47.5843 5.47045 62.465 8.10428 65.9928C10.7381 69.5206 28.8043 68.3494 34.0748 66.8415C35.6421 66.3889 31.6192 56.4137 29.9444 55.9214C28.5525 55.5084 20.7331 57.633 20.5916 57.1775C20.4304 56.6655 22.1646 53.3697 24.9568 47.341C28.1819 40.3816 24.9738 42.2827 22.8605 43.9065Z" fill="#EB9481"/>
<path d="M37.2971 54.7474C40.7824 54.8351 41.6651 55.3953 44.6525 53.8987C46.6074 52.9227 48.07 53.7544 46.7404 55.5961C44.5677 58.6119 40.044 59.4436 38.3947 59.2739L37.2971 54.7474Z" fill="#EB9481"/>
<path d="M27.7038 56.5381C27.7038 56.5381 31.8851 55.0444 35.6081 54.7728C38.1825 54.5861 43.8321 54.7983 48.2228 61.1353C49.2638 62.6375 49.6797 65.5146 47.0912 63.6814C45.2523 62.3772 44.4771 60.9939 43.2691 60.4309C43.2691 60.4309 43.3653 64.1567 41.8207 65.1412C40.4685 66.0011 39.0571 66.7641 37.5969 67.4242C37.4157 67.1848 37.2494 66.9345 37.099 66.6745C37.099 66.6745 35.5685 67.4554 33.0394 66.7877L27.7038 56.5381Z" fill="#EB9481"/>
<path d="M38.0835 54.9766C39.1642 55.7913 41.4303 57.5538 42.7797 59.6388C44.2791 61.953 46.5452 66.8217 44.8223 67.9109C43.5605 68.7087 42.5336 66.9264 42.5336 66.9264C42.5336 66.9264 43.0456 69.1359 41.7471 69.6083C40.5646 70.0383 39.8517 68.6125 39.8517 68.6125C39.8517 68.6125 39.9309 70.0072 38.7201 70.2024C37.2546 70.4372 37.3282 67.4781 35.6364 66.4313C35.2545 66.1965 38.0835 54.9766 38.0835 54.9766Z" fill="#EB9481"/>
<path d="M40.078 60.8157C40.972 61.7464 42.4544 64.3803 42.5704 66.8783C42.5704 66.932 42.5336 66.966 42.5194 66.9151C41.9484 64.7945 41.1219 62.7511 40.0582 60.8298L40.078 60.8157Z" fill="#263238"/>
<path d="M37.7836 62.3972C38.4711 63.2798 39.88 66.0749 39.9111 68.5956C39.9111 68.655 39.8686 68.6833 39.8573 68.6323C39.3973 66.4848 38.694 64.3967 37.761 62.4085C37.761 62.4085 37.7752 62.3858 37.7836 62.3972Z" fill="#263238"/>
<path d="M43.2691 60.397C44.3272 60.9091 44.9666 61.5711 45.787 62.3773C46.1928 62.7781 46.6206 63.1559 47.0685 63.509C47.4787 63.8286 48.087 64.3096 48.6302 64.004C48.9329 63.8371 48.9951 63.4382 48.9866 63.1327C48.9249 62.659 48.7894 62.198 48.5849 61.7663C48.5849 61.7663 48.6047 61.738 48.6132 61.7663C48.8147 62.1611 48.9759 62.5753 49.0941 63.0026C49.1681 63.2944 49.1533 63.6018 49.0517 63.8852C48.7857 64.4708 48.0502 64.4312 47.5664 64.1681C47.2806 64.0065 47.0115 63.817 46.763 63.6023C46.5197 63.4043 46.2849 63.1949 46.0586 62.9771C45.5889 62.5329 45.1448 62.0633 44.6837 61.6135C44.23 61.1877 43.75 60.7908 43.2465 60.4253C43.2295 60.4168 43.2493 60.3885 43.2691 60.397Z" fill="#263238"/>
<path d="M44.9496 64.6886C44.4763 63.2305 43.9093 61.8046 43.2522 60.4196C43.251 60.4179 43.2503 60.4161 43.2499 60.4141C43.2495 60.4121 43.2495 60.4101 43.2499 60.4081C43.2503 60.4061 43.2511 60.4043 43.2522 60.4026C43.2533 60.4009 43.2547 60.3995 43.2564 60.3984C43.2581 60.3973 43.26 60.3965 43.2619 60.3961C43.2639 60.3957 43.2659 60.3957 43.2679 60.3961C43.2699 60.3965 43.2717 60.3973 43.2734 60.3984C43.2751 60.3995 43.2765 60.401 43.2776 60.4026C44.0075 61.3645 45.0373 63.7748 45.2579 64.5274C45.4786 65.2799 45.688 66.2106 45.5606 66.9801C45.3683 68.14 44.562 68.2334 44.2678 68.2419C43.9205 68.2478 43.5818 68.1339 43.3087 67.9194C42.9915 67.6448 42.7343 67.3077 42.5534 66.9292C42.5534 66.9122 42.5675 66.8924 42.5789 66.9122C42.9042 67.4356 43.4983 67.9957 44.1433 68.0184C44.2847 68.0271 44.4265 68.0079 44.5605 67.9617C44.6944 67.9156 44.818 67.8435 44.9241 67.7496C45.1423 67.4984 45.2628 67.1771 45.2636 66.8443C45.2826 66.1131 45.1764 65.384 44.9496 64.6886Z" fill="#263238"/>
<path d="M27.7038 56.0262L31.3335 68.6578C31.3335 68.6578 8.7493 69.9478 7.49887 65.8457C6.24844 61.7436 17.1572 48.3057 21.6836 44.628C26.9287 40.3533 27.2087 42.1469 25.5028 46.4244C23.7149 50.9028 20.6369 57.2964 20.6369 57.2964L27.7038 56.0262Z" fill="#7C20BE"/>
<path d="M13.5021 59.3106C14.6297 58.7794 15.7946 58.3312 16.9874 57.9697C18.1668 57.617 19.3705 57.3513 20.5888 57.1747C21.2819 57.0644 21.9807 56.9908 22.6766 56.9116C22.6811 56.9116 22.6854 56.9134 22.6886 56.9166C22.6918 56.9198 22.6936 56.9241 22.6936 56.9286C22.6936 56.9331 22.6918 56.9374 22.6886 56.9406C22.6854 56.9438 22.6811 56.9456 22.6766 56.9456C21.453 57.1284 20.241 57.3825 19.047 57.7066C17.856 58.0178 16.6762 58.3488 15.4965 58.7024C14.8317 58.9033 14.1754 59.1352 13.5162 59.3559C13.513 59.3585 13.5092 59.3603 13.5051 59.361C13.501 59.3618 13.4968 59.3616 13.4929 59.3604C13.4889 59.3592 13.4853 59.357 13.4824 59.3541C13.4794 59.3512 13.4772 59.3476 13.476 59.3436C13.4748 59.3397 13.4745 59.3355 13.4753 59.3314C13.476 59.3273 13.4777 59.3235 13.4803 59.3202C13.4829 59.317 13.4862 59.3144 13.49 59.3127C13.4938 59.3111 13.4979 59.3103 13.5021 59.3106Z" fill="#263238"/>
<path d="M27.6529 55.9724C27.5369 55.9724 21.2564 56.9625 21.0471 57.022C21.0867 56.9371 22.6794 53.9468 22.9171 53.5111C22.9397 53.4659 22.9595 53.4234 22.985 53.3782C23.1264 53.1886 23.2679 53.0019 23.4065 52.8124L23.9214 52.0627L23.3726 52.7841C23.2877 52.8972 23.2085 53.0132 23.1293 53.1264C23.2877 52.819 23.4433 52.5078 23.5961 52.1928C23.845 51.6921 24.077 51.1885 24.3061 50.6793H24.2807C23.8111 51.5506 23.316 52.4078 22.8435 53.2763C22.3711 54.1448 20.5803 57.3416 20.5945 57.3416C20.6086 57.3416 27.5369 56.111 27.667 56.0799C27.6813 56.078 27.6942 56.0705 27.703 56.0591C27.7117 56.0477 27.7156 56.0333 27.7137 56.0191C27.7118 56.0048 27.7044 55.9919 27.693 55.9831C27.6816 55.9744 27.6671 55.9705 27.6529 55.9724Z" fill="#263238"/>
<path d="M26.79 63.6899C26.394 62.2754 26.0064 60.8609 25.5594 59.4747C25.3048 58.6825 25.053 57.8904 24.7899 57.1011C24.7899 57.07 24.7277 57.0813 24.7362 57.1011C25.0785 58.5326 25.4236 59.9641 25.831 61.3786C26.2384 62.7931 26.6288 64.2076 27.0531 65.5967C27.2936 66.3916 27.5595 67.1781 27.8481 67.9618C27.8481 67.9655 27.8496 67.9691 27.8522 67.9718C27.8549 67.9744 27.8585 67.9759 27.8622 67.9759C27.866 67.9759 27.8696 67.9744 27.8722 67.9718C27.8749 67.9691 27.8764 67.9655 27.8764 67.9618C27.5822 66.5218 27.1889 65.1073 26.79 63.6899Z" fill="#263238"/>
<path d="M31.5768 68.8898C31.4183 68.4937 31.2288 67.9279 31.0534 67.5375C31.0081 67.4357 30.9317 67.4413 30.9657 67.5375C31.076 67.8912 31.1524 68.2816 31.2486 68.6437C30.9317 68.6437 30.6177 68.6578 30.3009 68.672L29.206 68.7201C28.4893 68.7484 27.7736 68.7691 27.0588 68.7823C25.6066 68.8087 24.1572 68.8087 22.7106 68.7823C19.8106 68.7283 16.9154 68.5234 14.0368 68.1684C13.2305 68.0666 12.4242 67.9477 11.6264 67.8035C10.8335 67.6725 10.0479 67.5006 9.27268 67.2886C9.25287 67.2886 9.24156 67.3197 9.27268 67.3254C9.92782 67.5813 10.6023 67.7847 11.2898 67.9336C12.0083 68.0892 12.7354 68.2165 13.4625 68.3381C14.9138 68.5616 16.3735 68.7059 17.8362 68.8134C20.7387 69.0228 23.646 69.1105 26.5581 69.0765C27.3728 69.0765 28.1876 69.0482 29.0023 69.0228C29.4125 69.0086 29.8256 68.9945 30.2358 68.9719C30.646 68.9492 31.6107 68.9577 31.5768 68.8898Z" fill="#263238"/>
<path d="M62.0454 70.5504H33.1497V71.716H62.0454V70.5504Z" fill="#455A64"/>
<path d="M49.1394 70.5504H33.1497V71.716H49.1394V70.5504Z" fill="#A6A6A6"/>
<path d="M48.6528 71.7159H73.9783L77.557 54.5154H52.2315L48.6528 71.7159Z" fill="#A6A6A6"/>
<path d="M49.8014 71.7159H75.1269L78.7056 54.5154H53.3801L49.8014 71.7159Z" fill="#C7C7C7"/>
<path d="M62.566 63.5004C62.536 63.7145 62.5529 63.9325 62.6155 64.1394C62.6781 64.3463 62.785 64.5371 62.9287 64.6985C63.0724 64.86 63.2495 64.9883 63.4478 65.0745C63.646 65.1607 63.8606 65.2028 64.0767 65.1978C64.5401 65.1879 64.9842 65.0105 65.3269 64.6985C65.6696 64.3865 65.8878 63.9609 65.941 63.5004C65.971 63.2864 65.9541 63.0683 65.8914 62.8615C65.8288 62.6546 65.7219 62.4638 65.5782 62.3023C65.4345 62.1409 65.2574 62.0126 65.0592 61.9264C64.861 61.8401 64.6464 61.798 64.4303 61.803C63.9671 61.8135 63.5233 61.9911 63.1807 62.303C62.8381 62.615 62.6197 63.0402 62.566 63.5004Z" fill="#EBEBEB"/>
<path d="M29.2541 48.2802C29.2541 48.2802 25.0304 44.0904 22.2692 44.1527L19.9127 46.2122C19.9127 46.2122 19.1403 46.4583 18.9084 45.9689C18.3425 44.7581 18.235 41.8442 20.7585 39.9742C23.067 38.2598 26.824 38.4211 29.9529 39.2726C32.9573 40.0902 35.5515 42.1016 34.6123 44.065C33.6731 46.0283 29.2541 48.2802 29.2541 48.2802Z" fill="#7C20BE"/>
<path opacity="0.1" d="M29.5625 47.3608C29.5625 47.3608 33.0365 44.925 33.4043 43.4624C33.7721 41.9998 30.8582 40.5825 28.9712 40.0195C26.0545 39.1482 24.06 39.3207 22.4079 40.8682C20.7557 42.4157 29.5625 47.3608 29.5625 47.3608Z" fill="#292929"/>
<path d="M29.5625 47.3608C29.5625 47.3608 26.2016 41.5443 21.9382 40.9474L22.2692 44.1527C22.2692 44.1527 24.8154 44.181 29.2541 48.2802L29.5625 47.3608Z" fill="#7C20BE"/>
<path d="M21.1093 44.2008C21.886 44.1445 22.6657 44.2565 23.3952 44.529C24.1269 44.7789 24.8274 45.112 25.483 45.5219C26.1435 45.9249 26.7767 46.371 27.3785 46.8573L28.264 47.6126L29.1127 48.4076L29.2089 48.4981L29.3164 48.4415C30.1163 48.0396 30.8876 47.583 31.6248 47.0751C31.9965 46.8263 32.3527 46.5552 32.6914 46.2632C33.0335 45.9753 33.3471 45.655 33.6278 45.3069C32.9784 45.908 32.2639 46.4346 31.4975 46.8771C31.1213 47.1062 30.7337 47.3212 30.3433 47.5249C29.9529 47.7286 29.5597 47.9351 29.1636 48.119L29.3644 48.1558L28.5157 47.3325C28.2328 47.0694 27.9188 46.8148 27.6189 46.5602C27.3191 46.3056 26.9881 46.0793 26.6627 45.8529C26.3374 45.6266 26.0036 45.4144 25.6499 45.2306C24.9612 44.834 24.2243 44.5279 23.4574 44.3196C23.2679 44.263 23.0699 44.2291 22.8916 44.1866C22.7134 44.1442 22.4984 44.1301 22.3004 44.1188C21.9016 44.0791 21.4989 44.1068 21.1093 44.2008Z" fill="#263238"/>
<path d="M19.9127 46.2122C20.7805 45.626 21.5721 44.9342 22.2692 44.1526C21.4031 44.7411 20.6118 45.4327 19.9127 46.2122Z" fill="#263238"/>
<path d="M27.8368 46.3169C27.5867 47.6476 27.4513 48.9973 27.4322 50.3511C27.4096 51.296 27.7745 54.6852 28.8241 54.5607C29.8737 54.4362 28.1649 52.2522 27.8651 50.4671C27.5652 48.682 28.0433 47.3693 28.1055 46.2999L27.8368 46.3169Z" fill="#7C20BE"/>
<g opacity="0.1">
<path d="M27.8368 46.3169C27.5867 47.6476 27.4513 48.9973 27.4322 50.3511C27.4096 51.296 27.7745 54.6852 28.8241 54.5607C29.8737 54.4362 28.1649 52.2522 27.8651 50.4671C27.5652 48.682 28.0433 47.3693 28.1055 46.2999L27.8368 46.3169Z" fill="#292929"/>
</g>
<path d="M31.5768 46.5037C31.9142 47.797 32.175 49.1091 32.3576 50.4332C32.4707 51.2819 32.4934 54.3712 31.5343 54.3684C30.5753 54.3655 31.8908 52.2211 31.9785 50.5803C32.0662 48.9395 31.5004 47.4684 31.3335 46.5178L31.5768 46.5037Z" fill="#7C20BE"/>
<g opacity="0.1">
<path d="M31.5768 46.5037C31.9142 47.797 32.175 49.1091 32.3576 50.4332C32.4707 51.2819 32.4934 54.3712 31.5343 54.3684C30.5753 54.3655 31.8908 52.2211 31.9785 50.5803C32.0662 48.9395 31.5004 47.4684 31.3335 46.5178L31.5768 46.5037Z" fill="#292929"/>
</g>
<path d="M29.9161 46.7102C28.8213 46.6366 26.7787 44.3508 26.0828 42.5345C26.0375 42.41 26.3657 41.2134 26.7306 39.7394C26.9371 38.8426 27.1493 37.8412 27.2738 36.9104L32.9036 39.117C32.4135 40.2317 32.0619 41.4022 31.8568 42.6024C31.8443 42.7313 31.8443 42.8611 31.8568 42.99C31.8568 43.007 31.8568 43.0296 31.8568 43.0551C31.8597 43.8076 31.6333 46.8205 29.9161 46.7102Z" fill="#EB9481"/>
<path d="M31.8427 42.9928C31.8444 43.0145 31.8444 43.0362 31.8427 43.0579C31.6399 43.0565 31.4375 43.0395 31.2373 43.0069C27.9386 42.4807 27.6783 38.339 27.6783 37.066L32.9036 39.1114C32.4156 40.2305 32.0651 41.4046 31.8597 42.6081C31.8442 42.7357 31.8386 42.8643 31.8427 42.9928Z" fill="#263238"/>
<path d="M28.4196 29.6624C27.2398 31.4956 26.6599 37.5837 27.718 39.2811C29.2541 41.7396 32.5867 42.8768 34.8811 40.8428C37.1047 38.8624 37.7101 30.9213 36.4625 29.2975C34.6066 26.8928 30.1622 26.9494 28.4196 29.6624Z" fill="#EB9481"/>
<path d="M32.2189 34.0927C32.3992 34.065 32.5777 34.0273 32.7536 33.9795C32.9473 33.9644 33.1309 33.887 33.277 33.7588C33.3151 33.7094 33.3357 33.6487 33.3357 33.5863C33.3357 33.5238 33.3151 33.4632 33.277 33.4137C33.1864 33.3292 33.0752 33.27 32.9545 33.2422C32.8338 33.2144 32.7079 33.2189 32.5895 33.2553C32.3356 33.2915 32.105 33.423 31.9445 33.6231C31.9106 33.6697 31.8911 33.7253 31.8882 33.7829C31.8853 33.8405 31.8993 33.8977 31.9284 33.9475C31.9575 33.9972 32.0005 34.0375 32.0521 34.0633C32.1037 34.0891 32.1616 34.0993 32.2189 34.0927Z" fill="#263238"/>
<path d="M36.3465 34.6585C36.1743 34.5994 36.0053 34.5314 35.8401 34.4548C35.6514 34.4085 35.4833 34.3011 35.362 34.1492C35.3331 34.094 35.3233 34.0308 35.334 33.9694C35.3448 33.908 35.3755 33.8519 35.4214 33.8098C35.5246 33.7411 35.6442 33.701 35.7679 33.6935C35.8916 33.6861 36.0151 33.7115 36.1258 33.7673C36.3657 33.8491 36.5671 34.0163 36.6916 34.2369C36.7167 34.2885 36.7266 34.3462 36.7199 34.4031C36.7132 34.46 36.6904 34.5139 36.6541 34.5582C36.6177 34.6026 36.5695 34.6356 36.515 34.6534C36.4604 34.6712 36.402 34.6729 36.3465 34.6585Z" fill="#263238"/>
<path d="M31.9049 38.8822C31.9898 38.9897 32.0718 39.134 32.2189 39.1651C32.3713 39.1824 32.5256 39.167 32.6716 39.1198C32.6716 39.1198 32.6942 39.1198 32.6716 39.1425C32.6024 39.2142 32.5154 39.2664 32.4195 39.2937C32.3236 39.321 32.2222 39.3225 32.1256 39.2981C32.0439 39.2667 31.9734 39.2117 31.9231 39.1402C31.8727 39.0687 31.8447 38.9838 31.8427 38.8963C31.8597 38.8709 31.8908 38.8652 31.9049 38.8822Z" fill="#263238"/>
<path d="M32.4905 37.7138C32.5743 37.8879 32.6928 38.0429 32.8388 38.1694C32.9847 38.2959 33.1551 38.3912 33.3392 38.4494C33.5 38.5027 33.6678 38.5323 33.8372 38.5371H34.0267C34.0488 38.5347 34.0697 38.5256 34.0864 38.5109C34.1032 38.4962 34.1149 38.4767 34.1201 38.455C34.1215 38.4409 34.1215 38.4267 34.1201 38.4126V38.3758C34.1682 38.0618 34.1993 37.5809 34.1993 37.5809C34.3068 37.6516 34.8584 37.9911 34.8697 37.8241C34.9631 36.4549 35.065 34.93 34.8697 33.5438C34.8697 33.4986 34.7962 33.5014 34.7934 33.5438C34.6547 34.8565 34.7453 36.1861 34.6265 37.5045C34.4302 37.3797 34.2167 37.2844 33.9927 37.2216C33.9475 37.2216 33.9503 38.1551 33.9192 38.2938C33.3817 38.2938 33.0026 38.0844 32.5358 37.6629C32.5047 37.6544 32.4707 37.677 32.4905 37.7138Z" fill="#263238"/>
<path d="M33.6731 38.3532C33.4715 38.5564 33.2212 38.7045 32.946 38.7832C32.7945 38.8193 32.6357 38.8085 32.4905 38.7521C32.1765 38.6248 32.2076 38.3249 32.2982 38.0759C32.3492 37.9446 32.4146 37.8194 32.4934 37.7025C32.8073 38.0394 33.2206 38.2673 33.6731 38.3532Z" fill="#263238"/>
<path d="M32.946 38.7832C32.7945 38.8194 32.6357 38.8085 32.4905 38.7521C32.1765 38.6248 32.2076 38.3249 32.2982 38.076C32.47 38.1036 32.6276 38.1885 32.7452 38.3169C32.8628 38.4452 32.9335 38.6096 32.946 38.7832Z" fill="#FF9ABB"/>
<path d="M33.0224 35.2073C33.0224 35.2073 32.9884 35.2214 32.9856 35.2384C32.9347 35.6458 32.8074 36.0871 32.4198 36.1776V36.2003C32.8753 36.2088 33.0394 35.6033 33.0224 35.2073Z" fill="#263238"/>
<path d="M32.7282 34.7292C32.086 34.5764 31.8285 35.8608 32.4226 36.0136C33.0167 36.1664 33.2742 34.8565 32.7282 34.7292Z" fill="#263238"/>
<path d="M35.3875 35.5185C35.3875 35.5185 35.4157 35.544 35.4129 35.5609C35.3167 35.957 35.2743 36.4294 35.6081 36.6388V36.6614C35.1696 36.5058 35.2347 35.8863 35.3875 35.5185Z" fill="#263238"/>
<path d="M35.8344 35.1734C36.4879 35.2582 36.2701 36.5624 35.6647 36.4832C35.0593 36.404 35.2856 35.1026 35.8344 35.1734Z" fill="#263238"/>
<path d="M28.9995 33.575C29.8482 32.5282 29.8765 30.2848 30.6658 29.9651C32.3632 29.2748 34.2078 32.4518 36.0155 33.1195C37.7667 33.7673 38.7625 32.8535 38.9605 31.3146C39.1586 29.7756 38.2985 28.378 36.4342 27.3709C34.5076 26.327 32.3519 26.4741 31.1071 26.7542C31.1071 26.7542 31.8087 26.2053 31.7239 25.9224C31.639 25.6395 30.53 26.0158 30.1622 26.2053C29.8772 26.3889 29.628 26.6228 29.4267 26.8956C29.1886 26.7345 28.9285 26.6087 28.6544 26.5222C28.2539 26.4088 27.8263 26.4398 27.4464 26.6099C27.3756 26.7032 27.9839 27.0173 28.4252 27.2011C28.4252 27.2011 27.1861 28.0074 26.8608 28.9636C26.5354 29.9198 26.377 34.9612 26.7136 35.1394C27.1465 35.3714 28.66 33.9993 28.9995 33.575Z" fill="#455A64"/>
<path d="M28.6402 27.1559C28.6572 27.1559 28.6713 27.1813 28.6402 27.1898C28.0788 27.3818 27.582 27.7267 27.2059 28.1857C26.7932 28.7587 26.5412 29.4317 26.476 30.1349C26.3034 31.4815 26.5015 32.8337 26.6146 34.1747C26.6146 34.2143 26.5496 34.2228 26.5439 34.1747C26.3346 32.7602 26.1507 31.241 26.394 29.8208C26.6118 28.6185 27.3502 27.3992 28.6402 27.1559Z" fill="#455A64"/>
<path d="M30.7648 29.4813C31.3211 29.6079 31.8482 29.8393 32.318 30.1631C32.743 30.5033 33.1232 30.8958 33.4496 31.3315C34.2502 32.2368 35.1922 33.0516 36.3691 33.3995C36.3691 33.3995 36.3691 33.4278 36.3691 33.4222C35.2658 33.1732 34.352 32.4858 33.5854 31.6823C33.2335 31.2397 32.8556 30.8184 32.4537 30.4206C31.9373 30.0482 31.3641 29.7617 30.7563 29.5719C30.7483 29.5668 30.7419 29.5597 30.7377 29.5513C30.7336 29.5428 30.7318 29.5334 30.7327 29.524C30.7336 29.5146 30.7371 29.5056 30.7427 29.4981C30.7484 29.4906 30.756 29.4848 30.7648 29.4813Z" fill="#455A64"/>
<path d="M32.3717 26.6495C33.2111 26.5542 34.0597 26.578 34.8924 26.7202C35.6965 26.8341 36.4747 27.0868 37.1924 27.467C38.4145 28.1488 39.3113 29.4106 39.1303 30.8619C39.0491 31.6083 38.6919 32.2975 38.1288 32.7941C38.1213 32.8009 38.1114 32.8044 38.1013 32.8038C38.0912 32.8033 38.0818 32.7988 38.075 32.7913C38.0683 32.7838 38.0648 32.7739 38.0653 32.7638C38.0659 32.7537 38.0704 32.7443 38.0779 32.7375C38.5585 32.2693 38.875 31.6582 38.98 30.9954C39.085 30.3327 38.973 29.6537 38.6606 29.0598C37.9308 27.7471 36.4597 27.1332 35.0508 26.8645C34.1667 26.709 33.2688 26.6464 32.3717 26.6777V26.6495Z" fill="#455A64"/>
<path d="M31.5768 37.2216C31.2352 37.1262 30.9272 36.9369 30.6878 36.6752C30.4484 36.4135 30.2873 36.0899 30.2227 35.7412C30.1581 35.3925 30.1926 35.0326 30.3223 34.7025C30.4521 34.3725 30.6718 34.0854 30.9566 33.874C31.2414 33.6626 31.5797 33.5353 31.9332 33.5067C32.2867 33.478 32.6412 33.5491 32.9563 33.7119C33.2714 33.8747 33.5345 34.1226 33.7157 34.4274C33.897 34.7323 33.989 35.0819 33.9814 35.4365C33.9759 35.6854 33.9214 35.9308 33.821 36.1587C33.7207 36.3865 33.5764 36.5924 33.3964 36.7645C33.2164 36.9365 33.0043 37.0715 32.7722 37.1616C32.5401 37.2517 32.2925 37.2951 32.0435 37.2895C31.8857 37.2871 31.7288 37.2643 31.5768 37.2216ZM32.5245 33.8098C32.3928 33.7724 32.2568 33.7524 32.1199 33.7504C31.7018 33.7415 31.2961 33.8924 30.9853 34.1723C30.6746 34.4521 30.4822 34.8399 30.4473 35.2567C30.4124 35.6734 30.5377 36.0878 30.7977 36.4153C31.0576 36.7429 31.4327 36.9591 31.8464 37.0199C32.2602 37.0807 32.6815 36.9814 33.0247 36.7424C33.3679 36.5034 33.607 36.1425 33.6934 35.7334C33.7799 35.3242 33.7071 34.8975 33.4899 34.5401C33.2727 34.1827 32.9275 33.9215 32.5245 33.8098Z" fill="#37474F"/>
<path d="M35.8825 37.8666C35.1838 37.6714 34.7509 36.7774 34.9009 35.8014C34.965 35.3321 35.1748 34.8947 35.5006 34.551C35.6315 34.3957 35.8002 34.2767 35.9905 34.2056C36.1807 34.1344 36.3861 34.1134 36.5868 34.1447C36.7875 34.176 36.9768 34.2584 37.1363 34.3841C37.2959 34.5097 37.4204 34.6744 37.4979 34.8622C37.7039 35.2882 37.7712 35.768 37.6903 36.2342C37.529 37.2697 36.7737 38.0109 35.9929 37.8921C35.9556 37.886 35.9187 37.8775 35.8825 37.8666ZM36.6435 34.4152L36.5474 34.3925C36.3863 34.3755 36.2234 34.3972 36.0724 34.4558C35.9213 34.5143 35.7864 34.6081 35.6788 34.7292C35.3929 35.0358 35.2082 35.423 35.1498 35.8382C35.0112 36.735 35.4101 37.5356 36.0438 37.6403C36.6775 37.7449 37.2999 37.0914 37.4413 36.1946C37.5129 35.7816 37.4546 35.3566 37.2744 34.9781C37.2137 34.8462 37.1263 34.7283 37.0177 34.6319C36.9091 34.5355 36.7817 34.4626 36.6435 34.418V34.4152Z" fill="#37474F"/>
<path d="M33.8852 35.6429L33.7551 35.4251C34.0748 35.2299 34.782 35.0121 35.1696 35.5722L34.9603 35.7165C34.6123 35.2129 33.9135 35.626 33.8852 35.6429Z" fill="#37474F"/>
<path d="M25.4576 34.8254L25.2539 34.6754C25.3218 34.5792 25.9526 33.7418 26.5241 33.739C27.0956 33.7362 30.3716 34.5877 30.513 34.6104L30.4508 34.8565C29.5002 34.616 26.94 33.9908 26.5269 33.9936C26.1139 33.9965 25.6358 34.5934 25.4576 34.8254Z" fill="#37474F"/>
<path d="M28.3205 34.7207C28.3205 34.7207 27.4973 32.4942 26.5213 32.7404C25.5453 32.9865 25.8197 35.974 26.725 36.6105C26.8354 36.6998 26.9628 36.7658 27.0994 36.8046C27.236 36.8434 27.3791 36.8541 27.52 36.8362C27.6609 36.8182 27.7966 36.7719 27.9192 36.7C28.0417 36.6282 28.1484 36.5323 28.2328 36.4181L28.3205 34.7207Z" fill="#EB9481"/>
<path d="M26.6203 33.5948V33.6203C27.2483 34.0899 27.4464 34.8367 27.5284 35.5808C27.5084 35.4983 27.47 35.4215 27.4163 35.3559C27.3625 35.2903 27.2947 35.2376 27.2178 35.2017C27.1409 35.1659 27.057 35.1478 26.9722 35.1487C26.8873 35.1497 26.8038 35.1697 26.7278 35.2073C26.7052 35.2073 26.7278 35.2498 26.7278 35.2498C26.8617 35.2425 26.9946 35.2769 27.1081 35.3484C27.2216 35.4198 27.3102 35.5248 27.3615 35.6487C27.4467 35.8561 27.5084 36.0725 27.5454 36.2937C27.5624 36.3672 27.684 36.3616 27.6783 36.2937V36.2767C27.9273 35.3743 27.5595 33.9371 26.6203 33.5948Z" fill="#263238"/>
</svg>
