<svg width="310" height="48" viewBox="0 0 310 48" fill="none" xmlns="http://www.w3.org/2000/svg">
<rect x="0.548828" y="0.548828" width="148.189" height="46.0196" stroke="#292929" stroke-width="0.902345"/>
<path d="M32.3003 14.7397C29.3117 14.7397 28.0486 16.1639 25.9672 16.1639C23.8332 16.1639 22.2055 14.7501 19.6156 14.7501C17.0806 14.7501 14.3773 16.2957 12.6606 18.9286C10.2501 22.6414 10.6592 29.6341 14.5633 35.5913C15.9598 37.7238 17.8248 40.1154 20.2708 40.1414H20.3153C22.4412 40.1414 23.0727 38.7512 25.9983 38.735H26.0428C28.9247 38.735 29.5029 40.1332 31.6199 40.1332H31.6643C34.1104 40.1073 36.0754 37.4574 37.4719 35.333C38.477 33.8052 38.8506 33.0383 39.6215 31.31C33.974 29.1693 33.0668 21.1743 38.652 18.1092C36.9471 15.9774 34.5515 14.7427 32.2929 14.7427L32.3003 14.7397Z" fill="#292929"/>
<path d="M31.6421 6.97803C29.8631 7.09868 27.7877 8.22971 26.5721 9.70642C25.4691 11.0447 24.5618 13.0299 24.9176 14.9552H25.0599C26.9545 14.9552 28.8936 13.816 30.0262 12.3564C31.1173 10.967 31.9445 8.99805 31.6421 6.97803Z" fill="#292929"/>
<path d="M59.8225 13.4141H58.2024V8.16406H59.8943C60.4036 8.16406 60.8394 8.26916 61.2017 8.47936C61.564 8.68786 61.8417 8.98779 62.0348 9.37915C62.2279 9.76879 62.3245 10.2353 62.3245 10.7788C62.3245 11.3257 62.2271 11.7965 62.0322 12.1913C61.8374 12.5843 61.5537 12.8868 61.1812 13.0988C60.8086 13.309 60.3557 13.4141 59.8225 13.4141ZM58.8381 12.8501H59.7815C60.2156 12.8501 60.5753 12.7664 60.8607 12.5989C61.1461 12.4314 61.3589 12.193 61.499 11.8837C61.6392 11.5743 61.7092 11.2061 61.7092 10.7788C61.7092 10.355 61.64 9.99011 61.5016 9.6842C61.3632 9.37658 61.1564 9.14074 60.8812 8.97668C60.6061 8.81091 60.2634 8.72802 59.8533 8.72802H58.8381V12.8501ZM64.9085 13.4961C64.553 13.4961 64.2411 13.4115 63.9728 13.2423C63.7062 13.0731 63.4977 12.8364 63.3473 12.5322C63.1986 12.228 63.1243 11.8726 63.1243 11.4658C63.1243 11.0557 63.1986 10.6976 63.3473 10.3917C63.4977 10.0858 63.7062 9.84826 63.9728 9.67907C64.2411 9.50988 64.553 9.42529 64.9085 9.42529C65.2639 9.42529 65.575 9.50988 65.8416 9.67907C66.1099 9.84826 66.3184 10.0858 66.4671 10.3917C66.6174 10.6976 66.6926 11.0557 66.6926 11.4658C66.6926 11.8726 66.6174 12.228 66.4671 12.5322C66.3184 12.8364 66.1099 13.0731 65.8416 13.2423C65.575 13.4115 65.2639 13.4961 64.9085 13.4961ZM64.9085 12.9526C65.1785 12.9526 65.4007 12.8834 65.575 12.745C65.7493 12.6066 65.8783 12.4246 65.9621 12.199C66.0458 11.9734 66.0877 11.729 66.0877 11.4658C66.0877 11.2026 66.0458 10.9574 65.9621 10.7301C65.8783 10.5028 65.7493 10.3191 65.575 10.179C65.4007 10.0388 65.1785 9.96875 64.9085 9.96875C64.6384 9.96875 64.4163 10.0388 64.242 10.179C64.0676 10.3191 63.9386 10.5028 63.8549 10.7301C63.7711 10.9574 63.7293 11.2026 63.7293 11.4658C63.7293 11.729 63.7711 11.9734 63.8549 12.199C63.9386 12.4246 64.0676 12.6066 64.242 12.745C64.4163 12.8834 64.6384 12.9526 64.9085 12.9526ZM68.3743 13.4141L67.1746 9.47656H67.8103L68.6614 12.4912H68.7024L69.5432 9.47656H70.1892L71.0198 12.481H71.0608L71.9119 9.47656H72.5476L71.3479 13.4141H70.7532L69.8919 10.3892H69.8303L68.969 13.4141H68.3743ZM73.9524 11.0454V13.4141H73.3474V9.47656H73.9319V10.0918H73.9832C74.0755 9.89184 74.2156 9.7312 74.4036 9.60986C74.5916 9.48681 74.8343 9.42529 75.1316 9.42529C75.3982 9.42529 75.6315 9.47998 75.8314 9.58935C76.0314 9.69702 76.1869 9.86108 76.298 10.0815C76.4091 10.3003 76.4646 10.5771 76.4646 10.9121V13.4141H75.8596V10.9531C75.8596 10.6438 75.7793 10.4028 75.6187 10.2302C75.458 10.0559 75.2376 9.96875 74.9573 9.96875C74.7642 9.96875 74.5916 10.0106 74.4395 10.0944C74.2891 10.1781 74.1703 10.3003 74.0832 10.4609C73.996 10.6216 73.9524 10.8164 73.9524 11.0454ZM78.1751 8.16406V13.4141H77.5701V8.16406H78.1751ZM80.8828 13.4961C80.5273 13.4961 80.2154 13.4115 79.9471 13.2423C79.6805 13.0731 79.472 12.8364 79.3216 12.5322C79.1729 12.228 79.0986 11.8726 79.0986 11.4658C79.0986 11.0557 79.1729 10.6976 79.3216 10.3917C79.472 10.0858 79.6805 9.84826 79.9471 9.67907C80.2154 9.50988 80.5273 9.42529 80.8828 9.42529C81.2383 9.42529 81.5493 9.50988 81.8159 9.67907C82.0842 9.84826 82.2927 10.0858 82.4414 10.3917C82.5918 10.6976 82.667 11.0557 82.667 11.4658C82.667 11.8726 82.5918 12.228 82.4414 12.5322C82.2927 12.8364 82.0842 13.0731 81.8159 13.2423C81.5493 13.4115 81.2383 13.4961 80.8828 13.4961ZM80.8828 12.9526C81.1528 12.9526 81.375 12.8834 81.5493 12.745C81.7236 12.6066 81.8526 12.4246 81.9364 12.199C82.0201 11.9734 82.062 11.729 82.062 11.4658C82.062 11.2026 82.0201 10.9574 81.9364 10.7301C81.8526 10.5028 81.7236 10.3191 81.5493 10.179C81.375 10.0388 81.1528 9.96875 80.8828 9.96875C80.6128 9.96875 80.3906 10.0388 80.2163 10.179C80.042 10.3191 79.9129 10.5028 79.8292 10.7301C79.7455 10.9574 79.7036 11.2026 79.7036 11.4658C79.7036 11.729 79.7455 11.9734 79.8292 12.199C79.9129 12.4246 80.042 12.6066 80.2163 12.745C80.3906 12.8834 80.6128 12.9526 80.8828 12.9526ZM84.7492 13.5063C84.4996 13.5063 84.2732 13.4594 84.0698 13.3654C83.8665 13.2697 83.705 13.1321 83.5853 12.9526C83.4657 12.7715 83.4059 12.5527 83.4059 12.2964C83.4059 12.0708 83.4503 11.8879 83.5392 11.7478C83.6281 11.606 83.7468 11.4949 83.8955 11.4145C84.0442 11.3342 84.2083 11.2744 84.3877 11.2351C84.5689 11.1941 84.7509 11.1616 84.9337 11.1377C85.173 11.1069 85.367 11.0839 85.5156 11.0685C85.666 11.0514 85.7754 11.0232 85.8438 10.9839C85.9138 10.9446 85.9489 10.8762 85.9489 10.7788V10.7583C85.9489 10.5054 85.8796 10.3088 85.7412 10.1687C85.6045 10.0286 85.3969 9.95849 85.1183 9.95849C84.8295 9.95849 84.603 10.0217 84.439 10.1482C84.2749 10.2747 84.1596 10.4097 84.0929 10.5532L83.5187 10.3481C83.6212 10.1089 83.7579 9.9226 83.9288 9.7893C84.1014 9.65429 84.2894 9.5603 84.4928 9.50732C84.6979 9.45263 84.8995 9.42529 85.0978 9.42529C85.2243 9.42529 85.3695 9.44067 85.5336 9.47143C85.6993 9.50048 85.8591 9.56115 86.0129 9.65344C86.1685 9.74572 86.2975 9.88501 86.4 10.0713C86.5026 10.2576 86.5538 10.5071 86.5538 10.8198V13.4141H85.9489V12.8809H85.9181C85.8771 12.9663 85.8087 13.0577 85.713 13.1552C85.6173 13.2526 85.49 13.3354 85.3311 13.4038C85.1721 13.4722 84.9782 13.5063 84.7492 13.5063ZM84.8414 12.9629C85.0807 12.9629 85.2824 12.9159 85.4464 12.8219C85.6122 12.7279 85.7369 12.6066 85.8207 12.4579C85.9061 12.3092 85.9489 12.1528 85.9489 11.9888V11.4351C85.9232 11.4658 85.8668 11.494 85.7797 11.5197C85.6942 11.5436 85.5951 11.5649 85.4823 11.5837C85.3712 11.6008 85.2627 11.6162 85.1567 11.6299C85.0525 11.6418 84.9679 11.6521 84.903 11.6606C84.7457 11.6812 84.5988 11.7145 84.462 11.7606C84.327 11.8051 84.2177 11.8726 84.1339 11.9631C84.0519 12.052 84.0109 12.1733 84.0109 12.3271C84.0109 12.5374 84.0886 12.6963 84.2441 12.804C84.4014 12.9099 84.6005 12.9629 84.8414 12.9629ZM89.1449 13.4961C88.8168 13.4961 88.5271 13.4132 88.2759 13.2474C88.0246 13.08 87.8281 12.8441 87.6863 12.5399C87.5444 12.234 87.4735 11.8726 87.4735 11.4556C87.4735 11.042 87.5444 10.6831 87.6863 10.3789C87.8281 10.0747 88.0255 9.83972 88.2784 9.67395C88.5314 9.50817 88.8236 9.42529 89.1551 9.42529C89.4115 9.42529 89.614 9.46801 89.7627 9.55346C89.9131 9.6372 90.0276 9.73291 90.1062 9.84057C90.1865 9.94653 90.2489 10.0337 90.2933 10.102H90.3446V8.16406H90.9496V13.4141H90.3651V12.8091H90.2933C90.2489 12.8809 90.1857 12.9714 90.1036 13.0808C90.0216 13.1885 89.9045 13.285 89.7524 13.3705C89.6003 13.4542 89.3978 13.4961 89.1449 13.4961ZM89.2269 12.9526C89.4696 12.9526 89.6747 12.8894 89.8421 12.7629C90.0096 12.6348 90.1369 12.4579 90.2241 12.2323C90.3113 12.005 90.3548 11.7427 90.3548 11.4453C90.3548 11.1514 90.3121 10.8942 90.2267 10.6737C90.1412 10.4515 90.0148 10.2789 89.8473 10.1559C89.6798 10.0311 89.473 9.96875 89.2269 9.96875C88.9706 9.96875 88.7569 10.0345 88.586 10.1661C88.4169 10.296 88.2895 10.4729 88.2041 10.6968C88.1203 10.9189 88.0785 11.1685 88.0785 11.4453C88.0785 11.7256 88.1212 11.9802 88.2066 12.2092C88.2938 12.4365 88.422 12.6177 88.5912 12.7527C88.7621 12.886 88.974 12.9526 89.2269 12.9526ZM95.7715 13.4961C95.416 13.4961 95.1041 13.4115 94.8358 13.2423C94.5692 13.0731 94.3607 12.8364 94.2103 12.5322C94.0616 12.228 93.9873 11.8726 93.9873 11.4658C93.9873 11.0557 94.0616 10.6976 94.2103 10.3917C94.3607 10.0858 94.5692 9.84826 94.8358 9.67907C95.1041 9.50988 95.416 9.42529 95.7715 9.42529C96.1269 9.42529 96.438 9.50988 96.7046 9.67907C96.9729 9.84826 97.1814 10.0858 97.3301 10.3917C97.4805 10.6976 97.5557 11.0557 97.5557 11.4658C97.5557 11.8726 97.4805 12.228 97.3301 12.5322C97.1814 12.8364 96.9729 13.0731 96.7046 13.2423C96.438 13.4115 96.1269 13.4961 95.7715 13.4961ZM95.7715 12.9526C96.0415 12.9526 96.2637 12.8834 96.438 12.745C96.6123 12.6066 96.7413 12.4246 96.8251 12.199C96.9088 11.9734 96.9507 11.729 96.9507 11.4658C96.9507 11.2026 96.9088 10.9574 96.8251 10.7301C96.7413 10.5028 96.6123 10.3191 96.438 10.179C96.2637 10.0388 96.0415 9.96875 95.7715 9.96875C95.5015 9.96875 95.2793 10.0388 95.105 10.179C94.9307 10.3191 94.8016 10.5028 94.7179 10.7301C94.6341 10.9574 94.5923 11.2026 94.5923 11.4658C94.5923 11.729 94.6341 11.9734 94.7179 12.199C94.8016 12.4246 94.9307 12.6066 95.105 12.745C95.2793 12.8834 95.5015 12.9526 95.7715 12.9526ZM99.0841 11.0454V13.4141H98.4791V9.47656H99.0636V10.0918H99.1149C99.2072 9.89184 99.3473 9.7312 99.5353 9.60986C99.7233 9.48681 99.966 9.42529 100.263 9.42529C100.53 9.42529 100.763 9.47998 100.963 9.58935C101.163 9.69702 101.319 9.86108 101.43 10.0815C101.541 10.3003 101.596 10.5771 101.596 10.9121V13.4141H100.991V10.9531C100.991 10.6438 100.911 10.4028 100.75 10.2302C100.59 10.0559 100.369 9.96875 100.089 9.96875C99.8959 9.96875 99.7233 10.0106 99.5712 10.0944C99.4208 10.1781 99.302 10.3003 99.2149 10.4609C99.1277 10.6216 99.0841 10.8164 99.0841 11.0454ZM106.445 9.47656V9.98925H104.404V9.47656H106.445ZM104.999 8.5332H105.604V12.2861C105.604 12.457 105.628 12.5852 105.678 12.6707C105.729 12.7544 105.794 12.8108 105.873 12.8398C105.953 12.8672 106.038 12.8809 106.127 12.8809C106.193 12.8809 106.248 12.8774 106.291 12.8706C106.333 12.8621 106.368 12.8552 106.393 12.8501L106.516 13.3936C106.475 13.4089 106.418 13.4243 106.345 13.4397C106.271 13.4568 106.178 13.4653 106.065 13.4653C105.894 13.4653 105.727 13.4286 105.563 13.3551C105.4 13.2816 105.265 13.1697 105.158 13.0193C105.052 12.8689 104.999 12.6792 104.999 12.4502V8.5332ZM108.044 11.0454V13.4141H107.439V8.16406H108.044V10.0918H108.095C108.188 9.88842 108.326 9.72692 108.511 9.6073C108.697 9.48596 108.945 9.42529 109.254 9.42529C109.522 9.42529 109.757 9.47912 109.959 9.58679C110.161 9.69274 110.317 9.85595 110.428 10.0764C110.541 10.2952 110.597 10.5737 110.597 10.9121V13.4141H109.992V10.9531C109.992 10.6404 109.911 10.3986 109.749 10.2277C109.588 10.055 109.365 9.96875 109.08 9.96875C108.882 9.96875 108.704 10.0106 108.547 10.0944C108.391 10.1781 108.268 10.3003 108.177 10.4609C108.089 10.6216 108.044 10.8164 108.044 11.0454ZM113.355 13.4961C112.976 13.4961 112.648 13.4124 112.373 13.2449C112.1 13.0757 111.889 12.8398 111.74 12.5374C111.593 12.2332 111.52 11.8794 111.52 11.4761C111.52 11.0728 111.593 10.7173 111.74 10.4097C111.889 10.1003 112.095 9.85937 112.36 9.68676C112.627 9.51245 112.938 9.42529 113.293 9.42529C113.499 9.42529 113.701 9.45947 113.901 9.52783C114.101 9.59619 114.283 9.70727 114.447 9.86108C114.611 10.0132 114.742 10.2148 114.839 10.4661C114.937 10.7173 114.985 11.0266 114.985 11.394V11.6504H111.95V11.1274H114.37C114.37 10.9053 114.326 10.707 114.237 10.5327C114.15 10.3584 114.025 10.2208 113.863 10.12C113.702 10.0192 113.512 9.96875 113.293 9.96875C113.053 9.96875 112.844 10.0286 112.668 10.1482C112.494 10.2661 112.36 10.4199 112.266 10.6096C112.172 10.7993 112.125 11.0027 112.125 11.2197V11.5684C112.125 11.8657 112.176 12.1178 112.278 12.3246C112.383 12.5297 112.527 12.686 112.712 12.7937C112.896 12.8997 113.111 12.9526 113.355 12.9526C113.514 12.9526 113.658 12.9304 113.786 12.886C113.916 12.8398 114.028 12.7715 114.122 12.6809C114.215 12.5886 114.288 12.4741 114.339 12.3374L114.924 12.5015C114.862 12.6997 114.759 12.874 114.614 13.0244C114.468 13.1731 114.289 13.2893 114.075 13.373C113.862 13.4551 113.622 13.4961 113.355 13.4961Z" fill="#292929"/>
<path d="M58.5854 37.3633H56.8089L60.0434 28.1758H62.098L65.337 37.3633H63.5605L61.1066 30.0599H61.0348L58.5854 37.3633ZM58.6437 33.761H63.4887V35.0978H58.6437V33.761ZM66.4753 39.9473V30.4726H68.0724V31.6121H68.1666C68.2503 31.4446 68.3684 31.2667 68.521 31.0783C68.6735 30.8869 68.8799 30.7239 69.1401 30.5893C69.4002 30.4517 69.7322 30.3829 70.136 30.3829C70.6683 30.3829 71.1483 30.519 71.576 30.7912C72.0067 31.0603 72.3476 31.4596 72.5988 31.9889C72.853 32.5153 72.9801 33.1613 72.9801 33.9269C72.9801 34.6836 72.856 35.3266 72.6078 35.856C72.3596 36.3853 72.0216 36.7891 71.5939 37.0672C71.1663 37.3453 70.6818 37.4844 70.1405 37.4844C69.7457 37.4844 69.4182 37.4186 69.158 37.287C68.8978 37.1554 68.6885 36.9969 68.5299 36.8115C68.3744 36.6231 68.2533 36.4451 68.1666 36.2776H68.0993V39.9473H66.4753ZM68.0679 33.918C68.0679 34.3636 68.1307 34.7539 68.2563 35.0888C68.3849 35.4238 68.5688 35.6855 68.8081 35.8739C69.0503 36.0593 69.3434 36.152 69.6874 36.152C70.0462 36.152 70.3468 36.0563 70.5891 35.8649C70.8313 35.6705 71.0137 35.4059 71.1364 35.0709C71.262 34.7329 71.3248 34.3486 71.3248 33.918C71.3248 33.4903 71.2635 33.1105 71.1408 32.7785C71.0182 32.4465 70.8358 32.1863 70.5935 31.9979C70.3513 31.8095 70.0492 31.7153 69.6874 31.7153C69.3404 31.7153 69.0458 31.8065 68.8036 31.9889C68.5613 32.1714 68.3774 32.4271 68.2518 32.7561C68.1292 33.085 68.0679 33.4723 68.0679 33.918ZM74.3708 39.9473V30.4726H75.9679V31.6121H76.0621C76.1458 31.4446 76.264 31.2667 76.4165 31.0783C76.569 30.8869 76.7754 30.7239 77.0356 30.5893C77.2958 30.4517 77.6277 30.3829 78.0315 30.3829C78.5638 30.3829 79.0438 30.519 79.4715 30.7912C79.9022 31.0603 80.2431 31.4596 80.4943 31.9889C80.7486 32.5153 80.8757 33.1613 80.8757 33.9269C80.8757 34.6836 80.7515 35.3266 80.5033 35.856C80.2551 36.3853 79.9171 36.7891 79.4895 37.0672C79.0618 37.3453 78.5773 37.4844 78.036 37.4844C77.6412 37.4844 77.3137 37.4186 77.0535 37.287C76.7933 37.1554 76.584 36.9969 76.4255 36.8115C76.2699 36.6231 76.1488 36.4451 76.0621 36.2776H75.9948V39.9473H74.3708ZM75.9634 33.918C75.9634 34.3636 76.0262 34.7539 76.1518 35.0888C76.2804 35.4238 76.4643 35.6855 76.7036 35.8739C76.9458 36.0593 77.2389 36.152 77.5829 36.152C77.9418 36.152 78.2423 36.0563 78.4846 35.8649C78.7268 35.6705 78.9093 35.4059 79.0319 35.0709C79.1575 34.7329 79.2203 34.3486 79.2203 33.918C79.2203 33.4903 79.159 33.1105 79.0364 32.7785C78.9137 32.4465 78.7313 32.1863 78.4891 31.9979C78.2468 31.8095 77.9447 31.7153 77.5829 31.7153C77.2359 31.7153 76.9414 31.8065 76.6991 31.9889C76.4569 32.1714 76.2729 32.4271 76.1473 32.7561C76.0247 33.085 75.9634 33.4723 75.9634 33.918ZM90.4647 30.7014C90.4228 30.3097 90.2464 30.0046 89.9353 29.7863C89.6273 29.568 89.2265 29.4588 88.733 29.4588C88.3861 29.4588 88.0885 29.5111 87.8403 29.6158C87.5921 29.7205 87.4022 29.8625 87.2706 30.042C87.139 30.2214 87.0717 30.4263 87.0687 30.6566C87.0687 30.848 87.1121 31.014 87.1988 31.1545C87.2885 31.2951 87.4097 31.4147 87.5622 31.5134C87.7147 31.6091 87.8837 31.6899 88.0691 31.7557C88.2545 31.8215 88.4415 31.8768 88.6299 31.9217L89.4912 32.137C89.8381 32.2177 90.1716 32.3269 90.4916 32.4645C90.8146 32.602 91.1032 32.7755 91.3574 32.9849C91.6146 33.1942 91.818 33.4469 91.9675 33.743C92.1171 34.0391 92.1918 34.386 92.1918 34.7838C92.1918 35.3221 92.0542 35.7961 91.7791 36.2059C91.504 36.6126 91.1062 36.9311 90.5858 37.1614C90.0684 37.3887 89.4418 37.5024 88.7061 37.5024C87.9913 37.5024 87.3708 37.3917 86.8444 37.1704C86.321 36.9491 85.9113 36.6261 85.6152 36.2014C85.3221 35.7767 85.1636 35.2593 85.1397 34.6492H86.7771C86.801 34.9692 86.8997 35.2354 87.0732 35.4477C87.2467 35.6601 87.4725 35.8186 87.7506 35.9232C88.0317 36.0279 88.3457 36.0803 88.6927 36.0803C89.0545 36.0803 89.3716 36.0264 89.6437 35.9188C89.9189 35.8081 90.1342 35.6556 90.2897 35.4612C90.4452 35.2638 90.5245 35.0335 90.5275 34.7703C90.5245 34.5311 90.4542 34.3337 90.3166 34.1782C90.1791 34.0196 89.9862 33.8881 89.7379 33.7834C89.4927 33.6757 89.2056 33.58 88.8766 33.4963L87.8313 33.2271C87.0747 33.0327 86.4765 32.7381 86.0369 32.3433C85.6003 31.9456 85.3819 31.4177 85.3819 30.7598C85.3819 30.2184 85.5285 29.7444 85.8216 29.3377C86.1177 28.9309 86.5199 28.6154 87.0283 28.3911C87.5368 28.1638 88.1125 28.0502 88.7555 28.0502C89.4075 28.0502 89.9787 28.1638 90.4692 28.3911C90.9626 28.6154 91.3499 28.9279 91.6311 29.3287C91.9122 29.7265 92.0572 30.184 92.0662 30.7014H90.4647ZM97.0446 30.4726V31.7288H93.0834V30.4726H97.0446ZM94.0614 28.8218H95.6854V35.2907C95.6854 35.509 95.7183 35.6765 95.7841 35.7932C95.8528 35.9068 95.9426 35.9846 96.0532 36.0264C96.1639 36.0683 96.2865 36.0892 96.4211 36.0892C96.5228 36.0892 96.6155 36.0818 96.6992 36.0668C96.786 36.0518 96.8517 36.0384 96.8966 36.0264L97.1703 37.296C97.0835 37.3259 96.9594 37.3588 96.7979 37.3947C96.6394 37.4306 96.445 37.4515 96.2147 37.4575C95.808 37.4695 95.4416 37.4081 95.1156 37.2736C94.7896 37.136 94.5309 36.9236 94.3395 36.6365C94.1511 36.3494 94.0584 35.9905 94.0614 35.5599V28.8218ZM101.334 37.4979C100.662 37.4979 100.078 37.3498 99.5849 37.0537C99.0914 36.7577 98.7086 36.3434 98.4365 35.8111C98.1673 35.2787 98.0327 34.6567 98.0327 33.9449C98.0327 33.2331 98.1673 32.6095 98.4365 32.0742C98.7086 31.5388 99.0914 31.1231 99.5849 30.827C100.078 30.531 100.662 30.3829 101.334 30.3829C102.007 30.3829 102.591 30.531 103.084 30.827C103.578 31.1231 103.959 31.5388 104.228 32.0742C104.5 32.6095 104.636 33.2331 104.636 33.9449C104.636 34.6567 104.5 35.2787 104.228 35.8111C103.959 36.3434 103.578 36.7577 103.084 37.0537C102.591 37.3498 102.007 37.4979 101.334 37.4979ZM101.343 36.1969C101.708 36.1969 102.013 36.0967 102.259 35.8963C102.504 35.693 102.686 35.4208 102.806 35.0799C102.929 34.7389 102.99 34.3591 102.99 33.9404C102.99 33.5187 102.929 33.1374 102.806 32.7964C102.686 32.4525 102.504 32.1789 102.259 31.9755C102.013 31.7721 101.708 31.6704 101.343 31.6704C100.97 31.6704 100.659 31.7721 100.41 31.9755C100.165 32.1789 99.9812 32.4525 99.8585 32.7964C99.7389 33.1374 99.6791 33.5187 99.6791 33.9404C99.6791 34.3591 99.7389 34.7389 99.8585 35.0799C99.9812 35.4208 100.165 35.693 100.41 35.8963C100.659 36.0967 100.97 36.1969 101.343 36.1969ZM106.015 37.3633V30.4726H107.589V31.6211H107.661C107.787 31.2233 108.002 30.9168 108.307 30.7014C108.615 30.4831 108.966 30.374 109.361 30.374C109.451 30.374 109.551 30.3784 109.662 30.3874C109.775 30.3934 109.87 30.4039 109.944 30.4188V31.9127C109.876 31.8888 109.766 31.8678 109.617 31.8499C109.47 31.8289 109.328 31.8185 109.191 31.8185C108.895 31.8185 108.628 31.8828 108.392 32.0114C108.159 32.137 107.975 32.3119 107.84 32.5362C107.706 32.7606 107.639 33.0193 107.639 33.3123V37.3633H106.015ZM113.79 37.4979C113.099 37.4979 112.503 37.3543 112 37.0672C111.501 36.7771 111.116 36.3674 110.847 35.838C110.578 35.3057 110.443 34.6791 110.443 33.9583C110.443 33.2495 110.578 32.6275 110.847 32.0921C111.119 31.5538 111.499 31.1351 111.987 30.836C112.474 30.534 113.047 30.3829 113.705 30.3829C114.13 30.3829 114.53 30.4517 114.907 30.5893C115.287 30.7239 115.622 30.9332 115.912 31.2173C116.205 31.5015 116.435 31.8633 116.603 32.303C116.77 32.7396 116.854 33.26 116.854 33.8641V34.3621H111.206V33.2675H115.297C115.294 32.9564 115.227 32.6798 115.096 32.4376C114.964 32.1923 114.78 31.9994 114.544 31.8588C114.31 31.7183 114.038 31.648 113.727 31.648C113.395 31.648 113.104 31.7288 112.853 31.8903C112.601 32.0488 112.405 32.2581 112.265 32.5183C112.127 32.7755 112.057 33.0581 112.054 33.3662V34.3217C112.054 34.7225 112.127 35.0664 112.274 35.3535C112.42 35.6376 112.625 35.856 112.888 36.0085C113.152 36.158 113.46 36.2328 113.813 36.2328C114.049 36.2328 114.263 36.1999 114.454 36.1341C114.645 36.0653 114.811 35.9651 114.952 35.8335C115.093 35.7019 115.199 35.5389 115.271 35.3445L116.787 35.515C116.691 35.9158 116.509 36.2657 116.24 36.5648C115.973 36.8608 115.632 37.0911 115.217 37.2556C114.801 37.4171 114.325 37.4979 113.79 37.4979Z" fill="#292929"/>
<rect x="160.486" y="0.548828" width="148.189" height="46.0196" stroke="#292929" stroke-width="0.902345"/>
<path d="M219.76 13.4141H218.14V8.16406H219.831C220.341 8.16406 220.777 8.26916 221.139 8.47936C221.501 8.68786 221.779 8.98779 221.972 9.37915C222.165 9.76879 222.262 10.2353 222.262 10.7788C222.262 11.3257 222.164 11.7965 221.969 12.1913C221.775 12.5843 221.491 12.8868 221.118 13.0988C220.746 13.309 220.293 13.4141 219.76 13.4141ZM218.775 12.8501H219.719C220.153 12.8501 220.512 12.7664 220.798 12.5989C221.083 12.4314 221.296 12.193 221.436 11.8837C221.576 11.5743 221.646 11.2061 221.646 10.7788C221.646 10.355 221.577 9.99011 221.439 9.6842C221.3 9.37658 221.094 9.14074 220.818 8.97668C220.543 8.81091 220.201 8.72802 219.79 8.72802H218.775V12.8501ZM224.846 13.4961C224.49 13.4961 224.178 13.4115 223.91 13.2423C223.643 13.0731 223.435 12.8364 223.284 12.5322C223.136 12.228 223.061 11.8726 223.061 11.4658C223.061 11.0557 223.136 10.6976 223.284 10.3917C223.435 10.0858 223.643 9.84826 223.91 9.67907C224.178 9.50988 224.49 9.42529 224.846 9.42529C225.201 9.42529 225.512 9.50988 225.779 9.67907C226.047 9.84826 226.256 10.0858 226.404 10.3917C226.555 10.6976 226.63 11.0557 226.63 11.4658C226.63 11.8726 226.555 12.228 226.404 12.5322C226.256 12.8364 226.047 13.0731 225.779 13.2423C225.512 13.4115 225.201 13.4961 224.846 13.4961ZM224.846 12.9526C225.116 12.9526 225.338 12.8834 225.512 12.745C225.686 12.6066 225.815 12.4246 225.899 12.199C225.983 11.9734 226.025 11.729 226.025 11.4658C226.025 11.2026 225.983 10.9574 225.899 10.7301C225.815 10.5028 225.686 10.3191 225.512 10.179C225.338 10.0388 225.116 9.96875 224.846 9.96875C224.576 9.96875 224.353 10.0388 224.179 10.179C224.005 10.3191 223.876 10.5028 223.792 10.7301C223.708 10.9574 223.666 11.2026 223.666 11.4658C223.666 11.729 223.708 11.9734 223.792 12.199C223.876 12.4246 224.005 12.6066 224.179 12.745C224.353 12.8834 224.576 12.9526 224.846 12.9526ZM228.311 13.4141L227.112 9.47656H227.747L228.599 12.4912H228.64L229.48 9.47656H230.126L230.957 12.481H230.998L231.849 9.47656H232.485L231.285 13.4141H230.69L229.829 10.3892H229.768L228.906 13.4141H228.311ZM233.89 11.0454V13.4141H233.285V9.47656H233.869V10.0918H233.92C234.013 9.89184 234.153 9.7312 234.341 9.60986C234.529 9.48681 234.771 9.42529 235.069 9.42529C235.335 9.42529 235.569 9.47998 235.769 9.58935C235.969 9.69702 236.124 9.86108 236.235 10.0815C236.346 10.3003 236.402 10.5771 236.402 10.9121V13.4141H235.797V10.9531C235.797 10.6438 235.716 10.4028 235.556 10.2302C235.395 10.0559 235.175 9.96875 234.894 9.96875C234.701 9.96875 234.529 10.0106 234.377 10.0944C234.226 10.1781 234.107 10.3003 234.02 10.4609C233.933 10.6216 233.89 10.8164 233.89 11.0454ZM238.112 8.16406V13.4141H237.507V8.16406H238.112ZM240.82 13.4961C240.464 13.4961 240.153 13.4115 239.884 13.2423C239.618 13.0731 239.409 12.8364 239.259 12.5322C239.11 12.228 239.036 11.8726 239.036 11.4658C239.036 11.0557 239.11 10.6976 239.259 10.3917C239.409 10.0858 239.618 9.84826 239.884 9.67907C240.153 9.50988 240.464 9.42529 240.82 9.42529C241.175 9.42529 241.486 9.50988 241.753 9.67907C242.021 9.84826 242.23 10.0858 242.379 10.3917C242.529 10.6976 242.604 11.0557 242.604 11.4658C242.604 11.8726 242.529 12.228 242.379 12.5322C242.23 12.8364 242.021 13.0731 241.753 13.2423C241.486 13.4115 241.175 13.4961 240.82 13.4961ZM240.82 12.9526C241.09 12.9526 241.312 12.8834 241.486 12.745C241.661 12.6066 241.79 12.4246 241.874 12.199C241.957 11.9734 241.999 11.729 241.999 11.4658C241.999 11.2026 241.957 10.9574 241.874 10.7301C241.79 10.5028 241.661 10.3191 241.486 10.179C241.312 10.0388 241.09 9.96875 240.82 9.96875C240.55 9.96875 240.328 10.0388 240.153 10.179C239.979 10.3191 239.85 10.5028 239.766 10.7301C239.683 10.9574 239.641 11.2026 239.641 11.4658C239.641 11.729 239.683 11.9734 239.766 12.199C239.85 12.4246 239.979 12.6066 240.153 12.745C240.328 12.8834 240.55 12.9526 240.82 12.9526ZM244.686 13.5063C244.437 13.5063 244.21 13.4594 244.007 13.3654C243.804 13.2697 243.642 13.1321 243.522 12.9526C243.403 12.7715 243.343 12.5527 243.343 12.2964C243.343 12.0708 243.387 11.8879 243.476 11.7478C243.565 11.606 243.684 11.4949 243.833 11.4145C243.981 11.3342 244.145 11.2744 244.325 11.2351C244.506 11.1941 244.688 11.1616 244.871 11.1377C245.11 11.1069 245.304 11.0839 245.453 11.0685C245.603 11.0514 245.713 11.0232 245.781 10.9839C245.851 10.9446 245.886 10.8762 245.886 10.7788V10.7583C245.886 10.5054 245.817 10.3088 245.678 10.1687C245.542 10.0286 245.334 9.95849 245.055 9.95849C244.767 9.95849 244.54 10.0217 244.376 10.1482C244.212 10.2747 244.097 10.4097 244.03 10.5532L243.456 10.3481C243.558 10.1089 243.695 9.9226 243.866 9.7893C244.039 9.65429 244.227 9.5603 244.43 9.50732C244.635 9.45263 244.837 9.42529 245.035 9.42529C245.161 9.42529 245.307 9.44067 245.471 9.47143C245.637 9.50048 245.796 9.56115 245.95 9.65344C246.106 9.74572 246.235 9.88501 246.337 10.0713C246.44 10.2576 246.491 10.5071 246.491 10.8198V13.4141H245.886V12.8809H245.855C245.814 12.9663 245.746 13.0577 245.65 13.1552C245.554 13.2526 245.427 13.3354 245.268 13.4038C245.109 13.4722 244.915 13.5063 244.686 13.5063ZM244.779 12.9629C245.018 12.9629 245.22 12.9159 245.384 12.8219C245.549 12.7279 245.674 12.6066 245.758 12.4579C245.843 12.3092 245.886 12.1528 245.886 11.9888V11.4351C245.86 11.4658 245.804 11.494 245.717 11.5197C245.631 11.5436 245.532 11.5649 245.419 11.5837C245.308 11.6008 245.2 11.6162 245.094 11.6299C244.99 11.6418 244.905 11.6521 244.84 11.6606C244.683 11.6812 244.536 11.7145 244.399 11.7606C244.264 11.8051 244.155 11.8726 244.071 11.9631C243.989 12.052 243.948 12.1733 243.948 12.3271C243.948 12.5374 244.026 12.6963 244.181 12.804C244.339 12.9099 244.538 12.9629 244.779 12.9629ZM249.082 13.4961C248.754 13.4961 248.464 13.4132 248.213 13.2474C247.962 13.08 247.765 12.8441 247.623 12.5399C247.482 12.234 247.411 11.8726 247.411 11.4556C247.411 11.042 247.482 10.6831 247.623 10.3789C247.765 10.0747 247.963 9.83972 248.216 9.67395C248.469 9.50817 248.761 9.42529 249.092 9.42529C249.349 9.42529 249.551 9.46801 249.7 9.55346C249.85 9.6372 249.965 9.73291 250.043 9.84057C250.124 9.94653 250.186 10.0337 250.23 10.102H250.282V8.16406H250.887V13.4141H250.302V12.8091H250.23C250.186 12.8809 250.123 12.9714 250.041 13.0808C249.959 13.1885 249.842 13.285 249.69 13.3705C249.537 13.4542 249.335 13.4961 249.082 13.4961ZM249.164 12.9526C249.407 12.9526 249.612 12.8894 249.779 12.7629C249.947 12.6348 250.074 12.4579 250.161 12.2323C250.248 12.005 250.292 11.7427 250.292 11.4453C250.292 11.1514 250.249 10.8942 250.164 10.6737C250.078 10.4515 249.952 10.2789 249.784 10.1559C249.617 10.0311 249.41 9.96875 249.164 9.96875C248.908 9.96875 248.694 10.0345 248.523 10.1661C248.354 10.296 248.227 10.4729 248.141 10.6968C248.058 10.9189 248.016 11.1685 248.016 11.4453C248.016 11.7256 248.058 11.9802 248.144 12.2092C248.231 12.4365 248.359 12.6177 248.528 12.7527C248.699 12.886 248.911 12.9526 249.164 12.9526ZM255.709 13.4961C255.353 13.4961 255.041 13.4115 254.773 13.2423C254.506 13.0731 254.298 12.8364 254.147 12.5322C253.999 12.228 253.924 11.8726 253.924 11.4658C253.924 11.0557 253.999 10.6976 254.147 10.3917C254.298 10.0858 254.506 9.84826 254.773 9.67907C255.041 9.50988 255.353 9.42529 255.709 9.42529C256.064 9.42529 256.375 9.50988 256.642 9.67907C256.91 9.84826 257.119 10.0858 257.267 10.3917C257.418 10.6976 257.493 11.0557 257.493 11.4658C257.493 11.8726 257.418 12.228 257.267 12.5322C257.119 12.8364 256.91 13.0731 256.642 13.2423C256.375 13.4115 256.064 13.4961 255.709 13.4961ZM255.709 12.9526C255.979 12.9526 256.201 12.8834 256.375 12.745C256.549 12.6066 256.678 12.4246 256.762 12.199C256.846 11.9734 256.888 11.729 256.888 11.4658C256.888 11.2026 256.846 10.9574 256.762 10.7301C256.678 10.5028 256.549 10.3191 256.375 10.179C256.201 10.0388 255.979 9.96875 255.709 9.96875C255.439 9.96875 255.216 10.0388 255.042 10.179C254.868 10.3191 254.739 10.5028 254.655 10.7301C254.571 10.9574 254.529 11.2026 254.529 11.4658C254.529 11.729 254.571 11.9734 254.655 12.199C254.739 12.4246 254.868 12.6066 255.042 12.745C255.216 12.8834 255.439 12.9526 255.709 12.9526ZM259.021 11.0454V13.4141H258.416V9.47656H259.001V10.0918H259.052C259.144 9.89184 259.284 9.7312 259.472 9.60986C259.66 9.48681 259.903 9.42529 260.2 9.42529C260.467 9.42529 260.7 9.47998 260.9 9.58935C261.1 9.69702 261.256 9.86108 261.367 10.0815C261.478 10.3003 261.533 10.5771 261.533 10.9121V13.4141H260.929V10.9531C260.929 10.6438 260.848 10.4028 260.688 10.2302C260.527 10.0559 260.306 9.96875 260.026 9.96875C259.833 9.96875 259.66 10.0106 259.508 10.0944C259.358 10.1781 259.239 10.3003 259.152 10.4609C259.065 10.6216 259.021 10.8164 259.021 11.0454ZM266.382 9.47656V9.98925H264.341V9.47656H266.382ZM264.936 8.5332H265.541V12.2861C265.541 12.457 265.566 12.5852 265.615 12.6707C265.666 12.7544 265.731 12.8108 265.81 12.8398C265.89 12.8672 265.975 12.8809 266.064 12.8809C266.13 12.8809 266.185 12.8774 266.228 12.8706C266.271 12.8621 266.305 12.8552 266.33 12.8501L266.453 13.3936C266.412 13.4089 266.355 13.4243 266.282 13.4397C266.208 13.4568 266.115 13.4653 266.002 13.4653C265.831 13.4653 265.664 13.4286 265.5 13.3551C265.337 13.2816 265.202 13.1697 265.095 13.0193C264.989 12.8689 264.936 12.6792 264.936 12.4502V8.5332ZM267.981 11.0454V13.4141H267.376V8.16406H267.981V10.0918H268.033C268.125 9.88842 268.263 9.72692 268.448 9.6073C268.634 9.48596 268.882 9.42529 269.191 9.42529C269.46 9.42529 269.695 9.47912 269.896 9.58679C270.098 9.69274 270.254 9.85595 270.365 10.0764C270.478 10.2952 270.535 10.5737 270.535 10.9121V13.4141H269.93V10.9531C269.93 10.6404 269.848 10.3986 269.686 10.2277C269.525 10.055 269.302 9.96875 269.017 9.96875C268.819 9.96875 268.641 10.0106 268.484 10.0944C268.328 10.1781 268.205 10.3003 268.115 10.4609C268.026 10.6216 267.981 10.8164 267.981 11.0454ZM273.292 13.4961C272.913 13.4961 272.586 13.4124 272.31 13.2449C272.037 13.0757 271.826 12.8398 271.677 12.5374C271.53 12.2332 271.457 11.8794 271.457 11.4761C271.457 11.0728 271.53 10.7173 271.677 10.4097C271.826 10.1003 272.033 9.85937 272.298 9.68676C272.564 9.51245 272.875 9.42529 273.231 9.42529C273.436 9.42529 273.638 9.45947 273.838 9.52783C274.038 9.59619 274.22 9.70727 274.384 9.86108C274.548 10.0132 274.679 10.2148 274.776 10.4661C274.874 10.7173 274.923 11.0266 274.923 11.394V11.6504H271.887V11.1274H274.307C274.307 10.9053 274.263 10.707 274.174 10.5327C274.087 10.3584 273.962 10.2208 273.8 10.12C273.639 10.0192 273.449 9.96875 273.231 9.96875C272.99 9.96875 272.781 10.0286 272.605 10.1482C272.431 10.2661 272.297 10.4199 272.203 10.6096C272.109 10.7993 272.062 11.0027 272.062 11.2197V11.5684C272.062 11.8657 272.113 12.1178 272.216 12.3246C272.32 12.5297 272.464 12.686 272.649 12.7937C272.833 12.8997 273.048 12.9526 273.292 12.9526C273.451 12.9526 273.595 12.9304 273.723 12.886C273.853 12.8398 273.965 12.7715 274.059 12.6809C274.153 12.5886 274.225 12.4741 274.277 12.3374L274.861 12.5015C274.8 12.6997 274.696 12.874 274.551 13.0244C274.406 13.1731 274.226 13.2893 274.013 13.373C273.799 13.4551 273.559 13.4961 273.292 13.4961Z" fill="#292929"/>
<path d="M223.498 31.1097C223.423 30.8674 223.32 30.6506 223.188 30.4592C223.059 30.2648 222.904 30.0988 222.722 29.9612C222.542 29.8237 222.336 29.7205 222.102 29.6517C221.869 29.5799 221.615 29.544 221.34 29.544C220.846 29.544 220.407 29.6681 220.021 29.9164C219.635 30.1646 219.332 30.5295 219.11 31.011C218.892 31.4895 218.783 32.0727 218.783 32.7606C218.783 33.4544 218.892 34.0421 219.11 34.5236C219.329 35.0051 219.632 35.3715 220.021 35.6227C220.41 35.8709 220.861 35.995 221.376 35.995C221.842 35.995 222.246 35.9053 222.587 35.7259C222.931 35.5464 223.196 35.2922 223.381 34.9632C223.566 34.6313 223.659 34.2425 223.659 33.7968L224.036 33.8552H221.542V32.5542H225.27V33.6578C225.27 34.4443 225.102 35.1247 224.767 35.6989C224.432 36.2732 223.972 36.7158 223.385 37.0268C222.799 37.3349 222.126 37.4889 221.367 37.4889C220.52 37.4889 219.777 37.299 219.137 36.9192C218.5 36.5363 218.002 35.9935 217.643 35.2907C217.287 34.5849 217.109 33.7475 217.109 32.7785C217.109 32.0368 217.214 31.3744 217.423 30.7912C217.636 30.208 217.932 29.713 218.312 29.3063C218.692 28.8965 219.137 28.5855 219.649 28.3732C220.16 28.1578 220.716 28.0502 221.317 28.0502C221.826 28.0502 222.3 28.1249 222.739 28.2745C223.179 28.421 223.569 28.6304 223.91 28.9025C224.254 29.1747 224.537 29.4977 224.758 29.8715C224.98 30.2454 225.125 30.6581 225.193 31.1097H223.498ZM229.813 37.4979C229.14 37.4979 228.557 37.3498 228.063 37.0537C227.57 36.7577 227.187 36.3434 226.915 35.8111C226.646 35.2787 226.511 34.6567 226.511 33.9449C226.511 33.2331 226.646 32.6095 226.915 32.0742C227.187 31.5388 227.57 31.1231 228.063 30.827C228.557 30.531 229.14 30.3829 229.813 30.3829C230.486 30.3829 231.069 30.531 231.562 30.827C232.056 31.1231 232.437 31.5388 232.706 32.0742C232.979 32.6095 233.115 33.2331 233.115 33.9449C233.115 34.6567 232.979 35.2787 232.706 35.8111C232.437 36.3434 232.056 36.7577 231.562 37.0537C231.069 37.3498 230.486 37.4979 229.813 37.4979ZM229.822 36.1969C230.187 36.1969 230.492 36.0967 230.737 35.8963C230.982 35.693 231.165 35.4208 231.284 35.0799C231.407 34.7389 231.468 34.3591 231.468 33.9404C231.468 33.5187 231.407 33.1374 231.284 32.7964C231.165 32.4525 230.982 32.1789 230.737 31.9755C230.492 31.7721 230.187 31.6704 229.822 31.6704C229.448 31.6704 229.137 31.7721 228.889 31.9755C228.644 32.1789 228.46 32.4525 228.337 32.7964C228.217 33.1374 228.158 33.5187 228.158 33.9404C228.158 34.3591 228.217 34.7389 228.337 35.0799C228.46 35.4208 228.644 35.693 228.889 35.8963C229.137 36.0967 229.448 36.1969 229.822 36.1969ZM237.499 37.4979C236.826 37.4979 236.243 37.3498 235.749 37.0537C235.256 36.7577 234.873 36.3434 234.601 35.8111C234.332 35.2787 234.197 34.6567 234.197 33.9449C234.197 33.2331 234.332 32.6095 234.601 32.0742C234.873 31.5388 235.256 31.1231 235.749 30.827C236.243 30.531 236.826 30.3829 237.499 30.3829C238.172 30.3829 238.755 30.531 239.248 30.827C239.742 31.1231 240.123 31.5388 240.392 32.0742C240.664 32.6095 240.8 33.2331 240.8 33.9449C240.8 34.6567 240.664 35.2787 240.392 35.8111C240.123 36.3434 239.742 36.7577 239.248 37.0537C238.755 37.3498 238.172 37.4979 237.499 37.4979ZM237.508 36.1969C237.873 36.1969 238.178 36.0967 238.423 35.8963C238.668 35.693 238.851 35.4208 238.97 35.0799C239.093 34.7389 239.154 34.3591 239.154 33.9404C239.154 33.5187 239.093 33.1374 238.97 32.7964C238.851 32.4525 238.668 32.1789 238.423 31.9755C238.178 31.7721 237.873 31.6704 237.508 31.6704C237.134 31.6704 236.823 31.7721 236.575 31.9755C236.329 32.1789 236.145 32.4525 236.023 32.7964C235.903 33.1374 235.843 33.5187 235.843 33.9404C235.843 34.3591 235.903 34.7389 236.023 35.0799C236.145 35.4208 236.329 35.693 236.575 35.8963C236.823 36.0967 237.134 36.1969 237.508 36.1969ZM245.176 40.0908C244.592 40.0908 244.091 40.0116 243.673 39.8531C243.254 39.6975 242.918 39.4882 242.663 39.225C242.409 38.9618 242.233 38.6702 242.134 38.3502L243.596 37.9958C243.662 38.1304 243.758 38.2635 243.884 38.3951C244.009 38.5297 244.178 38.6403 244.39 38.7271C244.606 38.8168 244.876 38.8616 245.202 38.8616C245.663 38.8616 246.044 38.7495 246.346 38.5252C246.648 38.3039 246.799 37.939 246.799 37.4306V36.1251H246.719C246.635 36.2926 246.512 36.4646 246.351 36.641C246.192 36.8175 245.982 36.9655 245.718 37.0851C245.458 37.2048 245.131 37.2646 244.736 37.2646C244.207 37.2646 243.727 37.1405 243.296 36.8922C242.868 36.641 242.527 36.2672 242.273 35.7707C242.022 35.2713 241.896 34.6462 241.896 33.8955C241.896 33.1389 242.022 32.5004 242.273 31.98C242.527 31.4566 242.87 31.0603 243.3 30.7912C243.731 30.519 244.211 30.3829 244.74 30.3829C245.144 30.3829 245.476 30.4517 245.736 30.5893C245.999 30.7239 246.209 30.8869 246.364 31.0783C246.52 31.2667 246.638 31.4446 246.719 31.6121H246.808V30.4726H248.41V37.4754C248.41 38.0646 248.269 38.5521 247.988 38.9379C247.707 39.3237 247.323 39.6123 246.835 39.8037C246.348 39.9951 245.795 40.0908 245.176 40.0908ZM245.189 35.9905C245.533 35.9905 245.826 35.9068 246.068 35.7393C246.311 35.5718 246.494 35.3311 246.62 35.0171C246.746 34.703 246.808 34.3262 246.808 33.8866C246.808 33.4529 246.746 33.0731 246.62 32.7471C246.497 32.4211 246.315 32.1684 246.073 31.9889C245.833 31.8065 245.539 31.7153 245.189 31.7153C244.827 31.7153 244.525 31.8095 244.283 31.9979C244.041 32.1863 243.858 32.445 243.735 32.774C243.613 33.1 243.552 33.4709 243.552 33.8866C243.552 34.3083 243.613 34.6776 243.735 34.9946C243.861 35.3087 244.045 35.5539 244.287 35.7303C244.533 35.9038 244.833 35.9905 245.189 35.9905ZM251.698 28.1758V37.3633H250.074V28.1758H251.698ZM256.419 37.4979C255.728 37.4979 255.131 37.3543 254.629 37.0672C254.129 36.7771 253.745 36.3674 253.476 35.838C253.207 35.3057 253.072 34.6791 253.072 33.9583C253.072 33.2495 253.207 32.6275 253.476 32.0921C253.748 31.5538 254.128 31.1351 254.615 30.836C255.103 30.534 255.676 30.3829 256.334 30.3829C256.758 30.3829 257.159 30.4517 257.536 30.5893C257.916 30.7239 258.251 30.9332 258.541 31.2173C258.834 31.5015 259.064 31.8633 259.232 32.303C259.399 32.7396 259.483 33.26 259.483 33.8641V34.3621H253.835V33.2675H257.926C257.923 32.9564 257.856 32.6798 257.724 32.4376C257.593 32.1923 257.409 31.9994 257.172 31.8588C256.939 31.7183 256.667 31.648 256.356 31.648C256.024 31.648 255.732 31.7288 255.481 31.8903C255.23 32.0488 255.034 32.2581 254.894 32.5183C254.756 32.7755 254.686 33.0581 254.683 33.3662V34.3217C254.683 34.7225 254.756 35.0664 254.902 35.3535C255.049 35.6376 255.254 35.856 255.517 36.0085C255.78 36.158 256.088 36.2328 256.441 36.2328C256.677 36.2328 256.891 36.1999 257.083 36.1341C257.274 36.0653 257.44 35.9651 257.581 35.8335C257.721 35.7019 257.827 35.5389 257.899 35.3445L259.416 35.515C259.32 35.9158 259.137 36.2657 258.868 36.5648C258.602 36.8608 258.261 37.0911 257.845 37.2556C257.43 37.4171 256.954 37.4979 256.419 37.4979ZM264.062 37.3633V28.1758H267.507C268.213 28.1758 268.805 28.3074 269.284 28.5705C269.765 28.8337 270.129 29.1956 270.374 29.6562C270.622 30.1138 270.746 30.6341 270.746 31.2173C270.746 31.8065 270.622 32.3299 270.374 32.7875C270.126 33.2451 269.759 33.6054 269.275 33.8686C268.79 34.1288 268.194 34.2589 267.485 34.2589H265.201V32.8907H267.261C267.673 32.8907 268.011 32.8189 268.274 32.6753C268.538 32.5318 268.732 32.3344 268.858 32.0832C268.986 31.8319 269.05 31.5433 269.05 31.2173C269.05 30.8914 268.986 30.6042 268.858 30.356C268.732 30.1078 268.536 29.9149 268.27 29.7773C268.007 29.6367 267.667 29.5665 267.252 29.5665H265.726V37.3633H264.062ZM273.744 28.1758V37.3633H272.12V28.1758H273.744ZM277.397 37.5024C276.96 37.5024 276.567 37.4246 276.217 37.2691C275.87 37.1106 275.595 36.8773 275.392 36.5692C275.191 36.2612 275.091 35.8814 275.091 35.4298C275.091 35.041 275.163 34.7195 275.306 34.4653C275.45 34.2111 275.646 34.0077 275.894 33.8552C276.142 33.7026 276.422 33.5875 276.733 33.5097C277.047 33.429 277.371 33.3707 277.706 33.3348C278.11 33.2929 278.438 33.2555 278.689 33.2226C278.94 33.1867 279.123 33.1329 279.236 33.0611C279.353 32.9864 279.411 32.8712 279.411 32.7157V32.6888C279.411 32.3508 279.311 32.0891 279.111 31.9037C278.91 31.7183 278.622 31.6256 278.245 31.6256C277.847 31.6256 277.531 31.7123 277.298 31.8858C277.068 32.0592 276.912 32.2641 276.832 32.5004L275.315 32.285C275.435 31.8663 275.632 31.5164 275.907 31.2353C276.183 30.9512 276.519 30.7388 276.917 30.5983C277.315 30.4547 277.754 30.3829 278.236 30.3829C278.568 30.3829 278.898 30.4218 279.227 30.4996C279.556 30.5773 279.857 30.7059 280.129 30.8854C280.401 31.0618 280.619 31.3026 280.784 31.6076C280.951 31.9127 281.035 32.294 281.035 32.7516V37.3633H279.474V36.4167H279.42C279.321 36.6081 279.182 36.7876 279.003 36.955C278.826 37.1195 278.604 37.2526 278.334 37.3543C278.068 37.453 277.756 37.5024 277.397 37.5024ZM277.819 36.3091C278.145 36.3091 278.427 36.2447 278.666 36.1161C278.906 35.9846 279.09 35.8111 279.218 35.5958C279.35 35.3804 279.416 35.1457 279.416 34.8914V34.0795C279.365 34.1213 279.278 34.1602 279.155 34.1961C279.036 34.232 278.901 34.2634 278.752 34.2903C278.602 34.3172 278.454 34.3412 278.308 34.3621C278.161 34.383 278.034 34.401 277.926 34.4159C277.684 34.4488 277.467 34.5027 277.276 34.5774C277.084 34.6522 276.933 34.7569 276.823 34.8914C276.712 35.023 276.657 35.1935 276.657 35.4029C276.657 35.7019 276.766 35.9277 276.984 36.0803C277.202 36.2328 277.481 36.3091 277.819 36.3091ZM283.431 39.9473C283.209 39.9473 283.004 39.9293 282.816 39.8934C282.631 39.8605 282.483 39.8217 282.372 39.7768L282.749 38.5117C282.985 38.5805 283.196 38.6134 283.381 38.6104C283.567 38.6074 283.73 38.5491 283.87 38.4355C284.014 38.3248 284.135 38.1394 284.234 37.8792L284.373 37.5068L281.874 30.4726H283.597L285.185 35.6765H285.256L286.849 30.4726H288.576L285.817 38.1977C285.689 38.5626 285.518 38.8751 285.306 39.1353C285.094 39.3985 284.833 39.5988 284.525 39.7364C284.22 39.877 283.855 39.9473 283.431 39.9473Z" fill="#292929"/>
<g clip-path="url(#clip0_293_2038)">
<path d="M198.866 30.2527C203.677 27.7875 207.324 25.909 207.638 25.763C208.644 25.2639 209.682 23.943 207.638 22.917C206.978 22.5943 203.425 20.7743 198.866 18.4272L192.546 24.3838L198.866 30.2525V30.2527Z" fill="#FFD900"/>
<path d="M192.546 24.384L172.422 43.3116C172.894 43.3699 173.427 43.2531 174.056 42.9305C175.376 42.2562 189.369 35.1248 198.866 30.2543L192.546 24.384Z" fill="#F43249"/>
<path d="M192.546 24.384L198.866 18.4568C198.866 18.4568 175.471 6.54215 174.056 5.83882C173.523 5.54407 172.925 5.45651 172.39 5.54407L192.546 24.384Z" fill="#00EE76"/>
<path d="M192.546 24.3839L172.39 5.54395C171.572 5.72044 170.881 6.39486 170.881 7.77415V41.0812C170.881 42.3436 171.416 43.2529 172.422 43.3406L192.546 24.3839Z" fill="#00D3FF"/>
</g>
<defs>
<clipPath id="clip0_293_2038">
<rect width="37.9512" height="37.8985" fill="white" transform="translate(170.877 5.51172)"/>
</clipPath>
</defs>
</svg>
