<svg width="154" height="114" viewBox="0 0 154 114" fill="none" xmlns="http://www.w3.org/2000/svg">
<path d="M153.832 99.4081H0V99.484H153.832V99.4081Z" fill="#EBEBEB"/>
<path d="M138.418 104.294H133.834V104.369H138.418V104.294Z" fill="#EBEBEB"/>
<path d="M101.904 105.119H99.2309V105.195H101.904V105.119Z" fill="#EBEBEB"/>
<path d="M132.535 101.476H122.016V101.552H132.535V101.476Z" fill="#EBEBEB"/>
<path d="M33.7292 103.043H20.4412V103.119H33.7292V103.043Z" fill="#EBEBEB"/>
<path d="M41.2608 103.043H36.4674V103.119H41.2608V103.043Z" fill="#EBEBEB"/>
<path d="M78.3805 102.022H49.5585V102.098H78.3805V102.022Z" fill="#EBEBEB"/>
<path d="M72.9164 85.8663H13.5095C13.0441 85.8655 12.5981 85.6825 12.2693 85.3574C11.9405 85.0324 11.7558 84.5919 11.7558 84.1326V1.71854C11.7599 1.26189 11.9463 0.825257 12.2747 0.503483C12.603 0.181709 13.0468 0.000782266 13.5095 0H72.9164C73.3823 0 73.8291 0.18266 74.1586 0.507795C74.488 0.832931 74.6731 1.27391 74.6731 1.73372V84.1326C74.6731 84.5924 74.488 85.0334 74.1586 85.3585C73.8291 85.6836 73.3823 85.8663 72.9164 85.8663ZM13.5095 0.060726C13.0645 0.0615304 12.638 0.236547 12.3237 0.54736C12.0093 0.858174 11.8327 1.27939 11.8327 1.71854V84.1326C11.8327 84.5717 12.0093 84.9929 12.3237 85.3037C12.638 85.6146 13.0645 85.7896 13.5095 85.7904H72.9164C73.3616 85.7896 73.7884 85.6147 74.1033 85.3039C74.4181 84.9932 74.5954 84.572 74.5962 84.1326V1.71854C74.5954 1.27911 74.4181 0.857902 74.1033 0.547175C73.7884 0.236448 73.3616 0.0615287 72.9164 0.060726H13.5095Z" fill="#EBEBEB"/>
<path d="M139.467 85.8663H80.0572C79.5916 85.8655 79.1452 85.6826 78.8159 85.3576C78.4866 85.0327 78.3013 84.5921 78.3005 84.1326V1.71854C78.3053 1.26161 78.4925 0.824983 78.8213 0.503293C79.1502 0.181603 79.5942 0.000773735 80.0572 0H139.467C139.929 0.00158024 140.372 0.18286 140.7 0.504549C141.028 0.826237 141.214 1.26241 141.218 1.71854V84.1326C141.218 84.5913 141.034 85.0314 140.705 85.3564C140.377 85.6813 139.932 85.8647 139.467 85.8663ZM80.0572 0.060726C79.612 0.0615287 79.1852 0.236448 78.8703 0.547175C78.5554 0.857902 78.3782 1.27911 78.3774 1.71854V84.1326C78.3782 84.572 78.5554 84.9932 78.8703 85.3039C79.1852 85.6147 79.612 85.7896 80.0572 85.7904H139.467C139.912 85.7896 140.339 85.6147 140.654 85.3039C140.969 84.9932 141.146 84.572 141.147 84.1326V1.71854C141.146 1.27911 140.969 0.857902 140.654 0.547175C140.339 0.236448 139.912 0.0615287 139.467 0.060726H80.0572Z" fill="#EBEBEB"/>
<path d="M68.1476 97.1917H70.5781V80.7654H68.1476V97.1917Z" fill="#F0F0F0"/>
<path d="M18.9859 99.4081H68.9752V97.1917H18.9859V99.4081Z" fill="#F0F0F0"/>
<path d="M68.1476 80.7653H17.3799V97.1916H68.1476V80.7653Z" fill="#F5F5F5"/>
<path d="M64.8618 83.6255H20.6628V93.0076H64.8618V83.6255Z" fill="#F0F0F0"/>
<path d="M32.0124 84.8795H53.5181C53.9208 84.8795 54.2473 84.5573 54.2473 84.1599V84.0263C54.2473 83.6289 53.9208 83.3067 53.5181 83.3067H32.0124C31.6097 83.3067 31.2832 83.6289 31.2832 84.0263V84.1599C31.2832 84.5573 31.6097 84.8795 32.0124 84.8795Z" fill="#F5F5F5"/>
<path d="M16.2662 80.7653H68.1476V79.2987H16.2662V80.7653Z" fill="#F0F0F0"/>
<path d="M71.7442 79.2988H68.1476V80.7654H71.7442V79.2988Z" fill="#E6E6E6"/>
<path d="M66.2924 57.632L131.342 57.632V8.39851L66.2924 8.39851V57.632Z" fill="#E6E6E6"/>
<path d="M60.2037 6.48255H135.021C135.171 6.48255 135.314 6.54109 135.42 6.6453C135.525 6.7495 135.584 6.89083 135.584 7.03819C135.584 7.18503 135.524 7.32558 135.418 7.42913C135.313 7.53268 135.17 7.5908 135.021 7.5908H60.2037C60.1295 7.5912 60.0559 7.57712 59.9873 7.54938C59.9186 7.52163 59.8562 7.48077 59.8036 7.42913C59.751 7.3775 59.7092 7.31611 59.6807 7.2485C59.6522 7.18088 59.6376 7.10838 59.6376 7.03516C59.638 6.96219 59.6529 6.89001 59.6816 6.82275C59.7103 6.75549 59.7521 6.69446 59.8047 6.64315C59.8572 6.59183 59.9195 6.55124 59.988 6.52368C60.0564 6.49613 60.1297 6.48215 60.2037 6.48255Z" fill="#E6E6E6"/>
<path d="M63.8803 57.632L130.216 57.632V8.39851L63.8803 8.39851V57.632Z" fill="#F0F0F0"/>
<path d="M66.2923 57.632H131.342V59.2078H64.631L66.2923 57.632Z" fill="#E6E6E6"/>
<path d="M59.8622 57.632H126.198L124.536 59.2078H58.2039L59.8622 57.632Z" fill="#F0F0F0"/>
<path d="M126.838 54.301V11.7291L67.2553 11.7291V54.301L126.838 54.301Z" fill="#FAFAFA"/>
<path d="M106.956 54.2979L87.1458 11.7291H77.7897L97.6033 54.2979H106.956Z" fill="white"/>
<path d="M95.5943 54.2979L75.7807 11.7291H72.1349L91.9484 54.2979H95.5943Z" fill="white"/>
<path d="M67.6861 54.301V11.7291H67.2595V54.301H67.6861Z" fill="#E6E6E6"/>
<g opacity="0.4">
<path d="M126.801 46.1122H132.609V5.48358H126.801V46.1122Z" fill="#F0F0F0"/>
<path d="M124.536 46.1122H129.062V5.48358H124.536V46.1122Z" fill="#E6E6E6"/>
<path d="M120.992 46.1122H126.801V5.48358H120.992V46.1122Z" fill="#F0F0F0"/>
<path d="M118.728 46.1122H123.253V5.48358H118.728V46.1122Z" fill="#E6E6E6"/>
<path d="M115.18 46.1122H120.989V5.48358H115.18V46.1122Z" fill="#F0F0F0"/>
</g>
<g opacity="0.4">
<path d="M69.4213 46.1122H72.7686V5.48358H69.4213V46.1122Z" fill="#F0F0F0"/>
<path d="M68.1137 46.1122H70.7227V5.48358H68.1137V46.1122Z" fill="#E6E6E6"/>
<path d="M66.0708 46.1122H69.4182V5.48358H66.0708V46.1122Z" fill="#F0F0F0"/>
<path d="M64.7663 46.1122H67.3753V5.48358H64.7663V46.1122Z" fill="#E6E6E6"/>
<path d="M62.7235 46.1122H66.0709V5.48358H62.7235L62.7235 46.1122Z" fill="#F0F0F0"/>
</g>
<path d="M48.3648 5.51099H21.638V72.9045H48.3648V5.51099Z" fill="#F5F5F5"/>
<path d="M48.3685 72.9014H49.1001L49.1001 5.50787H48.3685L48.3685 72.9014Z" fill="#E0E0E0"/>
<path d="M45.8881 70.4602L45.8881 7.95209L24.1117 7.95209L24.1117 70.4602H45.8881Z" fill="white"/>
<path d="M31.7786 70.4602L39.0057 7.95209H43.1745L35.9505 70.4602H31.7786Z" fill="#FAFAFA"/>
<path d="M28.1666 70.4602L35.3906 7.95209H37.4765L30.2526 70.4602H28.1666Z" fill="#FAFAFA"/>
<path d="M76.916 113.12C109.861 113.12 136.569 111.581 136.569 109.683C136.569 107.785 109.861 106.246 76.916 106.246C43.9706 106.246 17.263 107.785 17.263 109.683C17.263 111.581 43.9706 113.12 76.916 113.12Z" fill="#F5F5F5"/>
<path d="M122.466 109.683H86.5305C86.0299 109.688 85.5336 109.591 85.0733 109.396C84.613 109.202 84.1988 108.915 83.8569 108.554C83.5151 108.193 83.2533 107.766 83.088 107.299C82.9227 106.833 82.8577 106.338 82.897 105.845L87.9119 30.8275C87.9959 29.7939 88.4669 28.8282 89.233 28.1187C89.9992 27.4092 91.0056 27.0067 92.0562 26.9896H127.988C128.489 26.9847 128.985 27.0827 129.444 27.2772C129.904 27.4718 130.318 27.7586 130.66 28.1196C131.001 28.4806 131.263 28.9078 131.428 29.374C131.593 29.8402 131.658 30.3352 131.619 30.8275L126.61 105.845C126.526 106.879 126.055 107.844 125.289 108.554C124.523 109.263 123.516 109.666 122.466 109.683Z" fill="#263238"/>
<path d="M130.031 47.1628H125.681C125.56 47.164 125.44 47.1404 125.329 47.0934C125.218 47.0465 125.118 46.9773 125.036 46.8902C124.953 46.8031 124.89 46.7 124.85 46.5875C124.81 46.475 124.794 46.3555 124.804 46.2367L125.238 39.739C125.262 39.492 125.378 39.2624 125.563 39.0944C125.748 38.9263 125.989 38.8315 126.241 38.8282H130.588C130.707 38.8271 130.826 38.8503 130.936 38.8963C131.046 38.9423 131.145 39.0101 131.227 39.0956C131.309 39.181 131.373 39.2822 131.414 39.3929C131.455 39.5036 131.472 39.6214 131.465 39.739L131.031 46.2367C131.011 46.4862 130.898 46.7194 130.713 46.8907C130.528 47.062 130.285 47.159 130.031 47.1628Z" fill="#263238"/>
<path d="M101.461 25.9269H99.8708V26.2306H101.461V25.9269Z" fill="#7C20BE"/>
<path d="M97.9109 25.9269H92.1269V26.2306H97.9109V25.9269Z" fill="#7C20BE"/>
<path d="M121.918 109.683H85.9829C85.4824 109.688 84.9863 109.59 84.5262 109.395C84.0662 109.201 83.6521 108.914 83.3104 108.553C82.9687 108.192 82.7068 107.765 82.5413 107.299C82.3759 106.833 82.3105 106.338 82.3494 105.845L87.3766 30.8275C87.4606 29.7939 87.9315 28.8282 88.6977 28.1187C89.4639 27.4092 90.4703 27.0066 91.5208 26.9896H127.456C127.955 26.9877 128.448 27.0878 128.905 27.2836C129.363 27.4795 129.774 27.7668 130.113 28.1275C130.452 28.4881 130.712 28.9143 130.876 29.379C131.04 29.8437 131.104 30.3369 131.065 30.8275L126.062 105.845C125.978 106.879 125.507 107.844 124.741 108.554C123.975 109.263 122.969 109.666 121.918 109.683Z" fill="#7C20BE"/>
<path d="M123.549 100.945H85.5306C85.2462 100.947 84.9643 100.892 84.7028 100.782C84.4414 100.671 84.2061 100.508 84.0119 100.303C83.8177 100.098 83.6689 99.8554 83.5749 99.5905C83.481 99.3256 83.4439 99.0443 83.4662 98.7645L87.8319 33.4538C87.8791 32.8682 88.1452 32.3208 88.5784 31.918C89.0117 31.5151 89.5812 31.2855 90.1763 31.2738H128.204C128.488 31.2708 128.77 31.3263 129.031 31.4367C129.293 31.5472 129.528 31.7101 129.722 31.9151C129.916 32.1202 130.065 32.3629 130.159 32.6278C130.253 32.8927 130.29 33.174 130.268 33.4538L125.902 98.7645C125.855 99.3516 125.588 99.9003 125.152 100.303C124.717 100.706 124.145 100.935 123.549 100.945Z" fill="white"/>
<path d="M116.457 31.2739H108.907L90.6163 100.945H98.1664L116.457 31.2739Z" fill="#FAFAFA"/>
<path d="M123.109 31.2739H119.334L101.043 100.945H104.818L123.109 31.2739Z" fill="#FAFAFA"/>
<path d="M118.094 79.3564L109.885 48.7172C109.666 47.9027 109.128 47.2072 108.39 46.7832C107.652 46.3592 106.773 46.2413 105.947 46.4552L86.5274 51.5197L83.9369 91.5563L115.802 83.2459C116.627 83.0279 117.331 82.4964 117.76 81.7677C118.19 81.0389 118.31 80.1721 118.094 79.3564Z" fill="#F0F0F0"/>
<path opacity="0.2" d="M105.914 106.132C106.901 105.19 106.977 103.687 106.083 102.776C105.19 101.865 103.666 101.89 102.679 102.832C101.693 103.774 101.617 105.276 102.51 106.188C103.403 107.099 104.927 107.074 105.914 106.132Z" fill="white"/>
<path opacity="0.2" d="M110.338 29.0087C110.316 29.2733 110.195 29.5204 109.999 29.7018C109.803 29.8832 109.545 29.9858 109.276 29.9895C109.149 29.9898 109.023 29.9642 108.906 29.9141C108.789 29.864 108.684 29.7906 108.597 29.6985C108.51 29.6064 108.444 29.4975 108.402 29.3788C108.36 29.2601 108.343 29.1341 108.353 29.0087C108.374 28.7439 108.494 28.4964 108.691 28.3149C108.887 28.1334 109.145 28.031 109.415 28.028C109.542 28.0276 109.668 28.0533 109.785 28.1034C109.902 28.1535 110.007 28.2269 110.094 28.319C110.18 28.4111 110.247 28.52 110.289 28.6387C110.331 28.7574 110.347 28.8834 110.338 29.0087Z" fill="white"/>
<path opacity="0.2" d="M109.887 29.0088C109.877 29.1544 109.811 29.2906 109.703 29.3907C109.596 29.4908 109.454 29.5474 109.306 29.5492C109.236 29.5504 109.166 29.5368 109.101 29.5096C109.036 29.4823 108.978 29.4419 108.93 29.391C108.882 29.34 108.845 29.2797 108.822 29.2139C108.799 29.148 108.79 29.0782 108.796 29.0088C108.807 28.8632 108.873 28.7269 108.98 28.6269C109.088 28.5268 109.229 28.4702 109.377 28.4683C109.448 28.4672 109.518 28.4807 109.583 28.508C109.647 28.5353 109.706 28.5757 109.754 28.6266C109.802 28.6775 109.839 28.7379 109.862 28.8037C109.885 28.8695 109.894 28.9394 109.887 29.0088Z" fill="white"/>
<path d="M52.0937 25.2194C53.2413 22.4351 52.829 19.0436 49.5739 18.2845C48.8566 18.1022 48.106 18.0882 47.3823 18.2437C46.6585 18.3993 45.9818 18.72 45.4063 19.1802C44.8308 19.6404 44.3726 20.2273 44.0684 20.8938C43.7641 21.5603 43.6224 22.2878 43.6545 23.0181C43.7837 26.0544 45.8081 28.5836 42.2607 30.7849C38.7134 32.9863 39.0918 39.6206 45.9527 38.3392C52.8136 37.0579 49.1063 33.5753 49.1063 33.5753C49.1063 33.5753 47.4233 34.9295 46.8819 33.551C46.1958 31.7657 50.7646 28.4774 52.0937 25.2194Z" fill="#263238"/>
<path d="M40.0209 34.3526L39.8702 34.3192C40.3286 32.294 41.0485 31.7717 41.8085 31.2191C42.5684 30.6665 43.2883 30.1412 43.8698 28.1494C44.1436 27.2112 43.9713 26.1728 43.8021 25.1708C43.5868 23.8926 43.3652 22.5687 44.0329 21.3846L44.1652 21.4605C43.5252 22.5961 43.7437 23.8895 43.9529 25.1465C44.1252 26.1667 44.3036 27.2203 44.0175 28.1828C43.4237 30.2232 42.6484 30.7849 41.9008 31.3315C41.1531 31.878 40.467 32.3851 40.0209 34.3526Z" fill="#263238"/>
<path d="M60.8313 40.5132C60.8529 40.6165 60.8898 40.7713 60.9236 40.911L61.0313 41.3391C61.1051 41.6276 61.1882 41.916 61.2744 42.2045C61.4497 42.7783 61.6374 43.3582 61.8405 43.9291C62.2465 45.0777 62.7107 46.2056 63.2311 47.3085L63.6188 48.107C63.6844 48.2498 63.7773 48.3787 63.8926 48.4865C64.2383 48.761 64.651 48.9411 65.0894 49.0088C66.2398 49.1923 67.4125 49.1923 68.5629 49.0088L68.9783 50.2992C68.6599 50.4377 68.3344 50.5593 68.003 50.6636C67.6736 50.7717 67.3389 50.8629 67 50.9368C66.2943 51.0973 65.5699 51.1636 64.8463 51.1342C63.9949 51.1105 63.167 50.8529 62.4558 50.3903C62.0556 50.1163 61.7181 49.7626 61.4651 49.3519L61.4159 49.276L61.3851 49.2244L61.3236 49.1151L61.1974 48.9025L60.9482 48.4714C60.3044 47.3133 59.7391 46.1144 59.2561 44.8825C59.0223 44.2752 58.7915 43.6406 58.6038 43C58.5115 42.6963 58.4192 42.3593 58.3362 42.0314C58.2531 41.7035 58.1793 41.3938 58.1116 41.0051L60.8313 40.5132Z" fill="#FFC3BD"/>
<path d="M58.4562 36.2685C61.5605 37.6348 61.5328 42.2257 61.5328 42.2257L58.2624 44.1659C58.2624 44.1659 55.8011 40.5709 55.9857 38.9374C56.1672 37.234 56.6964 35.5003 58.4562 36.2685Z" fill="#7C20BE"/>
<path opacity="0.2" d="M58.9453 40.1853C58.0962 39.3382 57.3486 40.3159 56.6656 41.3998C57.134 42.3583 57.6674 43.2845 58.2623 44.172L59.6037 43.3765C59.8683 42.3654 59.7914 41.0355 58.9453 40.1853Z" fill="#292929"/>
<path d="M68.2399 49.124L70.4243 48.0492L70.4489 50.8699C70.4489 50.8699 68.8183 51.1492 67.7322 50.0197L68.2399 49.124Z" fill="#FFC3BD"/>
<path d="M72.7718 48.5502L72.3964 50.6452L70.4489 50.8699L70.4243 48.0492L72.7718 48.5502Z" fill="#FFC3BD"/>
<path d="M48.2448 107.442L50.9461 107.697L52.2044 101.494L49.5031 101.239L48.2448 107.442Z" fill="#FFC3BD"/>
<path d="M30.5326 100.17L32.7293 101.749L36.3936 96.6179L34.1938 95.039L30.5326 100.17Z" fill="#FFC3BD"/>
<path d="M33.5354 100.762L31.7263 98.318C31.6963 98.2748 31.651 98.244 31.5993 98.2317C31.5476 98.2193 31.4932 98.2263 31.4464 98.2512L29.2773 99.3868C29.2237 99.4175 29.1773 99.4591 29.1411 99.5087C29.1049 99.5583 29.0797 99.615 29.0672 99.6749C29.0547 99.7348 29.0552 99.7966 29.0686 99.8564C29.082 99.9161 29.1081 99.9723 29.145 100.021C29.7911 100.862 30.1449 101.236 30.9418 102.314C31.4341 102.976 32.4186 104.509 33.0954 105.423C33.7723 106.337 34.723 105.727 34.5261 105.286C33.6339 103.31 33.6031 102.153 33.6708 101.227C33.6837 101.061 33.6356 100.896 33.5354 100.762Z" fill="#263238"/>
<path d="M51.303 106.893H48.0602C48.0019 106.893 47.9453 106.912 47.8991 106.947C47.8529 106.982 47.8198 107.031 47.8049 107.087L47.1003 109.61C47.083 109.67 47.0801 109.733 47.0919 109.794C47.1036 109.855 47.1297 109.912 47.1679 109.961C47.2062 110.011 47.2557 110.05 47.3123 110.077C47.3689 110.105 47.4312 110.118 47.4941 110.117C48.6386 110.117 49.1801 110.117 50.6046 110.117H54.9642C56.1487 110.117 56.3948 108.936 55.9057 108.827C53.7089 108.347 52.4414 107.685 51.7614 107.053C51.6347 106.945 51.4709 106.887 51.303 106.893Z" fill="#263238"/>
<path opacity="0.2" d="M52.2044 101.497L51.5553 104.694H48.8017L49.5031 101.242L52.2044 101.497Z" fill="#292929"/>
<path opacity="0.2" d="M34.1938 95.039L36.3936 96.6209L34.5045 99.2655L32.3047 97.6836L34.1938 95.039Z" fill="#292929"/>
<path d="M59.7361 38.6884C59.5453 40.7379 58.8562 44.761 56.841 52.6219L45.7835 51.6776C46.3158 47.5817 46.565 44.928 45.5251 37.1733C45.4913 36.917 45.5112 36.6565 45.5837 36.4081C45.6562 36.1597 45.7797 35.9287 45.9464 35.7294C46.1132 35.5301 46.3197 35.3667 46.5531 35.2495C46.7866 35.1322 47.0419 35.0636 47.3034 35.0479C48.1002 35.0054 49.0478 34.9781 49.9985 35.0145C51.6804 35.0393 53.3583 35.1824 55.0196 35.4426C55.9949 35.6157 57.0348 35.8646 57.8809 36.0833C58.4523 36.231 58.9521 36.5737 59.2918 37.0506C59.6314 37.5275 59.7888 38.1078 59.7361 38.6884Z" fill="#7C20BE"/>
<path opacity="0.2" d="M45.8081 39.4444C45.9496 40.6589 46.0542 41.7429 46.1158 42.7145C47.1341 42.6264 47.8848 41.5242 47.9618 39.2197C47.5803 38.1054 46.6726 38.5092 45.8081 39.4444Z" fill="#292929"/>
<path d="M56.841 52.6218C56.841 52.6218 60.5821 68.9571 58.0716 80.4737C56.401 88.1859 52.6813 103.765 52.6813 103.765L47.9648 103.647C47.9648 103.647 50.2169 87.2963 51.1615 80.8745C52.7767 69.8771 48.7309 51.9417 48.7309 51.9417L56.841 52.6218Z" fill="#263238"/>
<path opacity="0.2" d="M52.5274 55.9224L50.1677 59.5932C50.8782 63.9458 51.3292 68.3357 51.5183 72.7404C54.8349 66.8803 53.2628 59.0224 52.5274 55.9224Z" fill="#292929"/>
<path d="M53.3581 104.008L47.531 103.862L47.8694 102.095L53.8135 102.372L53.3581 104.008Z" fill="#7C20BE"/>
<path d="M54.4227 52.4488C54.4227 52.4488 52.229 69.7709 47.4695 79.2289C43.6267 86.8682 35.5875 99.0103 35.5875 99.0103L32.6493 96.6876C32.6493 96.6876 37.6765 83.2581 40.5316 78.1844C47.5372 65.7356 41.8115 56.2472 45.7835 51.6776L54.4227 52.4488Z" fill="#263238"/>
<path d="M100.436 37.0336L48.1403 58.7177C46.4986 59.3985 45.7269 61.2637 46.4167 62.8839L58.855 92.0997C59.5447 93.7199 61.4348 94.4815 63.0765 93.8007L115.372 72.1166C117.014 71.4359 117.786 69.5706 117.096 67.9504L104.657 38.7346C103.968 37.1144 102.078 36.3529 100.436 37.0336Z" fill="#7C20BE"/>
<path opacity="0.1" d="M100.436 37.0336L48.1403 58.7177C46.4986 59.3985 45.7269 61.2637 46.4167 62.8839L58.855 92.0997C59.5447 93.7199 61.4348 94.4815 63.0765 93.8007L115.372 72.1166C117.014 71.4359 117.786 69.5706 117.096 67.9504L104.657 38.7346C103.968 37.1144 102.078 36.3529 100.436 37.0336Z" fill="#292929"/>
<path opacity="0.2" d="M62.5656 57.4171L52.3261 61.6629C51.5365 61.9903 51.1654 62.8873 51.4971 63.6665L53.6554 68.7359C53.9871 69.5151 54.8961 69.8814 55.6856 69.554L65.9252 65.3082C66.7147 64.9808 67.0858 64.0838 66.7541 63.3046L64.5958 58.2352C64.2641 57.456 63.3552 57.0897 62.5656 57.4171Z" fill="white"/>
<path opacity="0.4" d="M69.7506 77.4562L59.7181 81.6161C59.4221 81.7389 59.2829 82.0753 59.4073 82.3674L60.1688 84.1562C60.2932 84.4483 60.6341 84.5857 60.9301 84.4629L70.9627 80.303C71.2587 80.1802 71.3979 79.8438 71.2735 79.5516L70.512 77.7629C70.3876 77.4707 70.0467 77.3334 69.7506 77.4562Z" fill="white"/>
<path opacity="0.4" d="M82.8035 72.0454L72.771 76.2053C72.4749 76.3281 72.3357 76.6645 72.4601 76.9567L73.2216 78.7454C73.346 79.0376 73.6869 79.1749 73.983 79.0522L84.0155 74.8922C84.3116 74.7695 84.4507 74.4331 84.3263 74.1409L83.5648 72.3522C83.4404 72.06 83.0995 71.9226 82.8035 72.0454Z" fill="white"/>
<path opacity="0.4" d="M95.8532 66.6346L85.8207 70.7946C85.5246 70.9173 85.3855 71.2537 85.5099 71.5459L86.2714 73.3346C86.3958 73.6268 86.7367 73.7642 87.0327 73.6414L97.0652 69.4815C97.3613 69.3587 97.5005 69.0223 97.3761 68.7301L96.6146 66.9414C96.4902 66.6492 96.1493 66.5119 95.8532 66.6346Z" fill="white"/>
<path opacity="0.4" d="M108.906 61.2239L98.8736 65.3838C98.5775 65.5066 98.4383 65.8429 98.5627 66.1351L99.3242 67.9239C99.4486 68.216 99.7895 68.3534 100.086 68.2306L110.118 64.0707C110.414 63.9479 110.553 63.6115 110.429 63.3193L109.667 61.5306C109.543 61.2384 109.202 61.1011 108.906 61.2239Z" fill="white"/>
<path d="M35.8952 99.3322L32.1263 96.5176L33.0524 94.884L37.0582 97.9507L35.8952 99.3322Z" fill="#7C20BE"/>
<path d="M45.6727 51.0248L45.0881 51.96C45.042 52.0298 45.1281 52.1179 45.2543 52.127L56.8532 53.1168C56.9517 53.1168 57.0378 53.0834 57.0501 53.0227L57.2347 52.0541C57.2501 51.9873 57.167 51.9235 57.0594 51.9144L45.8604 50.958C45.8259 50.9526 45.7906 50.9558 45.7578 50.9675C45.725 50.9792 45.6957 50.9989 45.6727 51.0248Z" fill="#7C20BE"/>
<path opacity="0.5" d="M45.6727 51.0248L45.0881 51.96C45.042 52.0298 45.1281 52.1179 45.2543 52.127L56.8532 53.1168C56.9517 53.1168 57.0378 53.0834 57.0501 53.0227L57.2347 52.0541C57.2501 51.9873 57.167 51.9235 57.0594 51.9144L45.8604 50.958C45.8259 50.9526 45.7906 50.9558 45.7578 50.9675C45.725 50.9792 45.6957 50.9989 45.6727 51.0248Z" fill="#292929"/>
<path d="M47.0723 52.3882L46.7649 52.3639C46.7064 52.3639 46.6634 52.3244 46.6696 52.288L46.9216 51.031C46.9216 50.9915 46.9831 50.9672 47.0446 50.9733L47.352 50.9976C47.4135 50.9976 47.4565 51.037 47.4473 51.0735L47.1952 52.3305C47.1829 52.3669 47.1276 52.3943 47.0723 52.3882Z" fill="#7C20BE"/>
<path d="M55.9945 53.1502L55.6871 53.1259C55.6287 53.1259 55.5857 53.0864 55.5918 53.05L55.8439 51.793C55.855 51.7712 55.8731 51.7537 55.8954 51.7432C55.9176 51.7328 55.9428 51.73 55.9669 51.7353L56.2743 51.7596C56.3358 51.7596 56.3788 51.799 56.3696 51.8355L56.1175 53.0925C56.1144 53.135 56.0591 53.1563 55.9945 53.1502Z" fill="#7C20BE"/>
<path d="M51.5334 52.7707L51.226 52.7433C51.1645 52.7433 51.1215 52.7039 51.1307 52.6674L51.3828 51.4104C51.3828 51.374 51.4443 51.3466 51.5027 51.3527L51.8101 51.38C51.8685 51.38 51.9115 51.4195 51.9054 51.4559L51.6533 52.713C51.6472 52.7494 51.5949 52.7737 51.5334 52.7707Z" fill="#7C20BE"/>
<path d="M34.2238 102.113C34.1893 102.119 34.1539 102.119 34.1193 102.113C33.7842 102.047 33.5045 101.485 33.3569 101.157C33.3511 101.149 33.348 101.139 33.348 101.128C33.348 101.118 33.3511 101.108 33.3569 101.099C33.3649 101.093 33.3746 101.09 33.3846 101.09C33.3946 101.09 33.4043 101.093 33.4123 101.099C33.5168 101.136 34.4329 101.485 34.5036 101.816C34.5121 101.852 34.5102 101.889 34.4983 101.924C34.4863 101.959 34.4648 101.99 34.436 102.013C34.3778 102.068 34.3035 102.103 34.2238 102.113ZM33.5076 101.227C33.7166 101.679 33.9502 101.968 34.1408 102.004C34.1839 102.011 34.2279 102.006 34.2687 101.991C34.3096 101.976 34.3459 101.952 34.3745 101.919C34.3898 101.908 34.4015 101.892 34.4081 101.875C34.4146 101.857 34.4158 101.837 34.4114 101.819C34.3683 101.616 33.8242 101.354 33.5076 101.227Z" fill="#7C20BE"/>
<path d="M34.2515 101.269C33.9593 101.305 33.6627 101.274 33.3846 101.178C33.3761 101.175 33.3688 101.169 33.3634 101.161C33.358 101.154 33.3547 101.145 33.3539 101.136C33.3527 101.127 33.354 101.117 33.3578 101.109C33.3616 101.1 33.3677 101.093 33.3754 101.087C33.4031 101.069 34.0363 100.614 34.4175 100.699C34.4646 100.707 34.5091 100.726 34.5479 100.754C34.5867 100.782 34.6188 100.818 34.6419 100.859C34.6723 100.898 34.6889 100.945 34.6889 100.993C34.6889 101.042 34.6723 101.089 34.6419 101.127C34.5326 101.218 34.3945 101.268 34.2515 101.269ZM33.5352 101.108C33.8427 101.197 34.4175 101.203 34.5589 101.048C34.5835 101.023 34.605 100.984 34.5589 100.905C34.5438 100.877 34.5223 100.852 34.4963 100.833C34.4702 100.814 34.4401 100.802 34.4083 100.796C34.1501 100.744 33.7074 100.996 33.5352 101.108Z" fill="#7C20BE"/>
<path d="M52.7428 107.409C52.4445 107.401 52.1477 107.365 51.8568 107.299C51.8469 107.295 51.8385 107.288 51.8326 107.279C51.8267 107.27 51.8235 107.26 51.8235 107.249C51.8235 107.239 51.8267 107.228 51.8326 107.219C51.8385 107.21 51.8469 107.203 51.8568 107.199C51.9921 107.135 53.1674 106.592 53.4628 106.798C53.4902 106.816 53.512 106.84 53.5256 106.869C53.5393 106.898 53.5442 106.931 53.5397 106.962C53.539 107.022 53.5241 107.08 53.4963 107.133C53.4685 107.186 53.4286 107.231 53.3797 107.266C53.1883 107.379 52.9651 107.429 52.7428 107.409ZM52.0414 107.227C52.3921 107.29 53.0382 107.375 53.3028 107.178C53.3371 107.151 53.3653 107.118 53.3854 107.08C53.4056 107.041 53.4173 106.999 53.4197 106.956C53.4197 106.914 53.4197 106.896 53.392 106.886C53.2259 106.774 52.5305 107.014 52.0414 107.227Z" fill="#7C20BE"/>
<path d="M51.869 107.299C51.8582 107.304 51.8461 107.304 51.8352 107.299C51.8272 107.294 51.8212 107.286 51.8179 107.276C51.8146 107.267 51.8142 107.257 51.8168 107.248C51.8168 107.196 52.0934 106.052 52.739 106.124C52.8989 106.146 52.9419 106.222 52.9511 106.285C52.9911 106.589 52.2502 107.166 51.8936 107.309L51.869 107.299ZM52.6744 106.216C52.2656 106.216 52.0289 106.884 51.949 107.151C52.3332 106.95 52.8712 106.474 52.8374 106.288C52.8374 106.273 52.8374 106.231 52.7175 106.219L52.6744 106.216Z" fill="#7C20BE"/>
<path d="M47.008 39.499L46.845 39.7268L46.6665 39.9848C46.5465 40.1609 46.4265 40.3401 46.3127 40.5253C46.0789 40.8897 45.8666 41.2692 45.6512 41.6487C45.226 42.4122 44.8519 43.2023 44.5313 44.014C44.2082 44.8209 43.9379 45.6475 43.7222 46.4886L43.5776 47.0958C43.5776 47.0776 43.5591 47.1414 43.593 47.2568C43.6988 47.5813 43.8534 47.8883 44.0514 48.1676C44.5484 48.8728 45.1063 49.5341 45.7189 50.1443C46.3342 50.788 47.0172 51.4104 47.6972 52.0298C48.3771 52.6492 49.0909 53.2443 49.8047 53.8303C50.5185 54.4163 51.2476 55.0084 51.9583 55.5792L51.1892 56.6996C49.5412 55.7349 47.95 54.6786 46.4235 53.5358C45.6543 52.965 44.9005 52.3638 44.1714 51.714C43.4068 51.0527 42.7092 50.3195 42.0885 49.5249C41.7164 49.0582 41.4253 48.5339 41.227 47.9733C41.0924 47.5831 41.0472 47.1683 41.0947 46.7588V46.6738V46.6282L41.1101 46.5372L41.1409 46.3519L41.2055 45.9845C41.3865 45.0066 41.6416 44.0434 41.9685 43.1031C42.3066 42.1674 42.7064 41.2546 43.1653 40.3704C43.396 39.9271 43.6483 39.499 43.9191 39.077C44.0514 38.8644 44.1898 38.6549 44.3344 38.4454L44.5621 38.1418C44.6421 38.0355 44.7098 37.9414 44.8175 37.8109L47.008 39.499Z" fill="#FFC3BD"/>
<path d="M46.7342 35.2209C44.6236 35.7675 42.5869 40.8168 42.5869 40.8168L45.3189 43.2823C45.3189 43.2823 49.6109 39.4201 49.4663 37.6773C49.3463 36.1956 48.4294 34.7776 46.7342 35.2209Z" fill="#7C20BE"/>
<path opacity="0.2" d="M49.9985 34.9174C49.6119 34.9953 49.2178 35.0309 48.8232 35.0236C48.7402 36.5236 49.7155 37.9719 52.1122 39.9151C52.6875 38.1449 53.9581 37.7624 53.9581 37.7624L49.9985 34.9174Z" fill="#292929"/>
<path opacity="0.2" d="M55.0196 35.394C55.0196 35.394 55.2996 35.4335 55.9672 35.5853C56.4133 36.2624 56.9917 38.3484 55.678 39.8361C55.1673 38.0144 53.9489 37.7836 53.9489 37.7836L55.0196 35.394Z" fill="#292929"/>
<path d="M49.9985 34.9174C49.9985 34.9174 49.3832 34.9174 48.6325 34.9174C48.1864 35.5945 49.7216 37.4709 52.1152 39.4141C52.6906 37.6439 53.9612 37.7502 53.9612 37.7502L49.9985 34.9174Z" fill="white"/>
<path d="M55.0196 35.394C55.0196 35.394 55.2996 35.4335 55.9672 35.5853C56.4133 36.2624 57.3763 38.0963 56.0626 39.572C55.5518 37.7502 53.9489 37.7745 53.9489 37.7745L55.0196 35.394Z" fill="white"/>
<path d="M50.9861 29.4672C51.1646 31.0885 51.223 34.0216 49.9985 35.0054C49.9985 35.0054 50.6354 36.8271 53.9489 37.7745C55.9426 36.6389 55.0196 35.4335 55.0196 35.4335C53.2567 34.8566 53.4197 33.5419 53.8412 32.3273L50.9861 29.4672Z" fill="#FFC3BD"/>
<path opacity="0.2" d="M52.149 30.6362L53.8412 32.3274C53.7375 32.6085 53.6593 32.898 53.6074 33.1927C52.9274 33.0379 51.9429 32.3395 51.9337 31.623C51.9462 31.2841 52.0191 30.9501 52.149 30.6362Z" fill="#292929"/>
<path d="M54.7273 22.9877C55.2657 22.4017 56.3333 23.1486 56.7271 24.5848C57.3178 26.7102 55.7426 26.862 54.918 25.7993C54.0935 24.7366 54.2781 23.4766 54.7273 22.9877Z" fill="#263238"/>
<path d="M56.3948 26.7194C56.935 26.9039 57.4458 27.1635 57.9116 27.4906C57.6439 26.8469 57.4039 26.4552 56.3948 26.7194Z" fill="#263238"/>
<path d="M56.7055 26.8196C57.1425 26.7336 57.5896 26.7091 58.0336 26.7467C57.597 26.4157 57.2804 26.2518 56.7055 26.8196Z" fill="#263238"/>
<path d="M49.5339 26.9349C50.22 29.5249 50.4569 30.6362 52.0629 31.7201C54.4842 33.3536 57.5578 31.957 57.6716 29.2152C57.7731 26.7497 56.6348 22.9301 53.8258 22.3896C53.2068 22.2656 52.5659 22.3004 51.9644 22.4907C51.3629 22.6809 50.8209 23.0203 50.3903 23.4764C49.9597 23.9324 49.6548 24.4898 49.5049 25.0954C49.3549 25.7009 49.3649 26.3343 49.5339 26.9349Z" fill="#FFC3BD"/>
<path d="M50.8015 23.5191L50.0415 24.3905C49.8135 24.6479 49.4919 24.8064 49.1463 24.8314C48.8008 24.8564 48.4592 24.746 48.1956 24.5241C47.9342 24.2995 47.7731 23.9823 47.7472 23.6412C47.7213 23.3002 47.8326 22.9629 48.0571 22.7023L48.817 21.8339C49.0451 21.5767 49.3664 21.4182 49.7117 21.3927C50.057 21.3671 50.3987 21.4765 50.663 21.6973C50.9236 21.9223 51.0842 22.2394 51.1101 22.5802C51.136 22.921 51.0252 23.2582 50.8015 23.5191Z" fill="white"/>
<path d="M51.5029 24.4907L50.5799 24.9461C50.2011 25.1293 49.7643 25.157 49.3648 25.0233C48.9653 24.8896 48.6357 24.6054 48.4478 24.2326C48.2622 23.8583 48.234 23.4267 48.3694 23.032C48.5048 22.6373 48.7929 22.3114 49.1708 22.1254L50.0938 21.67C50.4735 21.487 50.9111 21.4596 51.3111 21.5938C51.7112 21.7281 52.0411 22.0131 52.229 22.3865C52.4143 22.7608 52.442 23.1922 52.3059 23.5865C52.1699 23.9808 51.8812 24.3059 51.5029 24.4907Z" fill="#7C20BE"/>
<path d="M50.3215 28.8721C50.3215 28.8721 52.2168 28.444 51.4107 25.7083C51.3806 25.603 51.3753 25.4924 51.3953 25.3848C51.4153 25.2772 51.4599 25.1755 51.5258 25.0876C51.5918 24.9996 51.6772 24.9278 51.7757 24.8775C51.8741 24.8272 51.9829 24.7998 52.0937 24.7974C54.2289 24.7397 56.2256 24.2995 55.9426 23.0789C55.5887 21.5364 50.2692 20.3462 49.3032 23.4341C47.4172 23.8683 47.3464 27.5362 50.3215 28.8721Z" fill="#263238"/>
<path d="M50.3308 28.3316C50.871 28.5161 51.3818 28.7758 51.8476 29.1028C51.5799 28.4652 51.3399 28.0735 50.3308 28.3316Z" fill="#263238"/>
<path d="M50.6415 28.4379C51.0785 28.3519 51.5256 28.3274 51.9696 28.365C51.5361 28.0401 51.2195 27.8731 50.6415 28.4379Z" fill="#263238"/>
<path d="M49.1031 28.9692C49.3489 29.4266 49.7681 29.7694 50.2692 29.9226C50.9368 30.12 51.2814 29.537 51.1091 28.9085C50.9522 28.3437 50.4169 27.5634 49.7431 27.6393C49.5965 27.6593 49.4573 27.715 49.3379 27.8013C49.2186 27.8876 49.1229 28.0019 49.0594 28.1338C48.9959 28.2657 48.9667 28.4111 48.9743 28.5569C48.982 28.7028 49.0262 28.8444 49.1031 28.9692Z" fill="#FFC3BD"/>
<path d="M53.9828 26.8468C54.0258 27.0594 54.1766 27.2112 54.315 27.1839C54.4535 27.1565 54.5366 26.9592 54.4966 26.7466C54.4566 26.5341 54.3027 26.3823 54.1612 26.4096C54.0197 26.4369 53.9397 26.6313 53.9828 26.8468Z" fill="#263238"/>
<path d="M56.4287 26.3701C56.4717 26.5857 56.6194 26.7345 56.7609 26.7071C56.9025 26.6798 56.9824 26.4855 56.9394 26.2729C56.8963 26.0604 56.7486 25.9086 56.6071 25.9359C56.4656 25.9632 56.3856 26.1576 56.4287 26.3701Z" fill="#263238"/>
<path d="M56.5487 25.9602L57.0379 25.7112C57.0379 25.7112 56.8502 26.1637 56.5487 25.9602Z" fill="#263238"/>
<path d="M55.5887 26.9045C55.8781 27.3547 56.2287 27.7634 56.6309 28.1191C56.5371 28.2205 56.4218 28.3004 56.2932 28.3528C56.1646 28.4053 56.0259 28.4292 55.8869 28.4227L55.5887 26.9045Z" fill="#ED847E"/>
<path d="M54.8872 29.4277C54.432 29.4334 53.9917 29.2672 53.6566 28.9631C53.6466 28.9529 53.6411 28.9393 53.6411 28.9252C53.6411 28.911 53.6466 28.8974 53.6566 28.8872C53.6669 28.8774 53.6807 28.8719 53.695 28.8719C53.7094 28.8719 53.7232 28.8774 53.7335 28.8872C53.9406 29.0674 54.1878 29.1968 54.4551 29.2648C54.7224 29.3329 55.0023 29.3377 55.2718 29.2789C55.2857 29.2765 55.3 29.2796 55.3115 29.2876C55.323 29.2955 55.3309 29.3077 55.3334 29.3214C55.3358 29.3351 55.3326 29.3492 55.3246 29.3606C55.3165 29.372 55.3042 29.3797 55.2903 29.3821C55.158 29.4115 55.0228 29.4268 54.8872 29.4277Z" fill="#263238"/>
<path d="M52.5151 26.018C52.4957 26.0172 52.4768 26.012 52.4598 26.0028C52.4353 25.9883 52.4177 25.9648 52.4108 25.9375C52.4039 25.9102 52.4082 25.8812 52.4229 25.8571C52.5245 25.6865 52.666 25.5423 52.8355 25.4367C53.0051 25.3311 53.1977 25.267 53.3974 25.2498C53.4257 25.2498 53.4529 25.2605 53.4735 25.2797C53.4941 25.2989 53.5065 25.3251 53.508 25.353C53.5084 25.367 53.5061 25.3809 53.501 25.394C53.496 25.407 53.4884 25.4189 53.4787 25.4291C53.469 25.4392 53.4574 25.4474 53.4445 25.4531C53.4316 25.4588 53.4176 25.462 53.4035 25.4624C53.2386 25.4803 53.0804 25.5367 52.9419 25.627C52.8035 25.7173 52.6888 25.8388 52.6073 25.9816C52.596 25.9945 52.5818 26.0046 52.5657 26.0109C52.5497 26.0173 52.5323 26.0197 52.5151 26.018Z" fill="#263238"/>
<path d="M57.1076 25.1617C57.0905 25.1662 57.0725 25.1662 57.0554 25.1617C56.912 25.0782 56.7508 25.0292 56.5847 25.0186C56.4186 25.0081 56.2523 25.0363 56.0993 25.101C56.072 25.1147 56.0403 25.1171 56.0112 25.1077C55.9821 25.0983 55.9579 25.0778 55.9441 25.0509C55.9302 25.0239 55.9278 24.9926 55.9373 24.9638C55.9468 24.9351 55.9675 24.9112 55.9948 24.8975C56.1789 24.8152 56.3804 24.7779 56.5822 24.789C56.784 24.8001 56.9801 24.8592 57.1537 24.9613C57.166 24.9679 57.1768 24.9769 57.1855 24.9877C57.1941 24.9986 57.2005 25.011 57.2043 25.0243C57.208 25.0376 57.209 25.0515 57.2072 25.0652C57.2053 25.0789 57.2008 25.0921 57.1937 25.104C57.186 25.1204 57.1739 25.1344 57.1587 25.1446C57.1436 25.1547 57.1259 25.1606 57.1076 25.1617Z" fill="#263238"/>
<path d="M50.9523 55.1269L53.4136 55.2969L52.3029 57.893C52.3029 57.893 50.2477 57.2523 50.1646 55.7675L50.9523 55.1269Z" fill="#FFC3BD"/>
<path d="M54.3581 56.7664L53.1674 58.5396L52.306 57.8929L53.4228 55.2969L54.3581 56.7664Z" fill="#FFC3BD"/>
<path d="M54.1027 26.4339L54.5919 26.1849C54.5919 26.1849 54.4042 26.6373 54.1027 26.4339Z" fill="#263238"/>
</svg>
