<svg width="463" height="345" viewBox="0 0 463 345" fill="none" xmlns="http://www.w3.org/2000/svg">
<path d="M463 303.172H0V303.404H463V303.172Z" fill="#EBEBEB"/>
<path d="M416.607 318.072H385.938V318.303H416.607V318.072Z" fill="#EBEBEB"/>
<path d="M306.71 320.591H298.663V320.822H306.71V320.591Z" fill="#EBEBEB"/>
<path d="M385.012 309.479H367.242V309.71H385.012V309.479Z" fill="#EBEBEB"/>
<path d="M88.5719 311.034H48.5779V311.266H88.5719V311.034Z" fill="#EBEBEB"/>
<path d="M102.684 311.034H96.8226V311.266H102.684V311.034Z" fill="#EBEBEB"/>
<path d="M208.489 314.942H121.741V315.173H208.489V314.942Z" fill="#EBEBEB"/>
<path d="M219.462 261.873H40.6606C39.2599 261.87 37.9174 261.312 36.9278 260.321C35.9382 259.33 35.3824 257.986 35.3824 256.585V5.24116C35.3946 3.84848 35.9558 2.51685 36.9441 1.53551C37.9324 0.554172 39.2679 0.00238574 40.6606 0H219.462C220.864 0 222.209 0.55707 223.201 1.54866C224.192 2.54025 224.749 3.88514 224.749 5.28746V256.585C224.749 257.988 224.192 259.333 223.201 260.324C222.209 261.316 220.864 261.873 219.462 261.873ZM40.6606 0.185201C39.3213 0.187654 38.0377 0.721414 37.0915 1.66933C36.1454 2.61724 35.6139 3.90184 35.6139 5.24116V256.585C35.6139 257.925 36.1454 259.209 37.0915 260.157C38.0377 261.105 39.3213 261.639 40.6606 261.641H219.462C220.802 261.639 222.087 261.105 223.034 260.158C223.982 259.21 224.516 257.926 224.518 256.585V5.24116C224.516 3.90099 223.982 2.61641 223.034 1.66876C222.087 0.721114 220.802 0.187649 219.462 0.185201H40.6606Z" fill="#EBEBEB"/>
<path d="M419.765 261.873H240.954C239.553 261.87 238.209 261.313 237.218 260.321C236.227 259.33 235.669 257.987 235.667 256.585V5.24116C235.682 3.84764 236.245 2.51601 237.235 1.53493C238.224 0.553849 239.561 0.00235972 240.954 0H419.765C421.156 0.00481936 422.489 0.557683 423.476 1.53876C424.462 2.51984 425.022 3.85008 425.034 5.24116V256.585C425.034 257.984 424.479 259.327 423.492 260.318C422.504 261.309 421.164 261.868 419.765 261.873ZM240.954 0.185201C239.614 0.187649 238.33 0.721114 237.382 1.66876C236.434 2.61641 235.901 3.90099 235.899 5.24116V256.585C235.901 257.926 236.434 259.21 237.382 260.158C238.33 261.105 239.614 261.639 240.954 261.641H419.765C421.105 261.639 422.39 261.105 423.337 260.158C424.285 259.21 424.819 257.926 424.821 256.585V5.24116C424.819 3.90099 424.285 2.61641 423.337 1.66876C422.39 0.721114 421.105 0.187649 419.765 0.185201H240.954Z" fill="#EBEBEB"/>
<path d="M200.59 49.1147H84.4049V169.161H200.59V49.1147Z" fill="#EBEBEB"/>
<path d="M204.646 49.1147H88.4608V169.161H204.646V49.1147Z" fill="#F0F0F0"/>
<path d="M201.572 51.9578H91.3962V166.374H201.572V51.9578Z" fill="#E0E0E0"/>
<path d="M198.821 51.9578H91.3962V166.374H198.821V51.9578Z" fill="#F5F5F5"/>
<path d="M146.215 51.9578H144.03V166.374H146.215V51.9578Z" fill="#EBEBEB"/>
<path d="M131.473 51.9578L100.86 166.365H97.9152L128.538 51.9578H131.473Z" fill="white"/>
<path d="M147.151 50.189H145.28V168.56H147.151V50.189Z" fill="#F0F0F0"/>
<path d="M120.361 51.9578L91.3962 160.235V100.721L104.434 51.9578H120.361Z" fill="white"/>
<path d="M198.812 62.3384V73.3207L173.912 166.365H170.977L198.812 62.3384Z" fill="white"/>
<path d="M198.812 84.5161V144.03L192.839 166.365H176.912L198.812 84.5161Z" fill="white"/>
<path d="M293.042 210.971H404.292C404.291 212.937 403.532 214.828 402.173 216.249C400.814 217.67 398.959 218.513 396.995 218.601C385.04 219.138 366.65 221.027 360.816 227.639C349.945 239.973 350.991 283.291 364.02 293.32C368.104 296.468 380.003 302.719 380.003 302.719H317.322C317.322 302.719 328.434 296.339 332.314 293.32C345.278 283.208 345.639 239.917 334.712 227.639C329.156 221.342 311.868 219.305 300.302 218.666C298.337 218.555 296.49 217.695 295.14 216.264C293.79 214.832 293.039 212.938 293.042 210.971Z" fill="#F5F5F5"/>
<path d="M390.503 218.999C379.206 219.925 365.668 222.138 360.816 227.639C359.231 229.538 357.979 231.692 357.112 234.009H338.453C337.577 231.697 336.326 229.544 334.749 227.639C329.878 222.166 316.229 219.916 305.117 218.999H390.503Z" fill="#E6E6E6"/>
<path d="M340.425 211.026L341.944 193.738H320.007L318.498 211.026H340.425Z" fill="#EBEBEB"/>
<path d="M340.425 211.026L341.944 193.738H343.12L341.611 211.026H340.425Z" fill="#E0E0E0"/>
<path d="M338.342 209.267L339.555 195.497H322.091L320.887 209.267H338.342Z" fill="#F0F0F0"/>
<path d="M337.008 208.127L338.018 196.636H323.433L322.424 208.127H337.008Z" fill="#FAFAFA"/>
<path d="M347.537 210.971H369.567L367.122 183.033H345.102L347.537 210.971Z" fill="#E6E6E6"/>
<path d="M347.537 210.971H346.491L344.046 183.033H345.102L347.537 210.971Z" fill="#E0E0E0"/>
<path d="M349.537 208.128H367.076L365.131 185.885H347.593L349.537 208.128Z" fill="#F0F0F0"/>
<path d="M350.824 206.294H365.474L363.844 187.719H349.195L350.824 206.294Z" fill="#FAFAFA"/>
<path d="M358.223 196.071C357.987 196.309 357.707 196.498 357.398 196.627C357.088 196.755 356.757 196.822 356.422 196.822C356.087 196.822 355.756 196.755 355.447 196.627C355.137 196.498 354.857 196.309 354.621 196.071C354.383 195.836 354.195 195.555 354.066 195.246C353.937 194.937 353.871 194.605 353.871 194.27C353.871 193.935 353.937 193.604 354.066 193.295C354.195 192.986 354.383 192.705 354.621 192.469C355.1 191.994 355.747 191.727 356.422 191.727C357.097 191.727 357.744 191.994 358.223 192.469C358.699 192.948 358.966 193.596 358.966 194.27C358.966 194.945 358.699 195.593 358.223 196.071Z" fill="#EBEBEB"/>
<path d="M357.14 199.201C357.312 199.026 357.517 198.887 357.744 198.792C357.971 198.698 358.214 198.649 358.459 198.649C358.705 198.649 358.948 198.698 359.175 198.792C359.401 198.887 359.606 199.026 359.779 199.201C360.047 199.459 360.23 199.792 360.307 200.156C360.383 200.519 360.348 200.898 360.206 201.242C360.064 201.585 359.822 201.878 359.511 202.082C359.201 202.287 358.836 202.393 358.464 202.387C358.091 202.395 357.725 202.29 357.413 202.086C357.101 201.883 356.857 201.59 356.714 201.246C356.571 200.902 356.535 200.523 356.611 200.158C356.687 199.793 356.871 199.46 357.14 199.201Z" fill="#F0F0F0"/>
<path d="M170.44 297.005H191.895L180.616 205.136C180.345 203.218 179.403 201.457 177.957 200.167C176.511 198.877 174.655 198.141 172.718 198.09H79.0897L92.8222 297.005H170.44Z" fill="#F5F5F5"/>
<path d="M102.397 297.005H80.9417L69.663 205.137C69.5244 204.253 69.5814 203.351 69.8302 202.492C70.0789 201.634 70.5132 200.84 71.1024 200.168C71.6916 199.496 72.4212 198.961 73.2398 198.602C74.0583 198.243 74.9458 198.068 75.8394 198.09H83.2474C85.1857 198.14 87.0434 198.876 88.491 200.166C89.9386 201.456 90.8826 203.217 91.1555 205.137L102.397 297.005Z" fill="#F0F0F0"/>
<path d="M110.296 296.894L106.416 252.446C106.33 251.481 105.915 250.574 105.241 249.878C104.567 249.182 103.674 248.739 102.712 248.622L101.11 248.418C99.8233 248.252 98.6323 247.65 97.7345 246.714C96.8367 245.777 96.2862 244.562 96.1744 243.269L95.4613 235.167C95.3934 234.382 95.4891 233.592 95.7425 232.847C95.9959 232.101 96.4013 231.416 96.9333 230.836C97.4652 230.255 98.1119 229.791 98.8325 229.473C99.553 229.156 100.332 228.991 101.119 228.99H65.283C64.4917 228.99 63.7089 229.154 62.9849 229.473C62.261 229.793 61.6118 230.26 61.079 230.845C60.5462 231.43 60.1417 232.12 59.8913 232.871C59.6409 233.621 59.5503 234.416 59.6251 235.204L60.3289 243.306C60.4428 244.6 60.9952 245.815 61.8945 246.752C62.7938 247.688 63.9861 248.289 65.2737 248.455L66.8665 248.659C67.8284 248.776 68.7211 249.219 69.3952 249.915C70.0694 250.612 70.4842 251.518 70.5705 252.483L74.4597 296.931C74.5985 298.493 75.3169 299.947 76.4737 301.006C77.6305 302.065 79.1418 302.653 80.7102 302.654H116.565C114.987 302.657 113.467 302.066 112.305 300.999C111.143 299.932 110.426 298.466 110.296 296.894Z" fill="#E6E6E6"/>
<path d="M208.98 241.334C209.274 237.968 210.818 234.834 213.309 232.551C215.8 230.268 219.056 229.001 222.434 229H191.219C187.846 229.01 184.598 230.281 182.113 232.563C179.629 234.845 178.088 237.973 177.792 241.334L174.718 276.522H205.933L208.98 241.334Z" fill="#E6E6E6"/>
<path d="M236.297 229H222.407C219.028 229.001 215.772 230.268 213.281 232.551C210.791 234.834 209.246 237.968 208.952 241.334L205.868 276.522H131.548L128.464 241.334C128.168 237.969 126.622 234.836 124.132 232.553C121.642 230.271 118.387 229.003 115.009 229H101.119C100.332 229 99.553 229.165 98.8324 229.483C98.1119 229.8 97.4651 230.264 96.9332 230.845C96.4013 231.425 95.9958 232.11 95.7424 232.856C95.4891 233.601 95.3933 234.391 95.4613 235.176L96.1743 243.278C96.2862 244.571 96.8367 245.786 97.7344 246.723C98.6322 247.659 99.8233 248.261 101.11 248.427L102.712 248.631C103.674 248.748 104.566 249.191 105.241 249.887C105.915 250.584 106.33 251.49 106.416 252.455L110.296 296.903C110.435 298.465 111.153 299.919 112.31 300.978C113.467 302.037 114.978 302.625 116.546 302.626H220.897C222.465 302.627 223.977 302.04 225.132 300.98C226.288 299.92 227.004 298.465 227.138 296.903L231.028 252.455C231.114 251.49 231.529 250.584 232.203 249.887C232.877 249.191 233.77 248.748 234.732 248.631L236.324 248.427C237.613 248.263 238.806 247.662 239.706 246.725C240.605 245.789 241.157 244.572 241.269 243.278L241.982 235.185C242.05 234.398 241.954 233.605 241.699 232.857C241.444 232.109 241.036 231.422 240.501 230.841C239.967 230.259 239.317 229.795 238.593 229.478C237.869 229.161 237.087 228.998 236.297 229Z" fill="#F0F0F0"/>
<path d="M385.346 86.7843V58.0691H344.722V86.7843H385.346Z" fill="#E0E0E0"/>
<path d="M383.438 84.9049V59.9399H346.63V84.9049H383.438Z" fill="#EBEBEB"/>
<path d="M371.252 122.852V94.1372H330.628V122.852H371.252Z" fill="#E0E0E0"/>
<path d="M369.344 120.973V96.0078H332.536V120.973H369.344Z" fill="#EBEBEB"/>
<path d="M311.154 86.7847H337.008V50.2077H311.154V86.7847Z" fill="#E0E0E0"/>
<path d="M312.84 85.0623H335.323V51.9207H312.84V85.0623Z" fill="#EBEBEB"/>
<path d="M296.45 134.77H325.165V94.1464H296.45V134.77Z" fill="#E0E0E0"/>
<path d="M298.329 132.863H323.294V96.054H298.329V132.863Z" fill="#EBEBEB"/>
<path d="M270.577 64.2921V86.7754H302.385V64.2921H270.577Z" fill="#E0E0E0"/>
<path d="M272.077 65.7647V85.3125H300.894V65.7647H272.077Z" fill="#EBEBEB"/>
<path d="M231.5 344.99C330.658 344.99 411.042 340.297 411.042 334.508C411.042 328.719 330.658 324.026 231.5 324.026C132.342 324.026 51.9578 328.719 51.9578 334.508C51.9578 340.297 132.342 344.99 231.5 344.99Z" fill="#F5F5F5"/>
<path d="M149.03 328.424H112.889V335.517H149.03V328.424Z" fill="#7C20BE"/>
<path opacity="0.2" d="M149.03 328.424H141.067V335.517H149.03V328.424Z" fill="black"/>
<path opacity="0.2" d="M137.242 335.518H140.141V328.424H137.242V335.518Z" fill="black"/>
<path opacity="0.2" d="M133.529 335.518H135.511V328.424H133.529V335.518Z" fill="black"/>
<path opacity="0.2" d="M129.89 335.518H130.881V328.424H129.89V335.518Z" fill="black"/>
<path opacity="0.2" d="M123.899 335.518H124.399V328.424H123.899V335.518Z" fill="black"/>
<path d="M147.327 321.368H111.185V328.461H147.327V321.368Z" fill="#7C20BE"/>
<path opacity="0.2" d="M147.327 321.368H139.363V328.461H147.327V321.368Z" fill="black"/>
<path opacity="0.2" d="M135.539 328.462H138.437V321.369H135.539V328.462Z" fill="black"/>
<path opacity="0.2" d="M131.825 328.462H133.807V321.369H131.825V328.462Z" fill="black"/>
<path opacity="0.2" d="M128.186 328.462H129.177V321.369H128.186V328.462Z" fill="black"/>
<path opacity="0.2" d="M122.195 328.462H122.695V321.369H122.195V328.462Z" fill="black"/>
<path d="M150.558 314.312H114.417V321.405H150.558V314.312Z" fill="#7C20BE"/>
<path opacity="0.2" d="M150.558 314.312H142.595V321.405H150.558V314.312Z" fill="black"/>
<path opacity="0.2" d="M138.77 321.405H141.669V314.312H138.77V321.405Z" fill="black"/>
<path opacity="0.2" d="M135.057 321.405H137.039V314.312H135.057V321.405Z" fill="black"/>
<path opacity="0.2" d="M131.418 321.405H132.409V314.312H131.418V321.405Z" fill="black"/>
<path opacity="0.2" d="M125.427 321.405H125.927V314.312H125.427V321.405Z" fill="black"/>
<path d="M149.03 307.256H112.889V314.349H149.03V307.256Z" fill="#7C20BE"/>
<path opacity="0.2" d="M149.03 307.256H141.067V314.349H149.03V307.256Z" fill="black"/>
<path opacity="0.2" d="M137.242 314.349H140.141V307.256H137.242V314.349Z" fill="black"/>
<path opacity="0.2" d="M133.529 314.349H135.511V307.256H133.529V314.349Z" fill="black"/>
<path opacity="0.2" d="M129.89 314.349H130.881V307.256H129.89V314.349Z" fill="black"/>
<path opacity="0.2" d="M123.899 314.349H124.399V307.256H123.899V314.349Z" fill="black"/>
<path d="M148.104 300.2H111.963V307.293H148.104V300.2Z" fill="#7C20BE"/>
<path opacity="0.2" d="M148.104 300.2H140.141V307.293H148.104V300.2Z" fill="black"/>
<path opacity="0.2" d="M136.316 307.293H139.215V300.2H136.316V307.293Z" fill="black"/>
<path opacity="0.2" d="M132.603 307.293H134.585V300.2H132.603V307.293Z" fill="black"/>
<path opacity="0.2" d="M128.964 307.293H129.955V300.2H128.964V307.293Z" fill="black"/>
<path opacity="0.2" d="M122.973 307.293H123.473V300.2H122.973V307.293Z" fill="black"/>
<path d="M149.03 293.144H112.889V300.237H149.03V293.144Z" fill="#7C20BE"/>
<path opacity="0.2" d="M149.03 293.144H141.067V300.237H149.03V293.144Z" fill="black"/>
<path opacity="0.2" d="M137.242 300.237H140.141V293.144H137.242V300.237Z" fill="black"/>
<path opacity="0.2" d="M133.529 300.237H135.511V293.144H133.529V300.237Z" fill="black"/>
<path opacity="0.2" d="M129.89 300.237H130.881V293.144H129.89V300.237Z" fill="black"/>
<path opacity="0.2" d="M123.899 300.237H124.399V293.144H123.899V300.237Z" fill="black"/>
<path d="M149.03 286.088H112.889V293.181H149.03V286.088Z" fill="#7C20BE"/>
<path opacity="0.2" d="M149.03 286.088H141.067V293.181H149.03V286.088Z" fill="black"/>
<path opacity="0.2" d="M137.242 293.181H140.141V286.088H137.242V293.181Z" fill="black"/>
<path opacity="0.2" d="M133.529 293.181H135.511V286.088H133.529V293.181Z" fill="black"/>
<path opacity="0.2" d="M129.89 293.181H130.881V286.088H129.89V293.181Z" fill="black"/>
<path opacity="0.2" d="M123.899 293.181H124.399V286.088H123.899V293.181Z" fill="black"/>
<path d="M147.178 279.031H111.037V286.124H147.178V279.031Z" fill="#7C20BE"/>
<path opacity="0.2" d="M147.178 279.031H139.215V286.124H147.178V279.031Z" fill="black"/>
<path opacity="0.2" d="M135.391 286.125H138.289V279.032H135.391V286.125Z" fill="black"/>
<path opacity="0.2" d="M131.677 286.125H133.659V279.032H131.677V286.125Z" fill="black"/>
<path opacity="0.2" d="M128.038 286.125H129.029V279.032H128.038V286.125Z" fill="black"/>
<path opacity="0.2" d="M122.047 286.125H122.547V279.032H122.047V286.125Z" fill="black"/>
<path d="M149.03 271.976H112.889V279.069H149.03V271.976Z" fill="#7C20BE"/>
<path opacity="0.2" d="M149.03 271.976H141.067V279.069H149.03V271.976Z" fill="black"/>
<path opacity="0.2" d="M137.242 279.068H140.141V271.975H137.242V279.068Z" fill="black"/>
<path opacity="0.2" d="M133.529 279.068H135.511V271.975H133.529V279.068Z" fill="black"/>
<path opacity="0.2" d="M129.89 279.068H130.881V271.975H129.89V279.068Z" fill="black"/>
<path opacity="0.2" d="M123.899 279.068H124.399V271.975H123.899V279.068Z" fill="black"/>
<path d="M150.882 264.919H114.741V272.012H150.882V264.919Z" fill="#7C20BE"/>
<path opacity="0.2" d="M150.882 264.919H142.919V272.012H150.882V264.919Z" fill="black"/>
<path opacity="0.2" d="M139.094 272.012H141.993V264.919H139.094V272.012Z" fill="black"/>
<path opacity="0.2" d="M135.381 272.012H137.363V264.919H135.381V272.012Z" fill="black"/>
<path opacity="0.2" d="M131.742 272.012H132.733V264.919H131.742V272.012Z" fill="black"/>
<path opacity="0.2" d="M125.751 272.012H126.251V264.919H125.751V272.012Z" fill="black"/>
<path d="M118.861 328.424H82.7197V335.517H118.861V328.424Z" fill="#7C20BE"/>
<path opacity="0.2" d="M118.871 328.424H110.907V335.517H118.871V328.424Z" fill="black"/>
<path opacity="0.2" d="M107.083 335.518H109.981V328.424H107.083V335.518Z" fill="black"/>
<path opacity="0.2" d="M103.369 335.518H105.351V328.424H103.369V335.518Z" fill="black"/>
<path opacity="0.2" d="M99.7302 335.518H100.721V328.424H99.7302V335.518Z" fill="black"/>
<path opacity="0.2" d="M93.7297 335.518H94.2297V328.424H93.7297V335.518Z" fill="black"/>
<path d="M117.009 321.368H80.8676V328.461H117.009V321.368Z" fill="#7C20BE"/>
<path opacity="0.2" d="M117.019 321.368H109.055V328.461H117.019V321.368Z" fill="black"/>
<path opacity="0.2" d="M105.231 328.462H108.129V321.369H105.231V328.462Z" fill="black"/>
<path opacity="0.2" d="M101.517 328.462H103.499V321.369H101.517V328.462Z" fill="black"/>
<path opacity="0.2" d="M97.8781 328.462H98.869V321.369H97.8781V328.462Z" fill="black"/>
<path opacity="0.2" d="M91.8777 328.462H92.3777V321.369H91.8777V328.462Z" fill="black"/>
<path d="M118.861 314.312H82.7197V321.405H118.861V314.312Z" fill="#7C20BE"/>
<path opacity="0.2" d="M118.871 314.312H110.907V321.405H118.871V314.312Z" fill="black"/>
<path opacity="0.2" d="M107.083 321.405H109.981V314.312H107.083V321.405Z" fill="black"/>
<path opacity="0.2" d="M103.369 321.405H105.351V314.312H103.369V321.405Z" fill="black"/>
<path opacity="0.2" d="M99.7302 321.405H100.721V314.312H99.7302V321.405Z" fill="black"/>
<path opacity="0.2" d="M93.7297 321.405H94.2297V314.312H93.7297V321.405Z" fill="black"/>
<path d="M117.935 307.256H81.7936V314.349H117.935V307.256Z" fill="#7C20BE"/>
<path opacity="0.2" d="M117.945 307.256H109.981V314.349H117.945V307.256Z" fill="black"/>
<path opacity="0.2" d="M106.157 314.349H109.055V307.256H106.157V314.349Z" fill="black"/>
<path opacity="0.2" d="M102.443 314.349H104.425V307.256H102.443V314.349Z" fill="black"/>
<path opacity="0.2" d="M98.8042 314.349H99.795V307.256H98.8042V314.349Z" fill="black"/>
<path opacity="0.2" d="M92.8037 314.349H93.3038V307.256H92.8037V314.349Z" fill="black"/>
<path d="M118.861 300.2H82.7197V307.293H118.861V300.2Z" fill="#7C20BE"/>
<path opacity="0.2" d="M118.871 300.2H110.907V307.293H118.871V300.2Z" fill="black"/>
<path opacity="0.2" d="M107.083 307.293H109.981V300.2H107.083V307.293Z" fill="black"/>
<path opacity="0.2" d="M103.369 307.293H105.351V300.2H103.369V307.293Z" fill="black"/>
<path opacity="0.2" d="M99.7302 307.293H100.721V300.2H99.7302V307.293Z" fill="black"/>
<path opacity="0.2" d="M93.7297 307.293H94.2297V300.2H93.7297V307.293Z" fill="black"/>
<path d="M116.083 293.144H79.9416V300.237H116.083V293.144Z" fill="#7C20BE"/>
<path opacity="0.2" d="M116.093 293.144H108.129V300.237H116.093V293.144Z" fill="black"/>
<path opacity="0.2" d="M104.305 300.237H107.203V293.144H104.305V300.237Z" fill="black"/>
<path opacity="0.2" d="M100.591 300.237H102.573V293.144H100.591V300.237Z" fill="black"/>
<path opacity="0.2" d="M96.9522 300.237H97.9431V293.144H96.9522V300.237Z" fill="black"/>
<path opacity="0.2" d="M90.9517 300.237H91.4518V293.144H90.9517V300.237Z" fill="black"/>
<path d="M300.552 286.06L305.311 335.518H275.272L260.252 300.376C260.252 300.376 281.504 282.828 300.552 286.06Z" fill="#7C20BE"/>
<path d="M358.066 271.318L366.4 335.481H336.388L318.396 293.385C318.396 293.385 328.397 271.124 358.066 271.318Z" fill="#7C20BE"/>
<path opacity="0.2" d="M300.552 286.06L305.311 335.518H275.272L260.252 300.376C260.252 300.376 281.504 282.828 300.552 286.06Z" fill="white"/>
<path opacity="0.2" d="M358.066 271.318L366.4 335.481H336.388L318.396 293.385C318.396 293.385 328.397 271.124 358.066 271.318Z" fill="white"/>
<path opacity="0.2" d="M305.311 335.517H275.272L260.252 300.376C260.252 300.376 281.504 282.828 300.552 286.069L303.793 319.785L305.311 335.517Z" fill="black"/>
<path opacity="0.2" d="M366.427 335.518H336.388L318.396 293.422C318.396 293.422 328.397 271.124 358.066 271.355L360.214 287.912L366.427 335.518Z" fill="black"/>
<path opacity="0.2" d="M303.793 319.785C294.444 323.673 284.786 326.771 274.92 329.045L275.272 335.527L260.252 300.386C260.252 300.386 281.504 282.838 300.552 286.079L303.793 319.785Z" fill="black"/>
<path opacity="0.2" d="M329.906 307.201L336.388 335.518L318.396 293.422C318.396 293.422 328.397 271.124 358.066 271.355L360.214 287.912C350.5 294.932 340.379 301.373 329.906 307.201Z" fill="black"/>
<path d="M269.809 308.145C319.012 308.145 358.899 276.363 358.899 237.158C358.899 197.953 319.012 166.171 269.809 166.171C220.605 166.171 180.718 197.953 180.718 237.158C180.718 276.363 220.605 308.145 269.809 308.145Z" fill="#7C20BE"/>
<path opacity="0.2" d="M358.899 237.158C358.899 238.917 358.816 240.668 358.658 242.399C357.177 258.549 348.917 273.17 336.138 284.56C319.831 299.043 296.153 308.154 269.808 308.154C220.61 308.154 180.727 276.365 180.727 237.158C180.727 236.38 180.727 235.612 180.783 234.843C182.311 196.71 221.582 166.171 269.808 166.171C291.912 166.171 312.127 172.579 327.693 183.191C346.796 196.22 358.899 215.564 358.899 237.158Z" fill="white"/>
<path opacity="0.2" d="M342.037 278.726C342.481 278.235 342.963 277.745 343.352 277.244L344.278 276.133C344.676 275.652 345.074 275.161 345.454 274.661L346.38 273.494C346.75 272.994 347.102 272.494 347.463 271.994C347.824 271.494 348.028 271.198 348.306 270.79C348.583 270.383 349 269.725 349.333 269.198C349.667 268.67 349.843 268.42 350.084 268.022C350.574 267.216 351.01 266.401 351.491 265.577C351.741 265.114 351.982 264.651 352.223 264.179C352.463 263.706 352.825 263.021 353.102 262.428C353.38 261.836 353.519 261.502 353.723 261.067C353.926 260.632 354.195 260.012 354.417 259.484C354.639 258.956 354.788 258.558 354.973 258.049C355.158 257.539 355.38 256.993 355.565 256.465C355.751 255.937 355.899 255.539 356.056 255.011C356.214 254.483 356.399 253.919 356.566 253.372C356.732 252.826 356.843 252.446 356.964 251.928C357.084 251.409 357.26 250.77 357.399 250.187C357.538 249.603 357.612 249.261 357.705 248.807C357.843 248.15 357.955 247.483 358.075 246.816C358.14 246.427 358.214 246.029 358.279 245.64C358.436 244.575 358.566 243.501 358.668 242.427C358.825 240.695 358.908 238.945 358.908 237.186C358.908 215.591 346.806 196.247 327.702 183.218C317.053 179.042 300.848 196.358 299.32 221.036C298.052 241.945 307.793 263.234 322.229 275.911C304.552 293.783 273.466 303.987 239.241 295.922C202.933 287.356 182.311 254.113 180.792 234.871C180.792 235.639 180.737 236.408 180.737 237.186C180.737 276.393 220.619 308.182 269.818 308.182C296.163 308.182 319.822 299.061 336.138 284.578L336.249 284.467C336.397 284.347 336.536 284.208 336.675 284.078C337.379 283.439 338.073 282.8 338.74 282.143L339.583 281.3C340.101 280.782 340.611 280.263 341.111 279.735C341.425 279.384 341.694 279.041 342.037 278.726Z" fill="black"/>
<path opacity="0.2" d="M307.238 174.736L301.682 175.922L295.635 177.218C275.022 169.236 251.057 171.449 239.834 173.162C236.065 173.746 233.722 174.264 233.417 174.338L244.186 170.051C281.791 161.939 307.238 174.736 307.238 174.736Z" fill="black"/>
<path opacity="0.2" d="M301.691 175.94L295.644 177.236C275.022 169.236 251.057 171.449 239.834 173.162L244.205 171.421C271.318 165.921 292.181 172.06 301.691 175.94Z" fill="black"/>
<path d="M346.204 190.756C346.204 190.756 353.038 177.644 375.262 173.458C375.262 173.458 378.688 174.172 375.262 177.459C375.262 177.459 375.993 195.21 373.067 204.313C370.141 213.415 346.204 190.756 346.204 190.756Z" fill="#7C20BE"/>
<path opacity="0.2" d="M375.262 177.459C375.262 177.459 375.993 195.21 373.067 204.313C372.96 204.641 372.807 204.953 372.613 205.239C372.266 205.728 371.786 206.107 371.229 206.331C370.672 206.554 370.063 206.612 369.474 206.498C369.941 205.817 370.306 205.072 370.557 204.285C370.687 203.915 370.817 203.498 370.928 203.053C374.632 188.96 369.65 181.904 369.65 181.904L372.03 179.033C358.899 183.45 355.908 196.09 355.908 196.09L356.121 196.479C357.124 198.244 358.219 199.957 359.399 201.609C354.769 198.283 350.361 194.658 346.204 190.756C346.204 190.756 353.038 177.635 375.262 173.449C375.262 173.449 376.826 173.773 376.78 175.005C376.594 175.982 376.053 176.856 375.262 177.459Z" fill="white"/>
<path opacity="0.2" d="M375.262 177.459C375.262 177.459 375.993 195.21 373.067 204.313C372.96 204.641 372.807 204.953 372.613 205.239L370.557 204.22C366.168 202.007 360.575 199.081 356.121 196.414C353.27 194.682 350.723 192.492 348.583 189.932C350.76 188.2 357.556 188.2 357.556 188.2C363.603 180.7 376.78 174.958 376.78 174.958C376.604 175.952 376.062 176.844 375.262 177.459Z" fill="black"/>
<path d="M390.976 225.879L385.29 226.537C381.086 204.637 364.168 188.256 343.935 188.256C320.526 188.256 301.561 210.146 301.561 237.158C301.561 264.169 320.526 286.06 343.935 286.06C359.445 286.06 373.002 276.439 380.392 262.077C380.392 262.077 402.412 251.817 403.245 247.122L390.976 225.879Z" fill="#7C20BE"/>
<path opacity="0.2" d="M403.245 247.122C402.412 251.816 380.392 262.077 380.392 262.077C372.984 276.43 359.445 286.06 343.935 286.06C320.526 286.06 301.561 264.16 301.561 237.149V236.825C301.644 222.166 307.321 209.045 316.248 200.127C321.462 194.826 328.042 191.07 335.258 189.274C338.1 188.589 341.012 188.244 343.935 188.247C362.455 188.247 378.151 201.933 383.929 220.999C384.481 222.826 384.936 224.68 385.29 226.555L390.976 225.898L403.245 247.122Z" fill="white"/>
<path opacity="0.2" d="M336.314 201.729C333.777 208.6 320.952 202.609 316.247 200.137C321.462 194.835 328.042 191.079 335.258 189.284C336.758 192.608 337.99 197.238 336.314 201.729Z" fill="black"/>
<path opacity="0.2" d="M385.29 226.537C385.29 226.537 376.789 226.176 372.03 233.741C372.03 233.741 375.604 223.444 383.929 221.009C384.48 222.826 384.935 224.671 385.29 226.537Z" fill="black"/>
<path opacity="0.2" d="M380.392 262.058C372.984 276.411 359.445 286.042 343.935 286.042C320.526 286.042 301.561 264.142 301.561 237.13V236.806C304.71 254.196 315.859 271.151 332.462 277.55C353.343 285.616 362.686 273.337 362.686 273.337C360.496 272.732 358.509 271.549 356.933 269.912C355.358 268.274 354.252 266.243 353.732 264.031C364.335 268.059 380.392 262.058 380.392 262.058Z" fill="black"/>
<path d="M390.976 225.879C395.55 225.879 404.347 239.973 403.245 247.122C402.143 254.271 376.317 255.919 373.743 248.974C371.937 244.103 385.66 225.879 390.976 225.879Z" fill="#7C20BE"/>
<path opacity="0.6" d="M390.976 225.879C395.55 225.879 404.347 239.973 403.245 247.122C402.143 254.271 376.317 255.919 373.743 248.974C371.937 244.103 385.66 225.879 390.976 225.879Z" fill="white"/>
<path opacity="0.3" d="M388.235 244.464C387.67 246.798 386.225 248.446 385.012 248.168C383.799 247.89 383.281 245.751 383.845 243.427C384.41 241.103 385.846 239.445 387.059 239.723C388.272 240.001 388.8 242.094 388.235 244.464Z" fill="black"/>
<path opacity="0.3" d="M396.836 247.999C398.08 247.905 398.943 245.894 398.762 243.507C398.581 241.121 397.426 239.263 396.182 239.357C394.937 239.451 394.075 241.462 394.256 243.849C394.437 246.235 395.592 248.094 396.836 247.999Z" fill="black"/>
<path d="M350.75 233.741C350.75 236.436 349.417 238.621 347.769 238.621C346.12 238.621 344.787 236.436 344.787 233.741C344.787 231.046 346.12 228.861 347.769 228.861C349.417 228.861 350.75 231.046 350.75 233.741Z" fill="#263238"/>
<path d="M307.247 215.406C307.247 215.406 306.386 188.83 323.313 173.829C323.313 173.829 326.619 172.69 325.369 177.264C325.369 177.264 335.11 192.127 337.277 201.461C339.444 210.795 307.247 215.406 307.247 215.406Z" fill="#7C20BE"/>
<path opacity="0.2" d="M307.247 215.406C307.247 215.406 306.386 188.83 323.313 173.829C323.313 173.829 326.619 172.69 325.369 177.264C325.369 177.264 335.11 192.127 337.277 201.461C339.444 210.795 307.247 215.406 307.247 215.406Z" fill="white"/>
<path d="M323.6 180.57C323.6 180.57 316.525 195.47 317.118 209.869C317.118 209.869 329.017 207.424 333.601 198.637C333.564 198.637 330.489 187.978 323.6 180.57Z" fill="#7C20BE"/>
<path d="M252.057 286.06L247.288 335.518H277.328L292.347 300.376C292.347 300.376 271.105 282.828 252.057 286.06Z" fill="#7C20BE"/>
<path d="M194.543 271.318L186.209 335.481H216.249L231.268 300.339C231.268 300.339 224.212 271.124 194.543 271.318Z" fill="#7C20BE"/>
<path opacity="0.2" d="M292.347 300.376L277.328 335.518H247.288L252.057 286.069C259.697 284.773 267.679 286.81 274.513 289.727C280.888 292.501 286.881 296.08 292.347 300.376Z" fill="white"/>
<path opacity="0.2" d="M231.231 300.376L216.212 335.518H186.172L194.506 271.355C204.692 271.272 212.202 274.67 217.656 279.161C228.203 287.764 231.231 300.376 231.231 300.376Z" fill="white"/>
<path opacity="0.2" d="M231.231 300.376L216.212 335.518H186.172L194.506 271.355L189.006 332.092H212.054L226.046 297.728C226.046 297.728 225.12 289.292 217.712 279.208C228.203 287.764 231.231 300.376 231.231 300.376Z" fill="black"/>
<path opacity="0.2" d="M292.347 300.376L277.328 335.518H247.288L252.057 286.069L249.492 332.092H273.809L283.236 301.876C283.236 301.876 281.837 296.116 274.513 289.709C280.889 292.489 286.882 296.074 292.347 300.376Z" fill="black"/>
<path d="M178.885 135.307C172.949 137.095 170.551 158.976 167.087 167.356C163.624 175.737 156.466 192.358 156.466 192.358L159.244 195.257C159.244 195.257 171.523 174.885 173.134 171.838C174.745 168.792 181.996 145.91 181.996 145.91L178.885 135.307Z" fill="#E4897B"/>
<path d="M178.885 135.307C175.329 136.298 173.875 136.354 168.801 162.022L157.744 187.46L162.976 190.756C162.976 190.756 174.292 171.134 176.866 166.171C179.44 161.208 182.478 141.576 182.478 141.576L178.885 135.307Z" fill="#7C20BE"/>
<path opacity="0.4" d="M182.505 141.585C182.505 141.585 181.431 148.577 180.014 155.262C179.088 159.781 177.931 164.171 176.894 166.171C176.292 167.328 175.218 169.273 173.921 171.588C173.218 172.847 172.44 174.218 171.643 175.625C167.606 182.718 162.976 190.756 162.976 190.756L157.726 187.45L168.801 162.05C173.875 136.391 175.329 136.326 178.885 135.344L182.505 141.585Z" fill="white"/>
<path opacity="0.2" d="M180.014 155.263C179.088 159.781 177.931 164.171 176.894 166.171C176.292 167.328 175.218 169.273 173.921 171.588C172.264 159.55 176.255 147.651 176.255 147.651C177.857 148.966 179.107 151.762 180.014 155.263Z" fill="black"/>
<path d="M162.569 161.763H159.133C149.327 161.763 141.382 171.078 141.382 182.57C141.382 194.062 149.327 203.368 159.133 203.368H162.569C172.366 203.368 180.32 194.052 180.32 182.57C180.32 171.088 172.366 161.763 162.569 161.763Z" fill="#7C20BE"/>
<path opacity="0.2" d="M162.569 161.763H159.133C149.327 161.763 141.382 171.078 141.382 182.57C141.382 194.062 149.327 203.368 159.133 203.368H162.569C172.366 203.368 180.32 194.052 180.32 182.57C180.32 171.088 172.366 161.763 162.569 161.763Z" fill="black"/>
<path d="M162.568 203.377C172.372 203.377 180.32 194.061 180.32 182.57C180.32 171.078 172.372 161.763 162.568 161.763C152.765 161.763 144.817 171.078 144.817 182.57C144.817 194.061 152.765 203.377 162.568 203.377Z" fill="#7C20BE"/>
<path opacity="0.2" d="M162.569 199.775C170.674 199.775 177.246 192.072 177.246 182.57C177.246 173.068 170.674 165.365 162.569 165.365C154.463 165.365 147.891 173.068 147.891 182.57C147.891 192.072 154.463 199.775 162.569 199.775Z" fill="black"/>
<path d="M163.587 191.58V194.405H161.828V191.627C159.886 191.542 158.029 190.805 156.559 189.534L157.531 186.987C158.722 188.068 160.228 188.74 161.828 188.904V183.867C159.439 183.191 156.883 182.283 156.883 178.783C156.883 176.218 158.476 173.977 161.828 173.597V170.755H163.587V173.533C165.157 173.62 166.67 174.154 167.949 175.07L167.023 177.616C165.985 176.895 164.792 176.429 163.541 176.255V181.339C165.921 182.024 168.523 182.904 168.523 186.404C168.532 188.96 166.958 191.173 163.587 191.58ZM161.828 180.802V176.32C161.239 176.349 160.684 176.603 160.279 177.031C159.873 177.459 159.649 178.027 159.652 178.616C159.652 179.82 160.578 180.376 161.828 180.802ZM165.819 186.617C165.819 185.385 164.893 184.811 163.587 184.376V188.839C165.152 188.562 165.819 187.7 165.819 186.617Z" fill="#7C20BE"/>
<path d="M201.599 271.087L199.247 275.587C199.247 275.587 197.229 274.513 194.015 272.753C193.089 272.253 192.08 271.698 190.987 271.087C187.95 269.42 184.302 267.382 180.45 265.206L177.931 263.762C164.569 256.104 149.873 247.094 149.873 244.566C149.873 241.788 158.485 225.212 165.374 212.397C170.004 203.84 173.81 196.951 173.81 196.951L190.173 206.97C190.173 206.97 184.617 214.425 178.885 222.629C172.227 232.195 165.384 242.779 166.948 243.834C168.143 244.631 174.227 249.39 180.959 254.715L182.181 255.641C185.811 258.511 189.589 261.484 192.793 264.058L195.404 266.123L201.599 271.087Z" fill="#E4897B"/>
<path opacity="0.2" d="M190.173 206.97C190.173 206.97 182.496 217.341 176.783 225.546L163.819 215.295C168.449 206.739 173.838 196.951 173.838 196.951L190.173 206.97Z" fill="black"/>
<path opacity="0.2" d="M195.386 266.16L193.997 272.753C189.978 270.558 184.089 267.308 177.912 263.762C178.959 260.576 180.163 256.993 180.94 254.715C185.987 258.678 191.386 262.984 195.386 266.16Z" fill="black"/>
<path d="M208.813 215.295L205.665 224.907L205.016 226.879L200.21 241.51L199.664 243.186L196.488 252.844L192.784 264.095L191.08 269.29C191.08 269.883 191.025 270.485 190.978 271.087C189.358 295.931 176.422 328.415 176.422 328.415L171.792 327.156C173.431 307.636 176.94 284.893 180.431 265.207C181.014 261.938 181.589 258.725 182.163 255.678C182.487 253.956 182.802 252.261 183.089 250.613C183.755 247.122 184.385 243.816 185.006 240.742C185.302 239.279 185.58 237.88 185.848 236.519C186.524 233.167 187.135 230.176 187.7 227.611C188.265 225.046 188.672 222.925 189.024 221.305C189.534 218.934 189.821 217.601 189.821 217.601L208.813 215.295Z" fill="#E4897B"/>
<path d="M196.034 266.271C195.432 266.271 195.793 273.679 195.793 273.679C195.793 273.679 200.331 278.309 201.303 282.699C202.275 287.088 204.952 284.699 205.007 279.772C205.063 274.846 205.137 271.096 205.192 267.605C205.248 264.114 202.248 266.216 196.034 266.271Z" fill="#263238"/>
<path d="M197.432 278.198C197.334 278.303 197.206 278.375 197.065 278.405C196.924 278.435 196.778 278.421 196.645 278.365C196.539 278.336 196.441 278.285 196.355 278.217C196.269 278.149 196.198 278.063 196.145 277.967C195.944 277.439 195.892 276.865 195.997 276.309C195.664 276.902 195.266 277.42 194.877 277.439C194.627 277.439 194.423 277.282 194.266 276.948C194.201 276.802 194.168 276.645 194.168 276.485C194.168 276.326 194.201 276.168 194.266 276.022C194.701 275.031 196.423 274.439 196.497 274.411C196.545 274.392 196.598 274.392 196.645 274.411H196.692C196.696 274.432 196.696 274.454 196.692 274.476C197.176 275.436 197.489 276.473 197.618 277.541C197.632 277.775 197.567 278.006 197.432 278.198ZM196.506 277.782C196.533 277.833 196.569 277.879 196.614 277.915C196.658 277.952 196.71 277.979 196.766 277.995C197.053 278.069 197.127 277.995 197.155 277.995C197.442 277.652 197.053 276.3 196.618 275.217C196.337 276.049 196.292 276.943 196.488 277.8L196.506 277.782ZM194.654 276.781C194.654 276.883 194.793 277.059 194.895 277.05C195.229 277.05 195.821 275.994 196.247 274.911C195.591 275.137 195.028 275.573 194.645 276.152C194.598 276.244 194.573 276.345 194.571 276.448C194.564 276.562 194.583 276.676 194.627 276.781H194.654Z" fill="#7C20BE"/>
<path d="M177.792 326.322C177.792 325.721 170.384 326.193 170.384 326.193C170.384 326.193 165.847 330.823 161.448 331.841C157.05 332.86 159.503 335.545 164.421 335.545H176.597C180.079 335.518 177.894 332.536 177.792 326.322Z" fill="#263238"/>
<path d="M165.837 327.906C165.731 327.808 165.657 327.681 165.625 327.54C165.594 327.399 165.606 327.252 165.661 327.119C165.687 327.012 165.735 326.913 165.802 326.827C165.869 326.74 165.954 326.67 166.05 326.619C166.575 326.406 167.149 326.342 167.708 326.433C167.106 326.119 166.578 325.73 166.56 325.341C166.56 325.091 166.708 324.878 167.041 324.72C167.187 324.656 167.345 324.623 167.504 324.623C167.663 324.623 167.821 324.656 167.967 324.72C168.967 325.137 169.588 326.859 169.615 326.933C169.634 326.981 169.634 327.034 169.615 327.082C169.598 327.105 169.576 327.124 169.551 327.137C168.593 327.62 167.559 327.934 166.495 328.063C166.264 328.086 166.033 328.03 165.837 327.906ZM166.245 326.98C166.193 327.006 166.148 327.042 166.111 327.087C166.074 327.132 166.047 327.183 166.032 327.239C165.958 327.526 166.032 327.6 166.032 327.628C166.384 327.915 167.736 327.508 168.81 327.045C167.978 326.785 167.093 326.753 166.245 326.952V326.98ZM167.171 325.128C167.069 325.174 166.902 325.276 166.911 325.378C166.911 325.702 167.986 326.304 169.069 326.693C168.832 326.042 168.39 325.486 167.81 325.109C167.715 325.071 167.615 325.05 167.513 325.044C167.411 325.033 167.307 325.043 167.208 325.072L167.171 325.128Z" fill="#7C20BE"/>
<path opacity="0.7" d="M183.015 220.619L181.95 221.619L166.041 210.831L168.05 205.924C168.023 207.651 168.276 209.371 168.8 211.017C169.671 213.072 180.209 219.054 183.015 220.619Z" fill="white"/>
<path opacity="0.2" d="M208.813 215.295L205.016 226.87C196.321 228.935 191.349 227.629 187.728 227.602C188.256 225.046 188.7 222.916 189.052 221.296C189.561 218.925 189.849 217.592 189.849 217.592L208.813 215.295Z" fill="black"/>
<path d="M208.582 221.805C208.387 223.333 208.146 224.898 207.869 226.49L186.626 225.74V217.212L179.542 225.018L163.8 212.239L174.745 189.589L176.153 175.32L204.739 178.357C204.739 178.357 212.054 195.479 208.582 221.805Z" fill="#263238"/>
<path d="M204.442 174.301L175.496 171.801V176.755L205.128 179.375L204.442 174.301Z" fill="black"/>
<path d="M183.57 173.996V176.292C183.569 176.742 183.737 177.175 184.04 177.506C184.344 177.837 184.761 178.042 185.209 178.079L188.821 178.403H188.978C189.426 178.398 189.857 178.23 190.191 177.931C190.372 177.761 190.517 177.556 190.617 177.328C190.718 177.101 190.771 176.856 190.775 176.607V174.292C190.776 173.843 190.608 173.409 190.304 173.078C190.001 172.747 189.583 172.542 189.135 172.505L185.515 172.19C185.266 172.169 185.016 172.2 184.78 172.281C184.544 172.362 184.327 172.492 184.144 172.662C183.964 172.834 183.82 173.041 183.721 173.27C183.623 173.499 183.571 173.746 183.57 173.996ZM184.496 176.292V175.533L185.506 175.607C185.586 175.613 185.666 175.603 185.743 175.578C185.819 175.553 185.89 175.513 185.951 175.461C186.012 175.408 186.062 175.344 186.099 175.272C186.135 175.201 186.157 175.122 186.163 175.042C186.169 174.962 186.159 174.881 186.134 174.805C186.109 174.728 186.069 174.657 186.017 174.596C185.964 174.535 185.9 174.485 185.829 174.449C185.757 174.412 185.678 174.391 185.598 174.385L184.589 174.301H184.45V173.959C184.447 173.837 184.471 173.716 184.519 173.604C184.567 173.493 184.638 173.392 184.728 173.31C184.888 173.167 185.096 173.088 185.311 173.088H185.394L189.006 173.403C189.223 173.419 189.426 173.517 189.573 173.677C189.721 173.837 189.803 174.047 189.802 174.264V176.579C189.802 176.7 189.776 176.819 189.727 176.929C189.677 177.039 189.605 177.138 189.515 177.218C189.428 177.301 189.325 177.363 189.211 177.402C189.097 177.44 188.977 177.453 188.858 177.44L185.237 177.125C185.036 177.095 184.851 176.995 184.716 176.843C184.58 176.691 184.503 176.496 184.496 176.292Z" fill="white"/>
<path d="M178.885 135.307C178.885 135.307 196.636 133.974 209.517 139.289L204.442 174.301L176.977 171.801C176.977 171.801 176.255 145.715 178.885 135.307Z" fill="#7C20BE"/>
<path d="M198.47 137.048C198.47 137.048 196.914 140.409 190.552 142.308C190.552 142.308 187.043 140.456 188.043 137.381C188.043 137.381 190.071 137.029 189.506 132.177C189.506 132.048 189.487 131.909 189.45 131.761C189.267 130.545 189.01 129.343 188.682 128.158L196.266 125.38C196.266 125.38 194.358 131.575 197.099 135.566C197.473 136.131 197.936 136.631 198.47 137.048Z" fill="#E4897B"/>
<path opacity="0.2" d="M197.099 135.539C194.225 135.434 191.503 134.219 189.506 132.15C189.506 132.02 189.487 131.881 189.45 131.733C189.267 130.518 189.01 129.315 188.682 128.131L196.266 125.353C196.266 125.353 194.358 131.538 197.099 135.539Z" fill="black"/>
<path d="M188.848 107.684C188.848 107.684 186.774 97.3318 176.107 99.4061C165.439 101.48 170.412 116.074 172.588 120.602C174.764 125.13 175.07 128.936 172.486 130.983C172.486 130.983 176.005 131.992 177.866 129.575C177.866 129.575 177.764 131.807 176.523 132.742C176.523 132.742 187.246 128.908 184.524 116.38C181.802 103.851 188.848 107.684 188.848 107.684Z" fill="#263238"/>
<path d="M200.238 106.861C200.238 106.861 205.618 107.064 207.063 111.62C208.507 116.176 207.368 121.269 199.349 126.705C191.33 132.141 184.598 126.797 181.496 123.093C178.394 119.389 179.94 106.833 188.848 105.342C197.757 103.851 200.238 106.861 200.238 106.861Z" fill="#263238"/>
<path d="M195.099 108.342C201.933 109.333 203.6 113.305 203.081 120.38C202.433 129.26 199.59 135.196 191.321 132.121C180.098 127.908 183.765 106.694 195.099 108.342Z" fill="#E4897B"/>
<path d="M198.72 119.38C199.123 120.479 199.654 121.526 200.303 122.5C200.061 122.753 199.754 122.934 199.416 123.024C199.078 123.113 198.722 123.109 198.386 123.01L198.72 119.38Z" fill="#DE5753"/>
<path d="M194.627 118.222C194.562 118.778 194.201 119.204 193.821 119.148C193.441 119.093 193.201 118.611 193.265 118.046C193.33 117.482 193.691 117.065 194.071 117.12C194.451 117.176 194.691 117.658 194.627 118.222Z" fill="#263238"/>
<path d="M193.914 117.13L195.192 116.796C195.192 116.796 194.46 117.75 193.914 117.13Z" fill="#263238"/>
<path d="M201.636 118.945C201.572 119.51 201.21 119.926 200.831 119.871C200.451 119.815 200.21 119.334 200.275 118.769C200.34 118.204 200.701 117.787 201.081 117.843C201.461 117.898 201.701 118.38 201.636 118.945Z" fill="#263238"/>
<path d="M200.942 117.852L202.22 117.519C202.22 117.519 201.47 118.473 200.942 117.852Z" fill="#263238"/>
<path d="M192.126 114.426C192.036 114.424 191.95 114.388 191.886 114.324C191.826 114.262 191.792 114.179 191.792 114.093C191.792 114.006 191.826 113.923 191.886 113.861C192.365 113.49 192.924 113.235 193.518 113.116C194.113 112.997 194.727 113.018 195.312 113.176C195.393 113.203 195.461 113.261 195.503 113.336C195.544 113.412 195.555 113.5 195.534 113.583C195.523 113.625 195.505 113.664 195.479 113.698C195.453 113.732 195.42 113.761 195.383 113.782C195.346 113.804 195.305 113.818 195.263 113.823C195.22 113.829 195.177 113.826 195.136 113.815C194.663 113.69 194.168 113.672 193.687 113.764C193.206 113.855 192.752 114.053 192.358 114.343C192.294 114.399 192.211 114.429 192.126 114.426Z" fill="#263238"/>
<path d="M202.887 115.204C202.805 115.204 202.726 115.175 202.664 115.12C202.362 114.808 201.994 114.568 201.587 114.415C201.181 114.263 200.745 114.204 200.312 114.241C200.27 114.25 200.227 114.251 200.184 114.244C200.142 114.236 200.102 114.221 200.065 114.197C200.029 114.174 199.998 114.144 199.974 114.108C199.949 114.073 199.932 114.033 199.923 113.991C199.914 113.949 199.913 113.905 199.92 113.863C199.928 113.82 199.944 113.78 199.967 113.744C199.99 113.708 200.02 113.676 200.056 113.652C200.091 113.628 200.131 113.611 200.173 113.602C200.707 113.542 201.247 113.603 201.754 113.781C202.261 113.959 202.721 114.249 203.1 114.63C203.152 114.672 203.189 114.73 203.206 114.795C203.224 114.86 203.221 114.929 203.197 114.992C203.174 115.056 203.131 115.11 203.076 115.148C203.02 115.186 202.954 115.205 202.887 115.204Z" fill="#263238"/>
<path d="M185.978 118.76C185.978 118.76 189.978 113.611 190.126 109.213C190.126 109.213 204.452 105.638 203.137 119.473C203.137 119.473 206.22 107.435 194.525 105.499C182.829 103.564 180.394 120.713 185.719 126.705C185.719 126.705 183.496 121.982 185.978 118.76Z" fill="#263238"/>
<path d="M186.885 120.38C186.934 119.588 186.67 118.809 186.151 118.21C185.631 117.611 184.898 117.24 184.107 117.176C181.95 117.102 180.32 121.306 185.431 123.111C186.126 123.352 186.654 122.667 186.885 120.38Z" fill="#E4897B"/>
<path d="M196.794 126.908C195.929 126.949 195.074 126.705 194.362 126.213C193.649 125.721 193.117 125.009 192.849 124.186C192.826 124.102 192.836 124.013 192.877 123.937C192.919 123.861 192.988 123.804 193.071 123.779C193.112 123.766 193.156 123.761 193.199 123.766C193.242 123.77 193.284 123.783 193.322 123.804C193.36 123.824 193.393 123.853 193.42 123.886C193.447 123.92 193.467 123.959 193.478 124.001C193.715 124.707 194.182 125.314 194.806 125.722C195.429 126.13 196.172 126.316 196.914 126.251C196.957 126.247 197.001 126.252 197.042 126.266C197.084 126.279 197.122 126.301 197.155 126.329C197.187 126.358 197.214 126.392 197.233 126.432C197.252 126.471 197.263 126.513 197.266 126.557C197.271 126.642 197.243 126.726 197.188 126.792C197.133 126.857 197.055 126.899 196.969 126.908H196.794Z" fill="#263238"/>
<path d="M199.349 104.138C199.349 104.138 203.72 102.406 203.535 106.342C203.35 110.277 186.774 120 178.385 119.38C178.385 119.38 180.663 118.787 181.394 117.797C180.323 115.7 180.043 113.287 180.604 111C181.165 108.714 182.53 106.705 184.45 105.342C193.164 98.4709 199.349 104.138 199.349 104.138Z" fill="#263238"/>
<path d="M190.061 119.612C190.011 119.614 189.961 119.6 189.919 119.572C189.877 119.543 189.846 119.502 189.83 119.454C189.82 119.426 189.815 119.397 189.817 119.367C189.818 119.337 189.826 119.308 189.839 119.281C189.852 119.255 189.87 119.231 189.892 119.211C189.915 119.191 189.941 119.176 189.969 119.167C201.155 115.324 201.951 107.277 202.007 107.203C202.012 107.143 202.039 107.088 202.084 107.048C202.129 107.008 202.188 106.988 202.248 106.99C202.307 106.997 202.362 107.027 202.4 107.074C202.438 107.121 202.457 107.18 202.451 107.24C202.451 107.324 201.636 115.648 190.163 119.593L190.061 119.612Z" fill="#263238"/>
<path d="M209.517 139.289C213.063 140.752 225.879 157.689 225.703 164.291C225.527 170.893 210.128 182.617 210.128 182.617L216.175 188.302C216.175 188.302 211.045 191.719 210.498 191.534C209.952 191.349 205.803 183.941 205.127 182.617C204.451 181.292 207.6 179.422 207.6 179.422C207.6 179.422 220.388 166.838 220.564 163.522C220.74 160.207 207.6 150.142 207.6 150.142L209.517 139.289Z" fill="#E4897B"/>
<path d="M185.126 140.817C185.469 143.132 179.181 173.227 179.181 173.227L174.551 172.301C174.551 172.301 175.431 142.364 178.912 135.317L182.533 135.548L185.126 140.817Z" fill="#7C20BE"/>
<path d="M197.951 141.576C196.099 143.993 198.47 176.348 198.47 176.348L206.952 175.588L209.517 139.289C209.517 139.289 208.35 137.845 203.498 136.456L197.951 141.576Z" fill="#7C20BE"/>
<path opacity="0.4" d="M185.126 140.817C185.469 143.132 179.181 173.227 179.181 173.227L174.551 172.301C174.551 172.301 175.431 142.364 178.912 135.317L182.533 135.548L185.126 140.817Z" fill="white"/>
<path opacity="0.4" d="M209.517 139.289L208.896 148.049L208.156 158.54L206.952 175.588L198.47 176.347C198.47 176.347 196.09 143.993 197.951 141.585L203.507 136.465C208.35 137.844 209.517 139.289 209.517 139.289Z" fill="white"/>
<path d="M197.951 141.576C197.951 141.576 203.238 132.603 205.127 133.52C207.017 134.437 206.739 135.539 206.739 135.539C206.739 135.539 208.48 135.714 208.665 136.465C208.85 137.215 205.35 140.882 197.951 141.576Z" fill="#7C20BE"/>
<path d="M185.126 140.817C185.126 140.817 185.126 132.603 183.941 132.159C182.755 131.714 181.996 134.168 181.996 134.168C181.996 134.168 181.163 132.316 180.024 134.168C178.885 136.02 185.126 140.817 185.126 140.817Z" fill="#7C20BE"/>
<path opacity="0.2" d="M197.951 141.576C197.951 141.576 203.238 132.603 205.127 133.52C207.017 134.437 206.739 135.539 206.739 135.539C206.739 135.539 208.48 135.714 208.665 136.465C208.85 137.215 205.35 140.882 197.951 141.576Z" fill="white"/>
<path opacity="0.2" d="M185.126 140.817C185.126 140.817 185.126 132.603 183.941 132.159C182.755 131.714 181.996 134.168 181.996 134.168C181.996 134.168 181.163 132.316 180.024 134.168C178.885 136.02 185.126 140.817 185.126 140.817Z" fill="white"/>
<path opacity="0.2" d="M208.896 148.049L208.156 158.54C207.283 154.776 207.036 150.893 207.424 147.049L208.896 148.049Z" fill="black"/>
<path d="M209.517 139.289C212.082 140.326 226.74 156.568 226.49 163.365C226.24 170.162 213.526 180.533 213.526 180.533L208.646 177.181C208.646 177.181 219.017 164.217 218.527 161.05C218.036 157.883 208.646 151.234 208.646 151.234C208.646 151.234 206.794 149.688 207.572 144.928C208.35 140.169 209.517 139.289 209.517 139.289Z" fill="#7C20BE"/>
<path opacity="0.4" d="M209.517 139.289C212.082 140.326 226.74 156.568 226.49 163.365C226.24 170.162 213.526 180.533 213.526 180.533L208.646 177.181C208.646 177.181 219.017 164.217 218.527 161.05C218.036 157.883 208.646 151.234 208.646 151.234C208.646 151.234 206.794 149.688 207.572 144.928C208.35 140.169 209.517 139.289 209.517 139.289Z" fill="white"/>
<path d="M145.493 195.886L148.836 196.951L151.771 201.498C151.771 201.498 149.151 202.729 147.891 201.988C146.632 201.248 144.826 199.303 144.817 198.571C144.943 197.654 145.17 196.754 145.493 195.886Z" fill="#E4897B"/>
</svg>
