<svg width="36" height="36" viewBox="0 0 36 36" fill="none" xmlns="http://www.w3.org/2000/svg">
<g clip-path="url(#clip0_293_2048)">
<path d="M11.86 16.5501C11.1203 16.5526 10.3936 16.7454 9.74999 17.1101C10.6561 14.7646 12.1591 12.6964 14.11 11.1101C14.2216 11.0181 14.314 10.9051 14.382 10.7775C14.4499 10.6498 14.4921 10.5101 14.506 10.3661C14.5199 10.2222 14.5054 10.0769 14.4632 9.93864C14.421 9.80033 14.3519 9.6717 14.26 9.56007C14.1681 9.44845 14.0551 9.35602 13.9274 9.28807C13.7998 9.22013 13.66 9.17798 13.5161 9.16406C13.3721 9.15013 13.2269 9.16468 13.0886 9.2069C12.9503 9.24911 12.8216 9.31815 12.71 9.41007C8.70999 12.6601 6.92999 17.1601 6.92999 19.9501C6.93688 20.9366 7.23086 21.8997 7.77603 22.7219C8.3212 23.5441 9.09397 24.1898 9.99999 24.5801C10.5864 24.8641 11.2285 25.0144 11.88 25.0201C12.4535 25.0479 13.0266 24.9591 13.5647 24.7588C14.1028 24.5586 14.5946 24.2511 15.0103 23.8551C15.426 23.4591 15.757 22.9828 15.9831 22.4551C16.2092 21.9274 16.3258 21.3592 16.3258 20.7851C16.3258 20.2109 16.2092 19.6428 15.9831 19.1151C15.757 18.5873 15.426 18.111 15.0103 17.715C14.5946 17.319 14.1028 17.0116 13.5647 16.8113C13.0266 16.6111 12.4535 16.5222 11.88 16.5501H11.86Z" fill="white"/>
<path d="M23 16.55C22.2602 16.5516 21.5333 16.7445 20.89 17.11C21.7958 14.767 23.2948 12.6995 25.24 11.11C25.3618 11.0223 25.4643 10.9105 25.5412 10.7816C25.6182 10.6528 25.6679 10.5095 25.6875 10.3607C25.707 10.2119 25.6958 10.0607 25.6547 9.91633C25.6136 9.77198 25.5434 9.63758 25.4484 9.52139C25.3534 9.40519 25.2356 9.30967 25.1023 9.2407C24.969 9.17173 24.823 9.13077 24.6733 9.12034C24.5235 9.1099 24.3733 9.13022 24.2317 9.18004C24.0901 9.22986 23.9602 9.30812 23.85 9.41002C19.85 12.66 18.07 17.16 18.07 19.95C18.0747 20.9253 18.3602 21.8787 18.8921 22.6962C19.4241 23.5136 20.1802 24.1607 21.07 24.56C21.6712 24.8524 22.3315 25.0029 23 25C23.5735 25.0279 24.1466 24.939 24.6847 24.7388C25.2228 24.5385 25.7146 24.2311 26.1303 23.8351C26.546 23.4391 26.877 22.9628 27.1031 22.435C27.3293 21.9073 27.4459 21.3392 27.4459 20.765C27.4459 20.1909 27.3293 19.6227 27.1031 19.095C26.877 18.5673 26.546 18.091 26.1303 17.695C25.7146 17.299 25.2228 16.9915 24.6847 16.7913C24.1466 16.591 23.5735 16.5021 23 16.53V16.55Z" fill="white"/>
</g>
<defs>
<clipPath id="clip0_293_2048">
<rect width="36" height="36" fill="white"/>
</clipPath>
</defs>
</svg>
