<svg width="24" height="20" viewBox="0 0 24 20" fill="none" xmlns="http://www.w3.org/2000/svg">
<path d="M7.54909 19.9997C9.39179 20.0116 11.2185 19.6482 12.9231 18.9305C14.6278 18.2128 16.1766 17.1551 17.4796 15.8189C18.7826 14.4826 19.8139 12.8943 20.5137 11.1461C21.2136 9.39797 21.568 7.52469 21.5564 5.63496V4.9749C22.5116 4.25721 23.3383 3.37528 24 2.36821C23.1006 2.77163 22.1488 3.03918 21.1745 3.16252C22.2075 2.5313 22.9826 1.53772 23.3564 0.365645C22.3937 0.957957 21.338 1.37435 20.2364 1.59627C19.4945 0.785586 18.5127 0.248239 17.4431 0.0673704C16.3734 -0.113498 15.2754 0.0721963 14.319 0.595721C13.3626 1.11924 12.6011 1.95142 12.1523 2.96347C11.7035 3.97552 11.5925 5.11105 11.8364 6.19434C9.8793 6.09582 7.96441 5.57569 6.21639 4.66781C4.46837 3.75992 2.9264 2.48465 1.69091 0.92502C1.06792 2.0339 0.879084 3.34412 1.16265 4.59041C1.44621 5.83669 2.18098 6.92591 3.21818 7.63752C2.45303 7.60726 1.70558 7.39263 1.03636 7.01102V7.06696C1.02956 8.2258 1.41024 9.35203 2.11495 10.2579C2.81966 11.1638 3.80582 11.7947 4.90909 12.0454C4.19742 12.2417 3.45196 12.2723 2.72727 12.1349C3.04667 13.1232 3.65638 13.986 4.47278 14.6049C5.28917 15.2238 6.27228 15.5685 7.28727 15.5918C5.55187 17.0244 3.39501 17.813 1.16727 17.8293C0.776676 17.8177 0.386997 17.7841 0 17.7287C2.25486 19.2019 4.8755 19.9787 7.54909 19.9662" fill="#26093A"/>
</svg>
