<svg width="18" height="18" viewBox="0 0 18 18" fill="none" xmlns="http://www.w3.org/2000/svg">
<circle cx="9" cy="9" r="9" fill="#91F488"/>
<path fill-rule="evenodd" clip-rule="evenodd" d="M8.75095 16.9527C8.94986 16.9527 9.14063 16.8994 9.28128 16.8047C9.42193 16.71 9.50095 16.5816 9.50095 16.4476V4.53575L14.2199 7.71447C14.3608 7.8093 14.5518 7.86258 14.7509 7.86258C14.9501 7.86258 15.1411 7.8093 15.2819 7.71447C15.4228 7.61963 15.5019 7.49101 15.5019 7.3569C15.5019 7.22278 15.4228 7.09416 15.2819 6.99933L9.28195 2.95901C9.21228 2.91198 9.12951 2.87467 9.0384 2.8492C8.94728 2.82374 8.8496 2.81064 8.75095 2.81064C8.6523 2.81064 8.55462 2.82374 8.4635 2.8492C8.37238 2.87467 8.28962 2.91198 8.21995 2.95901L2.21995 6.99933C2.15022 7.04629 2.0949 7.10203 2.05716 7.16338C2.01942 7.22473 2 7.29049 2 7.3569C2 7.49101 2.07912 7.61963 2.21995 7.71447C2.36078 7.8093 2.55178 7.86258 2.75095 7.86258C2.95011 7.86258 3.14112 7.8093 3.28195 7.71447L8.00095 4.53575V16.4476C8.00095 16.5816 8.07997 16.71 8.22062 16.8047C8.36127 16.8994 8.55203 16.9527 8.75095 16.9527Z" fill="#133011"/>
</svg>
