<svg width="14" height="15" viewBox="0 0 14 15" fill="none" xmlns="http://www.w3.org/2000/svg">
<path fill-rule="evenodd" clip-rule="evenodd" d="M6.75095 14.9425C6.94986 14.9425 7.14063 14.8893 7.28128 14.7946C7.42193 14.6999 7.50095 14.5714 7.50095 14.4375V2.52561L12.2199 5.70433C12.3608 5.79917 12.5518 5.85244 12.7509 5.85244C12.9501 5.85244 13.1411 5.79917 13.2819 5.70433C13.4228 5.6095 13.5019 5.48088 13.5019 5.34677C13.5019 5.21265 13.4228 5.08403 13.2819 4.9892L7.28195 0.948881C7.21228 0.901848 7.12951 0.864533 7.0384 0.839073C6.94728 0.813612 6.8496 0.800507 6.75095 0.800507C6.6523 0.800507 6.55462 0.813612 6.4635 0.839073C6.37238 0.864533 6.28962 0.901848 6.21995 0.948881L0.219947 4.9892C0.150215 5.03615 0.0949012 5.0919 0.0571625 5.15325C0.0194239 5.2146 0 5.28036 0 5.34677C0 5.48088 0.0791173 5.6095 0.219947 5.70433C0.360777 5.79917 0.551784 5.85244 0.750947 5.85244C0.950111 5.85244 1.14112 5.79917 1.28195 5.70433L6.00095 2.52561V14.4375C6.00095 14.5714 6.07997 14.6999 6.22062 14.7946C6.36127 14.8893 6.55203 14.9425 6.75095 14.9425Z" fill="#133011"/>
</svg>
